<mxfile host="app.diagrams.net" agent="Mozilla/5.0 (Windows NT 10.0; Win64; x64) AppleWebKit/537.36 (KHTML, like Gecko) Chrome/129.0.0.0 Safari/537.36" version="24.7.17">
  <diagram id="C5RBs43oDa-KdzZeNtuy" name="Page-1">
    <mxGraphModel dx="1332" dy="502" grid="1" gridSize="10" guides="1" tooltips="1" connect="1" arrows="1" fold="1" page="1" pageScale="1" pageWidth="827" pageHeight="1169" math="0" shadow="0">
      <root>
        <mxCell id="WIyWlLk6GJQsqaUBKTNV-0" />
        <mxCell id="WIyWlLk6GJQsqaUBKTNV-1" parent="WIyWlLk6GJQsqaUBKTNV-0" />
        <mxCell id="ZpY4Ak6-bPGPURZYHrNQ-2" value="medicos" style="swimlane;fontStyle=2;align=center;verticalAlign=top;childLayout=stackLayout;horizontal=1;startSize=26;horizontalStack=0;resizeParent=1;resizeLast=0;collapsible=1;marginBottom=0;rounded=0;shadow=0;strokeWidth=1;fillColor=#ffe6cc;strokeColor=#d79b00;" vertex="1" parent="WIyWlLk6GJQsqaUBKTNV-1">
          <mxGeometry x="220" y="356" width="160" height="138" as="geometry">
            <mxRectangle x="230" y="140" width="160" height="26" as="alternateBounds" />
          </mxGeometry>
        </mxCell>
        <mxCell id="ZpY4Ak6-bPGPURZYHrNQ-3" value="id" style="text;align=left;verticalAlign=top;spacingLeft=4;spacingRight=4;overflow=hidden;rotatable=0;points=[[0,0.5],[1,0.5]];portConstraint=eastwest;" vertex="1" parent="ZpY4Ak6-bPGPURZYHrNQ-2">
          <mxGeometry y="26" width="160" height="26" as="geometry" />
        </mxCell>
        <mxCell id="ZpY4Ak6-bPGPURZYHrNQ-4" value="especialidad" style="text;align=left;verticalAlign=top;spacingLeft=4;spacingRight=4;overflow=hidden;rotatable=0;points=[[0,0.5],[1,0.5]];portConstraint=eastwest;rounded=0;shadow=0;html=0;" vertex="1" parent="ZpY4Ak6-bPGPURZYHrNQ-2">
          <mxGeometry y="52" width="160" height="26" as="geometry" />
        </mxCell>
        <mxCell id="ZpY4Ak6-bPGPURZYHrNQ-6" value="citas" style="swimlane;fontStyle=2;align=center;verticalAlign=top;childLayout=stackLayout;horizontal=1;startSize=26;horizontalStack=0;resizeParent=1;resizeLast=0;collapsible=1;marginBottom=0;rounded=0;shadow=0;strokeWidth=1;fillColor=#dae8fc;strokeColor=#6c8ebf;" vertex="1" parent="WIyWlLk6GJQsqaUBKTNV-1">
          <mxGeometry x="220" y="110" width="160" height="138" as="geometry">
            <mxRectangle x="230" y="140" width="160" height="26" as="alternateBounds" />
          </mxGeometry>
        </mxCell>
        <mxCell id="ZpY4Ak6-bPGPURZYHrNQ-36" value="id" style="text;align=left;verticalAlign=top;spacingLeft=4;spacingRight=4;overflow=hidden;rotatable=0;points=[[0,0.5],[1,0.5]];portConstraint=eastwest;rounded=0;shadow=0;html=0;" vertex="1" parent="ZpY4Ak6-bPGPURZYHrNQ-6">
          <mxGeometry y="26" width="160" height="26" as="geometry" />
        </mxCell>
        <mxCell id="ZpY4Ak6-bPGPURZYHrNQ-39" value="diag.especifico" style="text;align=left;verticalAlign=top;spacingLeft=4;spacingRight=4;overflow=hidden;rotatable=0;points=[[0,0.5],[1,0.5]];portConstraint=eastwest;rounded=0;shadow=0;html=0;" vertex="1" parent="ZpY4Ak6-bPGPURZYHrNQ-6">
          <mxGeometry y="52" width="160" height="26" as="geometry" />
        </mxCell>
        <mxCell id="ZpY4Ak6-bPGPURZYHrNQ-10" value="diagnostico" style="swimlane;fontStyle=2;align=center;verticalAlign=top;childLayout=stackLayout;horizontal=1;startSize=26;horizontalStack=0;resizeParent=1;resizeLast=0;collapsible=1;marginBottom=0;rounded=0;shadow=0;strokeWidth=1;fillColor=#60a917;fontColor=#ffffff;strokeColor=#2D7600;" vertex="1" parent="WIyWlLk6GJQsqaUBKTNV-1">
          <mxGeometry x="510" y="310" width="160" height="138" as="geometry">
            <mxRectangle x="230" y="140" width="160" height="26" as="alternateBounds" />
          </mxGeometry>
        </mxCell>
        <mxCell id="ZpY4Ak6-bPGPURZYHrNQ-33" value="id" style="text;align=left;verticalAlign=top;spacingLeft=4;spacingRight=4;overflow=hidden;rotatable=0;points=[[0,0.5],[1,0.5]];portConstraint=eastwest;rounded=0;shadow=0;html=0;" vertex="1" parent="ZpY4Ak6-bPGPURZYHrNQ-10">
          <mxGeometry y="26" width="160" height="26" as="geometry" />
        </mxCell>
        <mxCell id="ZpY4Ak6-bPGPURZYHrNQ-16" value="" style="endArrow=none;html=1;rounded=0;exitX=1.006;exitY=0.962;exitDx=0;exitDy=0;exitPerimeter=0;fillColor=#60a917;strokeColor=#2D7600;" edge="1" parent="WIyWlLk6GJQsqaUBKTNV-1">
          <mxGeometry width="50" height="50" relative="1" as="geometry">
            <mxPoint x="380.96000000000004" y="197.01199999999994" as="sourcePoint" />
            <mxPoint x="510" y="197" as="targetPoint" />
            <Array as="points">
              <mxPoint x="410" y="197" />
            </Array>
          </mxGeometry>
        </mxCell>
        <mxCell id="ZpY4Ak6-bPGPURZYHrNQ-18" value="pacientes" style="swimlane;fontStyle=2;align=center;verticalAlign=top;childLayout=stackLayout;horizontal=1;startSize=26;horizontalStack=0;resizeParent=1;resizeLast=0;collapsible=1;marginBottom=0;rounded=0;shadow=0;strokeWidth=1;fillColor=#d5e8d4;strokeColor=#82b366;" vertex="1" parent="WIyWlLk6GJQsqaUBKTNV-1">
          <mxGeometry x="510" y="110" width="160" height="138" as="geometry">
            <mxRectangle x="230" y="140" width="160" height="26" as="alternateBounds" />
          </mxGeometry>
        </mxCell>
        <mxCell id="ZpY4Ak6-bPGPURZYHrNQ-19" value="id" style="text;align=left;verticalAlign=top;spacingLeft=4;spacingRight=4;overflow=hidden;rotatable=0;points=[[0,0.5],[1,0.5]];portConstraint=eastwest;rounded=0;shadow=0;html=0;" vertex="1" parent="ZpY4Ak6-bPGPURZYHrNQ-18">
          <mxGeometry y="26" width="160" height="26" as="geometry" />
        </mxCell>
        <mxCell id="ZpY4Ak6-bPGPURZYHrNQ-20" value="historial diagnostico" style="text;align=left;verticalAlign=top;spacingLeft=4;spacingRight=4;overflow=hidden;rotatable=0;points=[[0,0.5],[1,0.5]];portConstraint=eastwest;" vertex="1" parent="ZpY4Ak6-bPGPURZYHrNQ-18">
          <mxGeometry y="52" width="160" height="26" as="geometry" />
        </mxCell>
        <mxCell id="ZpY4Ak6-bPGPURZYHrNQ-22" value="" style="endArrow=none;html=1;rounded=0;exitX=0.621;exitY=0.003;exitDx=0;exitDy=0;exitPerimeter=0;fillColor=#60a917;strokeColor=#2D7600;" edge="1" parent="WIyWlLk6GJQsqaUBKTNV-1" source="ZpY4Ak6-bPGPURZYHrNQ-2">
          <mxGeometry width="50" height="50" relative="1" as="geometry">
            <mxPoint x="320" y="360" as="sourcePoint" />
            <mxPoint x="290" y="248" as="targetPoint" />
            <Array as="points">
              <mxPoint x="320" y="290" />
              <mxPoint x="290" y="290" />
            </Array>
          </mxGeometry>
        </mxCell>
        <mxCell id="ZpY4Ak6-bPGPURZYHrNQ-23" value="" style="endArrow=none;html=1;rounded=0;exitX=1.006;exitY=0.962;exitDx=0;exitDy=0;exitPerimeter=0;entryX=-0.012;entryY=0.123;entryDx=0;entryDy=0;entryPerimeter=0;fillColor=#60a917;strokeColor=#2D7600;" edge="1" parent="WIyWlLk6GJQsqaUBKTNV-1" target="ZpY4Ak6-bPGPURZYHrNQ-10">
          <mxGeometry width="50" height="50" relative="1" as="geometry">
            <mxPoint x="380.00000000000006" y="248.01199999999994" as="sourcePoint" />
            <mxPoint x="580" y="300" as="targetPoint" />
            <Array as="points">
              <mxPoint x="409.04" y="248" />
              <mxPoint x="410" y="327" />
            </Array>
          </mxGeometry>
        </mxCell>
        <mxCell id="ZpY4Ak6-bPGPURZYHrNQ-25" value="1" style="text;align=left;verticalAlign=top;spacingLeft=4;spacingRight=4;overflow=hidden;rotatable=0;points=[[0,0.5],[1,0.5]];portConstraint=eastwest;" vertex="1" parent="WIyWlLk6GJQsqaUBKTNV-1">
          <mxGeometry x="480" y="166" width="30" height="26" as="geometry" />
        </mxCell>
        <mxCell id="ZpY4Ak6-bPGPURZYHrNQ-26" value="oo" style="text;align=left;verticalAlign=top;spacingLeft=4;spacingRight=4;overflow=hidden;rotatable=0;points=[[0,0.5],[1,0.5]];portConstraint=eastwest;" vertex="1" parent="WIyWlLk6GJQsqaUBKTNV-1">
          <mxGeometry x="380" y="166" width="30" height="26" as="geometry" />
        </mxCell>
        <mxCell id="ZpY4Ak6-bPGPURZYHrNQ-27" value="1" style="text;align=left;verticalAlign=top;spacingLeft=4;spacingRight=4;overflow=hidden;rotatable=0;points=[[0,0.5],[1,0.5]];portConstraint=eastwest;" vertex="1" parent="WIyWlLk6GJQsqaUBKTNV-1">
          <mxGeometry x="320" y="330" width="30" height="26" as="geometry" />
        </mxCell>
        <mxCell id="ZpY4Ak6-bPGPURZYHrNQ-28" value="00" style="text;align=left;verticalAlign=top;spacingLeft=4;spacingRight=4;overflow=hidden;rotatable=0;points=[[0,0.5],[1,0.5]];portConstraint=eastwest;" vertex="1" parent="WIyWlLk6GJQsqaUBKTNV-1">
          <mxGeometry x="260" y="248" width="30" height="26" as="geometry" />
        </mxCell>
        <mxCell id="ZpY4Ak6-bPGPURZYHrNQ-29" value="1" style="text;align=left;verticalAlign=top;spacingLeft=4;spacingRight=4;overflow=hidden;rotatable=0;points=[[0,0.5],[1,0.5]];portConstraint=eastwest;" vertex="1" parent="WIyWlLk6GJQsqaUBKTNV-1">
          <mxGeometry x="380" y="248" width="20" height="26" as="geometry" />
        </mxCell>
        <mxCell id="ZpY4Ak6-bPGPURZYHrNQ-30" value="1" style="text;align=left;verticalAlign=top;spacingLeft=4;spacingRight=4;overflow=hidden;rotatable=0;points=[[0,0.5],[1,0.5]];portConstraint=eastwest;" vertex="1" parent="WIyWlLk6GJQsqaUBKTNV-1">
          <mxGeometry x="480" y="330" width="30" height="26" as="geometry" />
        </mxCell>
        <mxCell id="ZpY4Ak6-bPGPURZYHrNQ-31" value="reserva (hora)" style="text;align=left;verticalAlign=top;spacingLeft=4;spacingRight=4;overflow=hidden;rotatable=0;points=[[0,0.5],[1,0.5]];portConstraint=eastwest;" vertex="1" parent="WIyWlLk6GJQsqaUBKTNV-1">
          <mxGeometry x="410" y="192" width="80" height="26" as="geometry" />
        </mxCell>
        <mxCell id="ZpY4Ak6-bPGPURZYHrNQ-32" value="atiende" style="text;align=left;verticalAlign=top;spacingLeft=4;spacingRight=4;overflow=hidden;rotatable=0;points=[[0,0.5],[1,0.5]];portConstraint=eastwest;" vertex="1" parent="WIyWlLk6GJQsqaUBKTNV-1">
          <mxGeometry x="265" y="304" width="55" height="26" as="geometry" />
        </mxCell>
        <mxCell id="ZpY4Ak6-bPGPURZYHrNQ-38" value="determina" style="text;align=left;verticalAlign=top;spacingLeft=4;spacingRight=4;overflow=hidden;rotatable=0;points=[[0,0.5],[1,0.5]];portConstraint=eastwest;rounded=0;shadow=0;html=0;" vertex="1" parent="WIyWlLk6GJQsqaUBKTNV-1">
          <mxGeometry x="410" y="278" width="70" height="26" as="geometry" />
        </mxCell>
        <mxCell id="ZpY4Ak6-bPGPURZYHrNQ-40" value="" style="shape=image;verticalLabelPosition=bottom;labelBackgroundColor=default;verticalAlign=top;aspect=fixed;imageAspect=0;image=data:image/png,iVBORw0KGgoAAAANSUhEUgAAAwIAAAGUCAIAAAAJfgKYAAAgAElEQVR4Aey9eZReRZk/njPfM+fMP3NmznjGAZGRo4I4CO6DwADjqEDCIggoII6IyhJEVERlGGAAlQAJWVmFH5uKgiyiLIpJSNJJJ+kl6TW97510d7rffb/v+9aP7k/yUKl7b91P45vuDrnvyek8Vbdu1VNPPVX1uU8tzzwV/t6uBJ588smHHnro0X1/y5cv7+joeLtZvv330ul0oVB4++/PvTdLpVIqlZp7fIUczWkJJJPJOc1fyFwogVACc0wC87LWXy6Xk+f5fD6Xy2UyGYnxIzLEL5vNInNL2mw2m8/nLQnATG7vT/hxv4JHTInITLLyJDKZTC6XszRlKpXKZDKQmGcOiEQ+upD9Etu5yufzkUgkkUjkcrl8Pp/NZu3NFFgiXkdWfiwhXrISwkjvF28kgz4gMSqbTqcjkQhkqGcC2l5BaI68u1dBzP8lE7fC6DGMrupNqb9r0FJrI94ISjKT4z3hfC6bz2bymUxu8m86N/VvstHdP2Tlk8+eaEkjreBOj54IBXM/NWJcmp/LZnPZbB7/ctlCNjPJ/1Sk1LUCRCaTiUQiurYgUzQ0mHQXIxoFglF76SBGxY2gyMHdLogBM8KAJRk59soI4K6mESMDhV+hqKMotlE1CRrZegbBfDqdlh7nTiZtZEkTOLLp2YJDPcaTdmuLO5kufKm4QWDMQW7GIwlK/0IRnpLHI0YlmHFJT+Oulx5Dao5UUH8X7SINJ6OEkUavvhTnKQSJhM6IAO2E5G9JJl1S522elGcQ6anf+Pi4xGez2Xg8DrYk0iByuVwymWyb+rVbf0jT2dnplwoJmpub/RIgvmPq19raGpisvb29ra2NSdbe3t7R0dHp+qGsjo6O9vb2lpYWpJFIg2hvb29ubm5ra+vq6jIeyYtgZseOHcjTnUxi2tra7CWC2Y6ODuSGF1ERyUSIHTt2tLW1dXZ2epYrb6FEectNtLe3t7a22qWKpyjRnlK40tsIaqC/2Dr1AzN6SqEhXjCGCsojg2hra2ttbbWn0Z/qtJ4V4qGEfioNhlEiVNGomgQ7Ojqam5tbWlpQhMTvJdrbJ7W4o729c0r2He3tXe3tnVP/JjXT/dOl534KxnZM/SxShbZIc1tE0dHR0dTUhARa0R3geS+rne1tnW1tKND2t6WlBbrq6o77ROzYsUPvtpKjruRtbW1675A0YLWhoSEajRYKhd27dycSiWw2izHQ828qlYrFYlnrL5fLpaZ+yCrj88tms4lEwj6uZrPZZDIZj8ftOCCXyyUSiYmJicCpPZFIpFIpmb08WUun0/F4HI/8KprL5dLpdDKZ9MxBIrPZbCwWS6fTfvlkp76KU6nU+Pi4nXlMMRCXNI0UpBPJZBIl6pEGrdfReCRBlAiVsPM/Pj6eSqXs/GcymUDtQnNDqlJHN5HNZlOpVGCyTCYTjUYDFSyRSIyPj9tVIpPJxONxT80Be5kpK4leR1gERJggwExy6pfJZNxV02OgOUYORjCbzY6PjwfWMZVKeQp/nsWkoZRKJBJ6ArsJBClLpRKzOuM4Trlc1jP3pEkTN1NiqVRyHMezFD2SyUoplc/n9bc86VQqVakSy+Uyk1W5XGb4LxQKjPCN1veso+M4pVLJ85EeWUHmSVEkk8lisajz4EkzjJVKJSYrRvKkEqbTaYYxxymWg2WvmKzIbstoTrlcZjSnWFSlUvAIwHQ0sj+SmpNIJJjmZgbDYrHI9A5Sc5hkxWKRGTPJbsuUSKo0046lUolk3rMvG5HkFMPUsVgsMp0okUgwzU1qDjNEk+3IlOg4DiN8RlxkfySZJ0tkxhy/+XF6MCiTyZRKJXvzFItFRuj5fD5wrCHHU6UUU6LjOExXzOVy9goqpUqlUjabNXodgvq7yWQykLFyuRyYRilVLBYZ5knh53K5wO5aKpVisZhnHfXIQqHADBCMVEnmS6USI4pEIsH0H0b4pOZks9ny1E+Xj0E7jsOUmEwmmTrm83nHCYZ6TIlkHcl2jMfjSim9L4gcJLKQLzpOMIgD8/KW5GMQEL4RaQTtnUhGNkZzyuUyRgC0uB97FewdpOY4jsPMB8zwS46rhamfIWp3kGmgQqGAmdhPnsg2n89j+LILn6wj09Ecx2EGEwZAW+YOXWhTXTv4oz2XyzHDbyaT0TP3pPP5PDTHLvzAuQONYsyPkieegoFp9Q57WyulYrEYurCkNAhMo56D4bRhkNTHU5QoyRCBZ0pGR2cLBjEQQQZBqZ0uGdDYrCMJPIk5C4OKxSImM0+2JXJaqixveRIVh0EY4NAW0iX0osvlMjkIMskYiKBPZp4sgb1pwyCrVcWz5+tyUGrSYsQkCxwEMQKI5uid4q0Sp7idazBIWCVhECOuQqEQ+LFHog2ygYrFYqVgEDk07Q8Y9JaqeFECg7wevhXHI4m33vGhDhIYxFiDmFFOPhLs30IVbCCBQT4NuCfa7xN6v8AgZoAgYVA8HsdsYa8eUyL/vfuOh0H5QqFYmrQilLV/hoRJGFSa+hnvuoNM59E/1mVOkqz0FVRnarVLZx4wADF4JZFI5vOTR+eKe1deSuUyLJn6izmfxU0dVxQKTn7vKTw93uCtsHfJVWcVQtZTSokWNZs2DJICvAiydzDJKgmDJs2IrCnLrQ9GRRljg65gxut6kIRBzMce/5GgM+BJkzCogtYggUF24YcwSNrrQLcGveNhkN8IsF9gEDNAkDCI+bLhP6fIb3rL/ASNJw2bc3BRrFwuF4vFVDpdLE+iA+Of9Gcs/Mk3vR5v0NlsVv/e9dtGw8AgbE+JxWL6Ofm9JpM9xRacYiqTzRUmzcUG87K+AqQST6TyU7NsWalc3sk7RUmvv5ubgkpGpQTrAELlCnsWb5yiFPLWG5I4Eovn9zI2uTruFLO5SRyGBCWlUulswSnqc3+5XIayGTPNzMMgvwHirXpOUdOFQcbrk9LYCxKnVlNnGgYxUK+yMEjvHW5pIIbpHSQMIvcGMR/iAoOE7b2dUVR+8kk+n2cWjBicKotiUqInQVqDCoVC4EjOzx1MHQ90GEQuikkX9mwdKImBATxf4T8SPF83SseimBFpBP1Guf0Cg5ixhoFBpVKJgUHu7mpUHkHSGpTNZgM7z4ELgxzHqd+2bWh4WBcR8IEeAzqT2bP/ae/MZSbJZnNvrH1jeOit3KqrN7e3e1ybVJjCB+b7+4bRfxoaGvr6+uSJdICCU6rf3rhp89aauvr1VRuHdo5MWnr2GZBVIpXZPRHFu6lMTjBLc+uOxubWt/IUSqm9CGdPlNTUKZYamlo2bKzOT0Gg8Ui0ektNa1u79upbZC5fqNu2vXpLTdWm6uFdo0qp/sHhTZu3bqmpa+vonDTYJlJbauq21tZt3LQ5Et2z46pUKm3cuLG/v/+tjPZS04FB1AaCvRn7/k+uSDITdrFYtOwqe6tB6V1lvkxrD5huK3WU6VwILScVj8cD91uI2d8zB8mNH+jlFT+ChEEVtAa5IYJnZSsLg5iZmJk7lFLMiiQ/dzAwKB6PB6Je0Ry/hkY8WcdcLscwNpN7g+x7Z/VaM1gcSiiKJ6OHng9ocm+QpykkAAbhUChOAObzeZyUsx8axEk2+90bOEoKQ4Kc45fLBnDoH6VMTEwggd9NAOiEsLv4pZGc0+m0/TQjGEOefrmhaul02s5YsViMRqPxeLxQKPhlBcZwyJCRaiDzduHn85O3QG3YUNXXP1hSqrd/oKGppbd/IJsv5J1ST1//9u2NPT19uVyh6JRGR3fX129vbW2LRuOlksrnnd7e/paWHWNj445TyucKjlOKRmNr166rq9uGva67do6sXr22eQpwjI9Hmpsnj1fHY4miUxocGOrr7e/p6ctm8z09fY2NTb29/YYAcdPS9u3bu7u7MTxBblNzSXFrbV1t/bZUJpvNOwNDO//0+l92jowVy2p090Rj847+wWGnpOq2NazbsHH3RDSTKzS1tNZvbwBaam7dUbetoa2jq7G5NZXJlZWKxpONza2Nza3jE9FSWQ0Pj/T29nd0dOKWFMcp9vT21W1rXLdhUyqTy+SchqbWzVtqt21vLJXKuVxeb9BiqdTR2VVTty2bd/oHh7fU1kViiTVvrJ9iI7++auOu0bHG5lbgoUmutm0vlycPSbW0tK5evaa7uwef1Pm9P2hOKpUqFAp748z/MfxJc+Oxp3pApZGVzrZO406gVCpl77aO42AE0N81aGQ1Pj5uzwoHrVEL9AKzhnvDkIO9E0luBjN6ULqtp5TQ+7DhNBKJ4DJSS0qcgdfr6FkLnPsFG3sr9Nb/eKVQKARKFTkEHsYuFArpdJoRPrLS+fccf0QJdUkKjWksnU5DcyTeTeTzeftpeVy6k0wmx8fHC4UCzs+/Jal9KZyLRin7PnkrBKlmMhl8/bpZEuEHzh24NAjJREruDHHVAgYQSWYQ0Cgp0XgqQcdx9Dq6y0JMoVDAaXNjINXTQ7CBE3c+n08mk9FoFPYSP83H3QHZbNYynqCr4kPurfbwojB8Ib3U3SDQtXVFdXc0DCO4J8IiCmSSTCbdzAfAIMMYA5O4Ds0MGhskAbiMR3oQ474AZzwy8B3WCwwGjDQS9IR48hREsVgEcNY5MWgwZoGcyEp2WtlTYqwx2DCCOMJnsGEEsYOVYV6MfkYOCAKnV1VtHBnd3dM3sHlr7e6JaP32hpGx8ZGx8eotNeMTsc1banomAUpx06Yt7R1dHR3dm6q3KKU6O3saGpt7+wbeeGNDMrnn3EEylamt3bZ1a20sPnl1b1Nz66bqLR2d3YVCqaqqurdvoL2jq2pjdcEp1dTWb95Ss2tkrLdvoKa2fvd4ZNOmzX19k4YQkSH2+be0tAwODurxSql0JrPmjXXp7OQlBbAANbXsaGrZEYklqzfXDA2PbNpc093bv72xeWP11mgs2dDUsqWmtm9gcN2GjbFEqqev/431VQODO2vrG2rrG4pltbF6a0/vQN/A8OattcWSqq3dVr25ZmBwuFxWUxhFFUsqly9VbdySL5TzTrlQVP2DO+u3NbqbrzxpUtpjlhraOdKyo31sPLJp86TQlFKNzS2tbe1itGpta98xZVLaNTK2vaGpqXlHZ2e3kadSirQGOVM/ed2v0afVOyB5d1YoZVqLYu5MJIb8WEd/RNGiJ1Jfncjn8/YEGJrsnQgZyqKYcOsmSqUSbN7ySGdGaKOBJB6EMEwyz4yrYg0SxtwEpCqrse4EEsNoDrk3CHWUnN0EVIKxBjFmHuQWaNXTFcxoHT1ozB36I50Wa5C7dojBCCyrJZZklaojdAxGXL/ikAZmDr/uL/yLmUq0V5cAaOkd7kd6jNhK7YwZzOs56DS2EesxbtqPsXmWyrjvDcpkMvb0GGuMdUE3N1A+3OugZ6jT0BgGBvnVzSgXGNCIdAeZgV4WxUQ53PlgMhON90wAnWPERZrEi8WiT257Fr5KpVJV1aaRkd19/UPrNmzaPRFLJDPFssrli0PDIyNjE/XbGrc3tiildo7s7ujs6e0bXLdhUyyRWrd+YzoziUKi8WQmu8drRzKdq63b3t7R3dM7kHfKW2vq2zt72ju6pwDHdlR5Q1X1yNj41tptMMykMrnB4ZGx3ZGtNXWNjc26WNwwSMQbi8fXV20E1nBKk7ttunr6tjc2b2tobp+CEelsPpt32jt7Wts6C0X1xvqq2NSVV+2dPZOGmK6ebQ1NSqlsrrhuw6aBoZE1b1SNjE2MjcfeWLdx18j4tu3N3T0DYEbWxdKZwvqqzblCuVieLLG3b8gNg3T+x8YjW2pq09n8yNju6i1b8aippbWpZc963NDOka219dn8pO1sa02dU1JtHd3dPZNYcKpOb2VGwiBZjxBBvZWFRgUqIXB24JwHe77RSbVy9pDk5nph3p2DHqMPgnq8QTOLYuSyeCKRYETBLDSQJ4zIBvLp2vtIolAoMFv6crmcfIXu8/6+ARH+vtH7hEgYxMwdhUKBGfB5iBC4YETOHfJ5uU/NXYFYLBYoVXJRjG8gBuoxwucPzLsnbkMSsvpsxBtBclGMYZ4/KebZ1yoPgwQiGHU2ggyoJA/M8+u7gaMbViLn4N4gHgZ5NvPUPt3JrTLF4iQM6uuf3M0zuju6raFlQ9Xm3ROxjq6+zVvqxsZj2xtbWts6E6nc+qrNbR09A0MjGzZuTqZyVRu3ZPN7NtuUJqftyV8ynd+8tS6eyGxraN7R1tXdOzgwNLKjraurp7+haQdafPPW+uGdY7V1DaNjEaVUc2t7XX3j+ES8tq6hpaVNt/q4YZDoTCabXbtufSb31pWVDU0tLTvaG5pae/r2wBelVMuOjta2zmy+WLVpc2LKH1l370BTy46Orp7m1sltPdl8acPGLd29g+urNnf1DHR09nZ29SXT+Zq6ht4pmezZzzxVcCZXXF+1WbYf9Q14WIOm+J9MvXNkdMPG6lRm0sXKrtGxjdWbwXxjc8uOqc1SbR1d9dsbIbfG5tb1U62waXPt1tr6ZDotNQXBwyBmEPRRiX3KJCEC+ZHATGY8DNKVZB+mtQCzA5eczMQapGVvkuRkRkIEoA2zjH3D5Agg1qB93zZD5AxUQRjENBC5RbqCMIicO8QaZMpx37BYg/aN3ifEz49k12aSMZBdYNA+7LoCwGf27y4SBok1yFXIPhGM5pAwyI+x2YdBqLHnJyYJg9xb+faR4t5AZQd65ssMa8B7y/f+n++HzGTm18wCg8rl8saN1f39w339w9HYpOPSxuYd2xtbNlXXABtt3lLX0Nja3TOwfkN1vlDeOTL+6p/+ks2Xausb+gd2lpWq3ly7c9duVCaZyq3fUF1SqnVH5+t/eSNfKPf0DjY07YjGUm+s2+gUVSqTX7N2QzyZ2bylbtfohFJqzdoNu0bHlVJba+q3b99njcmAQYa8tjc0Vm2sxqGtnr7+P/9ldTqb6xsYqq2rV0q1d3a2dXS2dXRt296UL5TWb9jY3dtbniqlf2Corb1zfdUmpdTQ8Mgb6zdGYsm166py+cmzcr19Q8WS2rhpa1f3W/uyJzUqX9w9EVuzdkMsnk6l8+lMoa29e/OW2lxu8gLuRCIRje7Zi62UGts9/vpf1uzcNTp5OixfyGTza95YF4snc4Xi2nXr48lUd2/f+qqNuYKTyzuxRHL3RGRweNfQ8OimzTVba+oz2UnwJAtn/KIYP5kZwnQHK9s7Kg6D3AwbMcxYOZdhkFEdd5CEQRW8N0jfnermR2JIqMc00MzDIHLuIG/KZk6KkQCa79ohDIIqkifFPKfR6e0NYsxTPNoNNLrMZRjkKU0ZGkBUEAbxg6A/Y5PzbLFY2ratYdfI2OjoeHX11q1b6+rqG5Kp7NjYxOYtNdu2N/b2DtRva9i5c3R7Q3P15q09Pf2NjS3d3X3xRLq2bntNbf32hiaZsDPZfP22xlJZRaKJpuZJ88/Q8K6Ozsk9vx2dPTU1k/uBenonrTUNDc1jY5MwaHBwZ3X11sbGlp6evtq6eh1MGDDIQMZlpRoam9at31C9ecv6DVW7xydzK5VVU3Pz1pqamtq6dCYTicbWrdswNLxrfCJSvXnz1prapqn92oODw41NzTvaOjZu3LxrZEwp1d3dt3lLbf22xuYptptb2oaHJ4+eyW9HW8eWrbU1NfW1tdtaWtrq6xtqarfV1NTV1NTmcrnu7u6GhgZJ3NPTU715S139ttrauobGydW30bGxjZuqN26q7uqe3PrT3NJaV1/f1Ny8ecvWxqa3lgK7uvt2TZ0sK8lS3FSms2IN8tccqejkde2B3bbii2IzbA1KJpOBUws5mZEQgZE8OQLw1qDA5RsSIpB1PNBhUOD6GvaQBEqVnx8DlRANxCQjrUHkvUGBdfT/Gn9rJOE3bzGa89dag+yDmvFVV0EYxFzqMJdhELO+Nsdg0KQKTl12OHnWaYouJ5Op4t67cHB8SVZ5lFKRyB6DhzgNK8oS0V59LhZL+kU4e6OnyiqW5cV8fp9z3eJMSgjwVi6Xm5ub3VukJdtcLp9IJg1TnNxbONm19l57n0gk0+l9rpDXy0L1CwXjFp+95QjQm4qYvD5x3+uFhoaGenom0Z4+QwMiCJ4pOI7clIiUUz3fw6PLvqVNpg1hkEgMEAEQWSLdBLM3iLQGhTAI4iUN1SEMEm1krEFzFgbhbJ3UxY9gNi0deDDIr7aI338wiLkCay7DIOYDbg7CIDQrKXzL7S+iNrIJVDfeGCvHus8KI5nkAxjkOM6OHTt27typx4PWX2QwKDwJu/PRgQs/0OOTS3jA2X4jcz9LibxlHFYyXteDswKDGKn61VFnfj9Zg3Qx6sWBZj4ZQxgkcpOtmRLjSTCjXAiDRHQHNAySk2JSHU/inQmD7INLCIM8VYE8X3BAwyDy7krPI8E6DALNHAnGLdKBfqHltgLPppFIBknoMEjnWTIBIQO9vbMEGiRwhTcztTDMy3FLg1t3kCmxgnuDQhgkTSCaIzGeBNlAZDJj0PYsMYRBIhZGqhia5BU/IoRBkExoDbJ5X9e1hzRIMF2aXMOu4EB/kMAg5uStWIOkcQUr6MCCOQujH8fAu3oOkv/+gEHCs5SiG408oZ6eEnRgHUMYpAttWifF9Bc96dAaBLGEe4NEPSqIQUMYJFIlrUHGvgV5XSfm0EkxnS03beyZquDeoBAGQdq6QcItf4khN0iSMJwRfqlUehswSAcuOk3OUvqXmSAhEQKIisMgnU+9LMFGPAyy77QLYZAu3hAGiTR0tZdIgyBHgBAGidxCGCSiILdI684c5V2DIGEQo9JzCAbttv4mJibP48iPgXjkvF4oTB48lpz9CAOH+SVjtjXoxga/fLDQEMiYvtnFkhXumLckwCOSeSYZaaZihE9uzCIhAnPOgsQ3uHc7UKrwAxCYjJFqsVhkjmMwWZF1JJknL1BhGCP3zZCLm4wRl5ylGOZJezAv/MCzMJN3UGX3eNyz6JjbVuqZmKkj2UCka9UKag45AjDzIry1eIpIj2SO1+BG0Ep1W3zA6Dx40slk0v4hhLcYUfANVEFdTbsuMHNXk/yErmAdmayUmnQFGDhx+40A8zAYGX/RewuFAq7FdBynOPXD6Ay99/wLqJFOp+FpHG+5U+KyY7Q00nj+dRwnGo2KKuPyBmFG7wzpdNpdih4DfJDJZMChyAuAVFIWi0W4ofHkRyLhzAV9Q941CFhT0ul0uVw2HkkQ8yu4kkg3ARtPJpMRCbjTQCzw6IRk4NadEnV0C19PCSnBxYzU2k1AqlgM0p8iK50B+I/T07hp+HwRzZk61Lbnj54YLockmc620OVyOR6P2yUmwkdW0HlEio4hQ/jogUzkkdROeBMllBidQFaoo5QiDAtRLBbL5XIsFoPlFfF6PkLjyAn2LCNDeWQQUDAjUg9idLCIS/LPZDKiOcKzTiCrSCQiDaQXJLTBvMS7CfRHiF0vSKeLxSK8gOmRBg0Ygf1b7lIkBpoTmAxen+QtPwK+mSzNjXoFjjnoaOl02p4VhB+LxTA0+XEF4WM+80uDgsihCb3bELgeRAMZfccoGlyBeXtK+LQKHAzhmMwuMcdxmN6BMceeValUikaj2HRlVE0Pwu+bPSvMj8hKF6NBYySHecZ4JEEUnUql7CItlUqZTAZIQufWTeN0iIV/wQCWNI7jyAjgLsKIwbhqRBrBUqkUiURkaDKeShC+7dxDU8C9QfF4XHyi4UCd27GZnsBxnGw2C7SkQytJAwKqgCFVT6bTmHui0WipVEqn06Ojo/pToNRkMnn//ff39PTAUYZRih5EApRYLpdHR0d/+ctf4mC2/i7qiKur9OJ0GnuMYOlBvF6QVNBxnFgsBv1zJ5AYiEKCngRQF5j3TID1BXQelCjdwJ0eJWIo0VGgIYdsNjsxMaFX3JOGezzBzXomKBox2PPrmQMiIVW7SiAlnO1JVu4KovngIBPZeqYBY9BVzwTCPxxkoo5+KaE5cGRoSSPM+6XB2BeNRjHnueUpL7q1QmQiBHh290dJAAILLlBpyV8ISYyzJKIznrxhwhgfH7dIHuoKP8e65khBQgBtwHWiJcPAoQklunVVChLCcZyJiYlArZB2tI+H8JrsKSiIF+WSau/XQHpLwbWqRVYifHQTedeTALj0fIR8MK/YkyGlPmCKtHUCUGliYiKQebgvtUhV6ihOQD2rgBwCha9Pap75ILJQKIyPjwMlWJLpro79kslgYq+jOKy1J5NJTZe2QReLxVQqFYlEAoWPbmsvUQYKvwqigbLZbKDwhXlLR0Nu8MJu1MsIotu6x5wAGGSsSTFLG+SahW7LcVveEFMul8HAww8//MEPfrC1dY9vJqXU888/D2auvPLKzs5OIwcx9ujxxWJRLJbj4+P/8A//UF8/eQGx8WMM1OTCH7zQG/m7g4xVEwDW/a4RA8uTEekOMksb+Cx2v2vEAGgbke4gqTkVFD48Cbs5MWIYxoApjRfdQWb/E+nKER9A7iKMGHzhGZHuIFNHcs2FMVDzZwylP7p5lhimRHJRjF/LFgu0sGEQ/CjH9G5S7QO5wo0MxqBtcI5g4HlMJGOEj5nGsxQ9soLMM+syuJ2vUsKH5UmvjiedSCQCVZrft8AwTw5NjPDJFcnAgyCQDKM5MPV7SlKPZIYvt/9TPQeh/UaA6cEgZqAnm5nZaSVZnX766Z/4xCduuOEG1Ke+vv6Tn/zks88+m8vlhoeHcb1NKpV6+eWX//znP2NMyWQy/f39o6Ojf/zjH7ds2ePuWym1ffv21atXd3Z2HnHEETU1NZPey9PpP0/98GLgsWfccMM0M3NgHt1V2smPgKXR76nE85NZYB+DNUty9iPIbW5M5/H3C7tP4aIV+8S6AqSDTDAm27HdhHuTgTsNYtA7/J6CQZJ5/cC8JUMRvqRxiWEygtFVcnM90zvkwLxw5SYqO0uRdfTbGSBCw+cTTEE4KujmHDGSlV8CZIXvVMnfj2BgkHRte4myRdqeDHgKFlUAACAASURBVMsHgXVk9j/xdfT8OtVlIs407MzncjlmXif9UZDCx2RsZ0wOzFuSkR2NZF5GAF2MbpqpI+wudpVARwucO0gzAfkVh492i0ihV/F4nMGgnio9azCIubgCtXrxxRdPPvnkurq6Y489Flu277jjjn/8x3+89NJLt27desIJJ2zfvn3Xrl0nn3zyueeeu2DBgs9+9rNKqb6+vlNPPfXaa6+95JJL/uVf/uXRRx9VSi1fvvzoo4++5pprFi5ceMQRR/T09DiOc/LJJ5933nnz58//3Oc+hz1ijDQZxSJhEDNLkedEyD7GXIJHwiCyu1YWBnmqstH5SQeZpPCZYVcQlcGJHiQbSIdB+usGzXQiEiLILGsUYQQZzREYZLxrBCs4gsvJBvtES9aRsSOSAz1pKWEGE5J5gUGGtI0gozmoo12kgLPM9zrzCS0wyODWCJJjTgUVDMsoBhvuoMAg9yOJwZ4YCfoRZB3JZMwox1+fGDgYkh97ZAMxcwfpTMOPscrDIHKgZ/ohVOSss8568MEH33TGuWDBgpUrV0760Wxv//CHP4zj3O973/v6+/t/8IMfXHzxxUh/3nnn3XrrrRMTE+9+97vXrVunlFq8ePFJJ52klDriiCNeffXVSQefa9bMmzdvdHT0hhtuuPDCC+XFH/zgB356qccbtjU3UEXiVCoF/XMnQAygNzOpCwyyj0qk8JnJjIRBFVRlknk/VdYbCP4oAkdncjITy7Nd+Ex3Feb9VAJFkACa7EQMY+Qsy2RFLoqRmsNABIFBhg4YQbKO2F1nvGsESc0RGGRvbqaOJPMVhEEA0OVy2e7JROpoiMgIMpetTAsG6SI1ykJQFExPadDkIvWchUGMYQz+7+xjF+RAHpjHiqohSQnaV0v0ZGJHtPPGjDkCgyR/N4ElY09E+DZhkJ1vT6V8e5E1NTXvfve7H3vssebm5u9+97uw9HR0dBx55JGRSEQp9aEPfai/v//yyy8//fTTr7766oULF37mM5+59NJLd+7c+fGPfxyeO3/zm9+ccsopY2NjH/7wh0dHR5VSExMT73nPe9rb2y+66KLTTz/9yiuvvOaaa0466aQ3IdTb4/Md+VYg6p/LtZ4xFd0fQgi0R+6PQiuY58EgfObrhYQIcxwG2RWDrCMzmU0LBtm5gpmKGcEY4VcWBpG3+DDMMzCItAfz1qDARTH52LO3keBUezJGcwQG2bPyY+xtwiCYMV577bVrrrlm8eLFq1atWr58+YoVK1atWrVs2bJ777135cqVK1asWDn1W+76rVix4t577122bJmeDInl76JFizZs2HDbbbcdeeSRl19++VlnnXXZZZd94AMf2LFjx9DQ0JFHHglr0FFHHdXT03PppZdee+21VVVVL730UnV19fDwcFtb2wknnACo9Pjjj3/hC1/YvXv3hz/84bGxSQfjsBW1tbWdc845V1999RtvvPHSSy/V1tbu2LFj+fLlwv8K1w/VRB3vu+++VatWoQquhJMRixcvtmSFV1auXIk0UnE3AakuW7ZsxYoVYMCzuJUrVy6b+oEr5OOZcunSpcuXL/cT/qpVq1DQPffcg6bzzATtu3TqJ0JwNfVkxLJly5YsWeKXCeLB/JIlS5CVZz6IXLp06eLFi1euXImgX7ZLlixZunSpMOaX7N577/V7JIwtXbqUEf7ixYtFqp55opsEqsSqVavuueeepUuXoiE8s0Jfg2yRAIrhVh70NXe8HiOMSdMbhUripUuXSr/21Ea0y1133YWnfu24YsUKXQmN4vQgVALZ6vEGXSnhr1y58q677vJro+XLl990000PPvjg8PAwBlw7YCUhAjMTz5Y1yD6v8ItizGR2MMCgcrkcwiAo1QEPg/74xz9efPHFS5cuffbZZ9va2gYGBnqnfn19fd3d3R0dHf39/X17f3ik/+3r6+vo6Oju7t6bxOP/wcHB3t7eo4466oUXXpCu+M1vfvMHP/jBzp07DzvssOHh4WKx+P73v//NLT433XTTOeecg2SPPPJIXV1df3//cccdNzIyopR67LHHvvCFLyilPvjBD/76179WSv3ud7+bN2/e2NjYT3/60/nz5+PFxx9/fN26dXAervMvzPXv/fX29up11KsmdH9/f2tra3t7e39/v0QaRF9fH7KSIjyJ/v7+rq4ue4l9fX39/f288Ht6ejzLksienp6mpiZPOUgaMNbV1WVPhuaWtzyJ/v7+np4eiMszASKRTBeFZ+KBgYGWlpaurq6BgQHPBBBXX19fZ2ennXlINbCO/f39HR0dvb29fsWhxJ6eHnuJ/f39g4ODra2tXV1dlqx6e3v7+/s7Ozu7u7vt/JPCd2uOZ+mdnZ0o2vMp6tjV1dXU1GSRPJJ1dHQEStVg3ug+EpRkEuMmRHPQ6dwJ0HYDAwPNzc1u4aPr9/X1VVdXP/nkkwsXLvzpT3+KccOChEgY5GmoR+byd7ZgUHnqJ2y4Cb6O5aD7cqcLg+wZ8rOsu1JGjOM4gSvsOKzEWEoYOyK/6Yc0Ghk1cgd5axBKtAjfz+hiFMo3kKUsyTMWi1l6IpL5MTZta5BS6uGHH7766qstxzKZhglUF6XUc889d+KJJ+pKs3bt2pNPPnnXrl1f/OIXTznllDfeeOO0005ramqKRqMXXnjheeedd8kll5x22mkjU78TTzxxYGBAKfXkk08uWLBAKfXoo48ee+yxl1566XXXXffpT3+6vb1dKSUvnnHGGd3d3SJWO8Hwj1vR7PngIFJgGqxrMskY4TNpyCOIuO4vkDGyRGasIUWBe3cqwhh5hyxZR1JzArs0KQdSwSpYx3K5zGwyqKzmVFD4uPI0UHOefvrpSy65pLe3VynlN0xXECKEMEhaBBCBwWeMVjAYtLIwiCmxgjCoXC6TJTLdFstwduH7oQ1pQRCzAoN0OCH8TA8GKaVeeOGFq666Cu97jtSkCJjdnSMjI/39/ShLBpqhoaFisVgoFFpbW2Ox2O7du+UK8JaWloaGBqTM5XIjIyOwNicSiZGREXSJnTt3bt++PZvNxuNx/cXGxkZUh5k+jS3SIk2D4De6Gi+6g+QgKOd43TnoMczFG6VSCTcR6C+6aV6V3e8aMaTm8G4OGVDFrEeQgyBj9uc1h2Fejj0bkjSCTB1JBWNunJJdutJnhdAZIzWHYZ7c6MprTuD0iRpVVVVddtlleqUMmoRBTB3JBioWi4wnE2b4lS3SRqWMIFnHmT8pJjtwDYaNICN8cgRgTorxoCRQCdFAZDKj1u7gdK1B7hwkhhzJyRGAGVdnaG8Quv3ExIQcyPLEQNgljhEcgNHzL9oPn8WeCQRsAsZKGhG0QRhoV+dNaGfqZ7xofJqj/VBZKdRNyA037kcSg8NKwJ4S6UmQ/ZBJRo6VzKVNxWIRG8wNiRnBCqqySNUowgiSUI+5N4icPslBkBnoSRjEXF2DbRkYBD31SiIDL95AVkYnMsSOIDMkiVsrnDDyO2okGE741AkpXUYAxOhphMZ4Iq8IIQnQo0nNkQPz+usGLQM9tlX5GYRIiMBIHt9+UjU/QoRvMKwH0dzG0OfOkJywcaGw+3UjBpqjs2HQ4AqLDMYjPajPHUYRRpAfmowX3UFS+AKDdIYNmjwPS1qDyGSM8AUGGQzrQVL40jvcktRjZARA99ELEpoconmfYhWwBi1ZsgQX8OiVMWjyImPZ4o4Ryp0JYpgvG1JS5E2gjNtR8u6HQGsQ6s7A+SLn3ZOsIwmDGGtQcepnNJ87KMjY/UhiyI91so8JkpD8PQnG6ELWkYEIZB3hncCTYT2SZEygkv6uQfNQT74rjBwkSBok4FdI3vIjGPRPjgDk1c/kgXkw5jjOt7/9bT8cQ14Q5/e6LhOya4spTn/XTTOX+PuBSyM3EiIwdsRCocAM+ExHw1pwINQjNYcUfjweDyyRHL50iGAIXA96ftvrCUAznSifz1s2ukiejPBJAE32DoZ5bOHwxBLCOcCWZ27z7G/G43E4qMPLt912W39/P9yOeHoVgUchuI+BUzDPvwCe8E6C/N3JslO/SCSSz+fdTyUGXktwQ49Eugk4YMLUaHF0AsbgvsSdicRks9lkMgkOJdJNRKNRfFm6HyEGdQ9kXhz3BIoik8lA+H5SRdVSqRT88lgYg3OiQqHglwZZwd+WnbFcLgdEaOcK3ujgfBSydf/N5XJ6Hd0JEJPP5yORCC4h9EsDZsCYhX9e+Mlk0i5VZAWuLFItFArCvCUZ/OPAYYs9GRTMLnxSqtAcu0jT6fTu3bs9xwfpetgMCwdMRm5SFzQKmMeL8FSqp4cSips8vCutaaSUOkoRbgLCDxzBoKuAL7fccstLL70En/NGiel02iJ2lC5ZuZmRGBlX7f0RFwFD+PKum8AoB39b7qd6jMhBGs5NZDKZQCXM5/OJRMIuCkzD4+Pj9joK8+DTzQ9iMODbS4Q6BQ6/yApfJrpwdBoLcNihoce7ab253cwjPeqI3uHOQY9BfxSF1x8JDeFL0JMAAIUTSc8EiEQbSQI3/5AD5kf9qecrqVQKUrXwjxKRlWRiEHg6Pj5un7gxs4hK65kEwCBY+fD9t3PnTqyIlfx/MAXB7uSfqgS0iFuY/JJhz2Y0GhX7GPxq6enlEe4D1B8ZND4EAebc+cB6j1fgcBiWfCMTBMEYQLFnAkQCn+JspF8ylGJ3wgCcinEQa45SazcBL4AWGyNyy2az9iuw0I64bsBdCmKgFXB7aS8RZ0RlicQvQ3h79nsq8bAqy1KLxOsElooxS+nxBg2rnhFpBPG9iKzsVchms/BbZ+SgB9FAFu2CVGOxmCiYX2J8rMN46adgiIcHDL98UCLmHks7ou6wI+o1Mmh8hcNPuHQrWK10BoR5qLSFfzBvSYBSApNBpUWqfhlCc7B5zi8NRgC5D/A3v/kNzp+6RSHbUzyzEoEEMg+pihJ65ibtiJtE/NJIO8JGaEkGu4Uw6ZlSeoclGcacwCEaWcEa5FkWIpm5g6mjMMwIXxb+LIxBc5hJDQO+JSvUMbBrA3nDzOaXmwhf6uuZEv0R1iDPBIgEYzjcYElWLBbRO9DxMeGClr+Yke3i0rt2IP/RaNTOGEYAHIAwmA/eIg05KqX6+/tx7Fy3MrlpSModb8QwVlnSuydp2Kyg2Z/c4RG4KAaZeJrpDHGRm37I3Q/MFuliscgsilV2AR4DvVF3I0jWkXGmUVnNYczFlWWetJyTCsasDzJLG5V1psGoBL98w4giHo8HrlPro9yaNWv0Sz10da2g2Z9ce5K9QTobbprUHEYlyHGVkbzjOMy6DDN3YKcRoKG7+noMyRgjCsa1Kjl3kA1E7g1i6ig+xXThuGlG+NI78GHgzgQxZO8gRwDSp5hnbsEwSOowMDAwf/58QUUSbxDkQM8cVSBhkAjd4MQIkttr8HFgvGsEyfVdEgZ5NoxRIhYijUh3kNx/xzjTmJUt0kx3JRWM2SJNag450AMG2TsI2UDJZDJwJgaGC9yLQEIEUsEYzSkUCgyAJkdw9A67VFFH+5iL+wUYBUskEoHC1yez1atXP//88+7OSO5EJhuI/BAi9wYxwy/5kUBuA2cOEJD3BjEzcWWFT44AskXaUxkQSc4dfO9gdNVzX7DBJFbijEh3kPmEJuvIf0IHdn/ypJjf8BuwKKZjc8Agt1yMGHKWYvohCYP4cSRQY2BmDPyGIJs5hEGiG4ylxE9HJRMQpIId6DCI+fpkOhHZOyoIg0hvdPxAj6U6Qw2MIIlB9xMMeu655wx+ECS/6ZkPoQMdBskaoqegRFz6jOOXMoRBIhk5aSQxbgJ7EgKRxEENg9xS02N0pQxhkEgmhEEiigoi+pk/MD+XrUEhDIKOHRDWoBAGyYDgR4QwCJIh5w7+IyHw2z6EQaKTpVLJ05PJtBfFJEc/gvxYZz5kQ2uQCJn8WCcNKszSxqwsijHGW1LBQmuQKA9jbCAVjNGc0Bokkg+tQSKKEAZBFCEMEpWo4Cc0uSjmd9NNCIOkUfYQ4d4gCCKEQaIZ5M4Acl2GASVyg5/w4Ekw3xLhopiIjlxXeht7g0JrkAjZjwhhECQTwiDRkBAGKWYED61BojHkx3poDRKJhdYgEQUDvEgFC61BkKqxRTqEQaJsfkQIgyCZEAaJhoQwKIRBogyqgrPUgQ6DGFGEi2KiOsy3xMxbgw7Ck2IhDBKd9CPCk2KQTGVhELOFqFwuM8I/GLZIh4tian8cmLdvvz8YToox/RAzsV1WOM88Z2EQc8IoXBTDQO84Dm7w85sREc9rDnlSLDDZXF4UY3oHo4SkJxMSQDMlkgfmmbOi4YF56TJk7+ANKpKzH0HeG8QcmCePnvDMB/YOcm+Qn5lgGnuDBgcHFyxY4CdEiSc/1plDj+SiGCn0CsIg3SQuFXcTcJvgjjdimLmfXLPwa2ajRGYQrPj1iYGqTM5SpIIx1yeSmsPvDQq8aoGsI7M9pbL3BpGMVfD6RHKgZ6ZPEmeTnYi5/UW3sVnuDSJdPjEjANlAM39vEN87jFHIHSR9ipEbz5lklR0BGJ9iZInMEI27kQJPium66pa5xJA+xRjGSItXZWHQfrw+EddiYnDv7+9fsGCBcQu1O4ixBvfNy83ZBgEx2a++Rs7xeBy3aBs5SFDuTXdzoseIMw3Pi7313OAuwJIMbvYwculF6DSm/EQiYXemMS3mcbe6sOomwBgmKvdTiYFhENfugWe4gNB9jMA2Iy4R9KrpNKQKRCv5uwk0t0WkYAA31tsvTceF6PhI1TnRaQgf/igCfTVgltVfN2ipY6BKy+Z6IwcRr1i8AuuYSCSgYIZ/Bj0IGMTcRk/WUZK5WxBVwHgKl6hGHSWIBkK39cwHkcCyYN6SDHcoSK2lFDcB5t2C1YXvOI7U0Z0DYvDpBQWTct0Evjegaa+//jquTzSSYZbCxQeW4jAvCp+eKUXt3RXU00Ml0G0tUtWFr7/upqHSfllh+IJHJztjWJfxywfxkAPsiJaUGL6ghPZkcqeOu16IQXthu5tfGsx9MqnZk8ViMftgaMwdfvyjHQOdaehDk4UxSMw+/KKB4MnEjyuoKBwxWXKDJkBzLFxJ7wjUnMAGgh7GYjEQlkL92jHAGiSuVZVSXV1dZ5xxhu6QzJOG/0K4wNQdDeq0+NqEJyPdB5vQcJMmzt7013UaPq2w/OTJDyLz+bwwpr9u0LlcTjztGY8kKN49xQWg8KwTjuNEIhHYJOyMeTp7018B855+KIUrOBHMTP0CvZPCLyx0Av4F9eIg0mw2Oz4+bnF6hwaCY0W3z0uDMThf1CMNGlJlfDSiHTGl6QLXacdxJiYmAp2YYjk8sI7pdJoRPpRQtEL8/KFpYPyA00FD2kZQ/MKigfR66bTjOPDcGcg/FMySTHoH0hhNgyC0ItApL9pRNMczKwhE3I76pUE8GhEQ2RCUBMX/4l8p/Gw2m8/nJyYmAn0wSzsqpV599dVnnnkGU5feQHD4yrjkRH+U6rgJ9OjA3iGuVQNHAAhfF5e70FwuBzju10DQcDhX9nxdItFAfvkgHmngWhUa4pkecwd8GHsmQCRG8kwmY6kjGitw7hDXqpYehN4hrlX9+BdnrpaOBpe3cDsqAvQk4KrZ7s4ZbYQ6WsQF96uYbf2YRzy+7S0DPqrGSFXGVc/aIVKG6EDhk65VPTtRAAzSr0/kF8WY21/IRTHgUzHc+RHMGjaQuF8OEo/vRQn6EUyJkLhfDhLPZEWaxMkFo0DDJiwfjPB5w6bU14/w279mpCdXJDGTGe+6g4zwebM/PkfcpUgM2Y6kMw3G7I/pWRjwI0jGmEUx8t4gUnOYElFHfNz7VRCmOOZSSnJFUkY5u08xZs2CUcLQp5i0LExBEvQjeAXzy0HiSeGTPsWYNVC+a1dKwci9QeTEXcE6Mllhb1DgvgsYvaRZhZgeDDrzzDPlTT+CnMwCZ2JseGT2WpJrn5XdGyRrFn5yUErBsGRJgEdMM8MwEJgVuTdI9xPuzhPTCekgs4I7PKZ7i7Rd6WECcddOjyHX6Unhw3jrNxmLVJnmDu8NkmaS1S57c9uT4V0S6jEwCDfzgsnVq1f7uVaV7cMM81JlT4JkPtwiLdKToSlQ+PKKH0F+CDG7ysh9M8K8H0uIl4W/wGT2BFiiSqVSgckO6C3SfuAkhEFmu8sOD/OBFiZVeS7DINnM6zdtkzCI/ORibGzThUFag3iQzP50HgYxVgS/OuoSJjWHtAYx3xLkR8K0oJ6HuLUo0hrED/Ra3r6kH7jUp0ASSTCTWcVhkG/F9j4gmZ/5LdIC9fZy6v2/X+/QU1f2pJgomK4DenGg/TRHT3lAwyBylAsPzOstvg9tLIqF1iBIh5zMDggY5HfMeFZgEDMkkQt/cwoGSaciNYcxSGAlaA56mJ8tGOQ52+mRJJJ4GzDI4mEeAFpnQ5RBCEbtSeZDGCRSDWGQiIJRsIMEBnmKIrQGiarsIRhrkOBr++g2Z2FQoGETe4OYFcnKWoOYTRICg+zCny0YZOdKmDfVbt8wc9r/IIFBjErA4qVb3fYV554QKfx4PB6430LfZLB69WrL9YkhDIL0mT1eoTVI9FYwnMR4EuSiGNOJDgYY5LdpJIRBpnZNFwZZpr0QBolwGZO4n45KJiBkMrNPeyEMErl5fgDJUxBzdlGMGcFDGCStOWetQSEMQhuR9uAQBolKM3PHjF6fGC6KoW10a1AIgwI/nWWWEs32JKa7NyiEQQfD3qAQBqGzHOiLYiEMQjuGMEgG/wquJJAwqFQq4SY/4QFEaA0yBKKmaw0y39fCoTVIhMEg+unCIMnckwitQSKW0BoEUYgdUSTjSYSLYiIWBoOSW6RDGCRKyPTH0BokSsjMHTwMknsuJH+lVAiDdGlM0tOCQebL+4ZDGCTyYFQ5hEEirnBvkIiCmYnF3GgxzeI+cSa3EAZNS/ghDBJxMZvrQ2uQiGtWrEEhDCoyyzchDMLZsVk5Keapo9JtQJDf9KE1SOTGfH2Ge4NEXCEMElEwqDGEQSKuEAZBFCTUOyBh0PDwMLM3CF9mohl+BByK+T2VeOYiY1z9JK/4EfBd4vdU4pmeT5aIq9wlZz+CuZMGToX8cpB4eJmRoB/BwMFyucwIn7/R1Y8ZPZ4UPsN/Op1mkjHCJ+8fZ7JSSjFcJZNJ5iQ8fHLpAvSkGcbIOjLMl0qlCmoOUyLZH3GRtKeI9EjmLmD9bm7LLdJwz6Rn7kkzDUSOAKVSibkEj9QcRvhwL+VZLz2SyapYLDLMM10DHc1uHQR7jPDJOiaTyUqVyI+rcgOcLm2DZoQP5zzGi+4gKXxGquKp0F2KHsNkpZRizjX7gZOARbFYLJZMJqGaHR0d8+fPT6VSyWQSfmTcfzOZTCKRiEaj6XQ6pf0kJeLS6XQ0Go3H4+l0Omn9wUuLlpNJIudoNGo+2DecTqcTiUQsFjMY2zdVKp1ORyIRVNB4pAeTyWQ0GoU7Lc8METkxMWEvEbKNxWJ65m46nU7Hp36eZUl61BFSlUg3AeEnk0nw706AmHg8zgjfzZi0tU6ggcA/au0uNx6Pi+b4KUUqlUokEpFIRLLyTJlKpSKRSKAoUqlUpYSPEuEJyF01xPv1DiN9JpPZvXs3FMx4pAehFYlEwq4VqVSK7x3w16aXIjRKgac2S4nganR0FAOFZ+tAAaLRaCKRsCdLJpORSAQ8+GWF3NBtLbmhd0AUlqwymcz4+Lhdc5AVXI8ppV555ZVf//rXuDVexIUWj8Vi8XjcLlX0R/1FN41x0j6YoMR4PD42NiZDk94HdRrCt7QjeGA0JxqNgjFI1c28NLdfx8crmUwGzGezWXcmEgNxMaIQxuRdN6ErmPupxOhDk0QaRDqdHh0dlf7oqWPQTwxffsKHp61YLCZZGQVJUKZRPwVDEYyCZTKZaDS6e/duv6yk0EDNga7KEC0vuol4PB7YjjKu2pUnnU6PjY15ylwiMXdMTEy4UUcADEIfxlJFV1fXggULPD1xims0Tx+N8O6mO5MT93h2f2lwc2hxCAdnb6TfvkwmE+hhLpvNJhIJi285MIOs7O4eC4UCZmKLFzoUBMeKlmrmcjkMYfasstks6egUJdqdDmIytnAF5tHToACIEWUQAg0kaTKZjCFh1Av9BFz5lQtRJBIJu/NIx3Gi0Whgc8P/ol9ZiOeFH+hNEL0Dq3UiHDdRKBQw/TCi8PQUqOcJldZjPGkMDXA2iQR6awoNX5u6A1GDhj/RiYkJNJBnWYgUL612+TP9kem28EMZqBLotvCHalRND4pUlVKvvfbab3/7W3xo6vVFiYGuVfXeob+u0xAm44MZ0waWOPUcdFoGTH34ldpJSkmmx+ivYGAH/JLmNhLIfCHtiNzcxUFzotEomJcEBoG7haD2xiM9CA9Z4lRYf6TTaEc9xqDBLXoHBnwjgQQLhcL4+Hg6nbaP0kB7IlJPApIP7NqYRu3J0HMN4bsLxaVB0Wi0UChY+iNKhAdidyaIgSZgiPZLg3jRHHsy6bOWZPl8fnx8XIYpv5SYuN0KFgCD9Fukh4eHFyxYoFurPGl+XYaxH+oMeBaHSMZuRpr9max0k7iFK9K7J1MiyTwpfNI9HmNmdByHMZNWcLWLXNog15UYxkhvdIVCIVClyaUN0pkGubLMmMRJBWN0tVwuM922gsyTS42V1RwRxerVq1988UXPcYA0+zMNhBtNPUvRIx3HqaDwpY56EQZNLhgxHa3iK3rMglEF65hMJitVIrlqyXtgNVrNHSQ1h2fMXYQRQ/YORnOUUsxCvN/q+TRg0ODgILM3iDzvw1x5UiqVAmdiXB5DbgJlNB4OMo0GM4KyBcw+7QHGGu+6g8y+YMdxmDqSwre7VgWHlXWJkM1m7bLCFMXUUbZI2zNkDlvpdwG720Vi8BUoQT8iUHMwkzF1xLeUX0ESTw6CTImBW6Qh7cA6oh0Duy3GI2b6xyBob2t8ltjvkQJjzJBKao5IUBy4wgAAIABJREFU9fXXX7fcIs3XUZrVkyDvDcrn88x8wAy/cv7Okx+JDNQcpMxkMoGNWCgUGM0hmSd7B6MSpE8xZnO9n3dPkSekxB+YZyY1z8typEQQpOZg7jDe1YPYgyu9Q39k0Pl8nmGemTsAgwIxqN8NvdOGQYFjTWAzQxbizwEZev6tLAziJ7NA88Z0YZBn7SSS0RhyEPRrZkP/KgiD5JwIqmMUJMGZPzAfj8cDBzi5BlP49CTIgT4QIswWDAqUA6wp9mRvAwaJhrsJABceIgTOoLiWxp6M7ESVhUEYTNwSkBgew2HO0F90qys5mfGzLIpzFyQxFZzMxCBhb0cxZttFITBIkrkJUvgCg+zSAAxylyIxwOL2717UnW8gphPZS0RTkppTWRhEMm/XB/DPnGyQiVu0F8S0YZCfJ07Jt1IwCPd8BH4cQMMYJEHCoGw2O2MwCMJkmCdn4lmBQVBl+wDBIHrSlCXWIFE5T4KEQcwAQQo/hEFoCLlqQUZ/N7E/rEGBQ9Mch0GeaiyRxWJRh0ESbxCFQoG0BjEzEL5e7JPQzMMg9ye0IQQEpwWDPHOQyArCoMD5UWBQ4DQEcx3Tjswod6DDoHg8HmgNqiQMEuXwJAKbGW+JKntmgshyufzOgEGWOvod4TNeIWfimYdB5FdLCIPkNiYG9VZ2Ucxu5oGmBSoYRudAqDeLi2JzGQYZ3dkIMg0kMMh41wiSkxnZbWcLBhmVMoLM3AGczSAJRvgCgwxOjGBlF8UY5knXqiEMQkuFMEjNojXI6C1GkJkXA2cp5DnzMIi8AouEQYwoQmuQ6I9870qMJ0EO9PZkIQzSZasvp9r3BtknM/n0B6EXYdAhDBKBVAoGifAlZz+isjDIPsoJV3bNAashDJImO4CtQfaVlFnZG7Q/FsWkqdyEPp66n0rMQQKD7DMxpBHCINGKEAaJKKA5djARuCiG1/fH3iA/cz3iGX9bBxUMsrcj9gbZ5w7dGuSXmwhftMiPmBYM8isOmQeuluB1cht4CIOkyUgY5GkYezt7g6RgTyKwmfGWIHqL0hwMMOhAXxQLrUHSCwIXjA62LdIiGU+C1BwG32Cj61xeFPMb5WTO80sgojuoYJDU2pNg5g4GBonwPUvRI6cFg/QX3XTg/ChchdYgSI9ZScAt0n4fG9IK4aJYuCgmyqAqeFKM3GTAqHK4RVpaKNwbJKJ4Z8AgqY4nwRhBDwYYhKsRPUWkRwoM0iPddGVtpczR7nBvED5F/NCG0UYVnDveyTBoVqxBgQcCcYQN67v2bzjm3qBwUUz6RgiDRBQhDBJRvDNgkN9AIZ/+fglEDgcDDJID81JrT0JgkF1oAoP8konwPUvRI0NrkEgjcH6c1r1B5DE3vxYUrmYOBg0NDZG3SNu3gIF18spd5vCnmMR1obhpUpUDlzaQM/MBh6vc3ZwYMYy4Arc1IE8ehgfaD+XYs8GtESSXNpg6ksyTN2UzOzzIFUl+BgrsruTGpmQyyXx9ygUqRqMYQUZX+ToambuDpGtVmaXcOegxjBywAqK/5UmXSiUmN1L4ItW//OUvzz//vGeJgQ4yoTDMYMhf882MmeSHuNTRs3aIJEcAzz0ZRrbFYpG5Apu8yLiCwifvka+gh3m+azNrZ4zwK2iKK5fLpOYwzDNzB65PDBx+/RgL2BuEy1cwdvT29p5xxhm4Ls/x/8EHEzAHErv/wpktcKVfSsRHIhG/BHq2cFuhxxi04zjZbBZex41HetBxHGAXe6HwwAIZ6K/rdKlUgmNaTDD6I4OG1yEjUg+C+UwmY+cKN00zyeD4xp5bLpebmJiwp3EcJzP105N5qgZTR3j4sksVdUyn05CqZ1kY/uDbr1LCz2azgYwFao4wr4tLb2jQxWIRflUx87kTIAZaAcb80iAevQP3u3hKDHa4VCplZ0x6h6U4cDUxMYGZw7M4OGCBazmmgcCVX1aIl65tSQYnX/Y6ivDtjGEEwMD42muvPfPMM4BiumTcvcPgTRIHDl/wLid1xItGbiLVSCQCzXEnQEyxWGRGALjlwivCqk6gRLgCtUsVAz40UM9BpyGuSCQCzdEf6bTMHbpW6AlAI5n0Drco5BVG7d1zhzvDYrEYiUSkRMnfIHK5HL7QjHg9aDCvP9LpaSXTX3TTUIloNPrXaw5O85BSDRQXPM25GTZiHMcZHx/P5XJGvB7E8AvGDHUNgEHSYEqp3t7eBQsW4Ng5vgDcqgARYPu6+JxzE4VCIZPJ4HNQ12Y9w+LUD5729MoYNJIhN+ORHoQ1Bcnc/EgMGAMbEmkQGJIymYzMUjrbUh2Y6VKplH08xbRhFGEE4e6OkSpcyqEVjEwkKIpl5x8OPg110UUKHYAfQWiF50SLZFB35Cac6IRIVQZBQ6oSRIl+zCNZuVyG72JG+MK8zo/QYAwHN+wpAUBFAYRhiQEzgTgVa8E4sWgpEb0aPV+49SQgfMskhKwymQw49MxEZllLPujRuVxOJjNdCDoN4KV/COlPhYbm29saicG8iFpyACFDDSl8w/kAhCymC/QvSFUp9ec///nZZ5/1hEHw9cggQvQsT8lD4PBYiQoa3VCCuC8jFovB7mUIQQ9iJLQPFPAEjAHWLVj0a7Rj4GRGjnLwcy591lMaGL7QH6VG7m6CkVwUTFK6CVEJz+KmJfxoNAozm5sfZG7AWc8SoavQHEtzoz/CDaolmQy/nmVJJDAoDlvhFbegECMTtzuZqARyC+QKXnj9ZCUSk+FLuHUTjuNEIhF3vB5jmWICYJBuohwaGjrrrLNkLPAjyDULxg5M+mgkTeIYjPzYlnjm8Cq5DEcuijGGeswEwqQfUUHhk0sb6I1+/Eg8U0c/i6VkAoKsI+mdlGGsgppDrsvgu9+ouDsYaPbHK0wdSQUjs9LHDTfbwhVjEmdKJEcAUvhyZWtjY+PmzZuF/2QyWVtbG4lEhH8Qa9eufeGFFySZTpCaw9SRbKBisZhKpXQePGlyzYVhDJOfZyl6JLNKQu4NItW+gkMTKfzKulYN3LcAtWc6ESn8dDqtN5knTU7cZImVYp5fFPNcYpsGDBocHGT2BpE7POReBMt63sGwRZrfnsIoFn99IvqYRfika1VyENwfJ8XsF4cc0M40sEriOQzpkeStIaTmMHMes3OuWCwy21NIzRFnYRZdJT1DkRvs8NV7/vnnz5v6ffzjH1dKbd269W/+5m/mzZv3//7f//vVr36lfwitWbPGsjeIkSrZQEwyEkmQe4Nm+BZp0hMIqTlMMvLTC4YNvet50olEInDPL7k7kG+gwBKVUuTeIAZAy/50TwnM/ZNinqIIYZDZmjN8fSIJg2C+Nnl1hWceBpHdNYRBGCDIBgphkKg2D4MqdW+QUurBBx+cN2/eFVdcsXr16kMOOeS88847/PDDTzjhhGeeeeZd73rX3/3d3+3atUs4PEBhEIPP5iwMYqwIFYRBWKeTFvcjQhgUwqA9unGgW4NCGISGDK1BMtiRGDTQUsJfnxjCIBH+rMCgc889d968eQAKLS0t8+bN+8AHPgCWnnnmmXnz5r388svC4QEKgxgrQgiD0MqhNUi0PbQGHRSLYiEMkp4fi8VE+/0I5pMLVln7ogZccnpaLI2ixaocLoqFi2KiG1gwsusYuSimlLr88svnzZvX2dmplHrkkUfmzZt33HHHoaxHH3103rx5f/7zn6XoEAYxhiXGHswvis2wNSiEQaLtIQwKYdAeZRCLl33YZa5PPNAXxUIYJANEaA2CKGZrb1AFF8Vef/31efPmHXbYYV/5ylfmzZt31113nXDCCYceeuj3vve9v/3bvz3ssMP0L4QQBoUwCJofLoqFi2ImRJDpwZOYs1ukQ2sQ2itcFBO9PagWxezIPhDqwao3K1ukKwWDcF7m8ccfP+qoo9773vfeddddb9qHBgYGPvOZz8ybN++jH/1odXW1/vUSwqAQBmGsYGCQbMq2dzRyzyVpD2as7LgmSgY9PyK0BoXWoD268Q6wBsGqbOmKswKDPE8zGh1SXxQzHunB2TopZhHpbO0NYqRKLhjNIgzSG9dNV3BRLB6P+625CLzTfeCsXr06PCnmbhEj5kBfFGOO6ZEwiOmPIQwS/WE0Z+acaeyPA/P27R2zcmD+ILEGFYtFu/BnBQYxY43AIOknnsQswiA/JDRbMAi7jO3XkAQeYUOlZgUGebavEVlZGGToobtBdSWcARgEzTG4MiSA4EFyYN4Pp+oyYdbrxTajv2jQ5XKZ3BsE16pubdEznLMe5g8Ga5DfKBcemNdVdJIOYRAkMiswiPlOkhnIPtyEMEg0m4EIgQt/swiD7Hgd1WTqSFq84vF44CqPbg1as2aN3/WJ5PTJ4BuS+RAGidpXCgZhnTdQJWCQCPR3JisJwqdBoKPJphHjqREMF8VEILgCW4KehJ/37srDIAZf4/KxwHWZcrksVmjPWmE3AIYk+6To9/p+jZ+DLE2rvsyRWmaswUaKQGn46ajBsw6DLHlOdzIzStGDgRABiWEpsbCE8ZSZ8/gD8+RnsV4dTzrwZhTUCyeoPXOQyFKpRN4izSiYZDtjBCNSnZm1a9e+9NJLeszcp/k1l8AdV3A3EVhlcntK4IDPX53MDE3kbEXeIm1ZThX5kCWSMIhsR1L45PWJ9iFutjzMJxIJO2NKqVKpZPjJQbsEwKB4PA7nJkqp7u7u+fPn6046POlsNptMJuEuBC6uPP+mUinkjL+eaeDd07MUicSLGHZ379792GOP/fznP7/nnnuWTP3u1X6Lp35ahDeJd72f7Y1dsmTJ4sWL94Z8/7/77rsXL168dOlS3xRTD+655x57gnvvvZcsccmSJUxuixcvXrJkib3QJUuW3HXXXe40S5Ys+fnPf/7MM8+ga6VSqXQ6Lc0t7WIQODTn18q5XA4OjOB+xJIsl8tlMhkp0ShFgnCIBjBhz41hLD31kzr6ZZhKpeDvzC9BduoXWMdCoTAxMQE/535ZQWKpVCqTyTCM2dNA+CJVz0LRT6XbIo0IXAj4chofH4cHH8+swDy8eyqlmpubly9ffuedd6KHGn/RiYxId5BJds899wQmW7JkyZ133nn33Xejx7kLQsw999xz1113LV68eMWKFd/73veuu+665cuXuxMzJS5evDiQK+TMJLv77rsXLVpkMI++fPfdd69evRrjfjKZzGazdndO8EQrKi1NbBDpqV+ggqFEP30QfY5EIozmGLOGwRKQGXz32hmDI3A/ZUa2cGwX2G3z+fzExEQmk7HUEcIMzApc6V3bXUHE8MK3cwX38hMTE4HClxHAjyUUhMHQUii0yz7mQCsCh2gk2717t6EVRunwyucp/AAYlEwmxSI9MDAwf/58AC5Euv/ie1eWNtwJJDdBu5Y0MDMKjvYjwNLatWuvvfba559/vrW1tbu7u7Ozs6urq3tWfz09PbNa/l9buCf/vb29TU1NTz755LXXXtvW1ibunKRlPZtJtqf4NTcW4KE5ljRIxhhU4BVY7IVGnhLvl5WkRwVh6/b72kBisZSUSiV5XQhszZGlDYnXCfnyTiQSIgq3POUV+d6VGM/E2GPoyRVeVErZLV5ScdkbJDHuEmU5VbjyJGB0eeihh2644YY1a9Z0dnZ2d3d3uX6eka5Ukz3dHWnEoD8Yke4gk0zSdHZ2Dk79MOAYuUkyI94I7lfmwUN3d/fWrVuXLVt28803wwiHv2hHvYH0BhUl9GxuRBamftKh9Kz0zP1OGEl6dDRYg6CrOiegkaF77nCn1I1GUoRB4C0MTZ45SCR8D+t1lEc6IXuDjIL0YKDNW+qoN5Beik6LNUgvQmhh2K+OespcLgfhI1IvBTQYY5bhZMlY8tcJ4cpxHHgoQ86eJcJ4BguTZOJOqZSKxWJwNifJ3ITsDTIeBcMgKXJgYOCMM84QiRgZSU1koJfaeqZkxlMGBqHcTZs2ffe73/Wb0qQKIVFBCezcuXPhwoUDAwMWlUDTY0hyq4Eeg5lYALSFT1kUs6SBpz1mOd8vjc6bM/WDPnsWisSM5TlwZwDyxyeLvURITLa6Swd0c6hPZnq9hOaFL93WXYrEiFNeyd9NIPEDDzxw9913y4shMQMSeP3112+66SYpSG8aN1Bm+qPAIMnTk/CbiWWawCgRuJyKKda+3x8MwFW7JzN6JDNryJKxiEvPQehEIiE7PSSlQQTCIOQmXziSuSchMMjzqURa6gj2sE0Fi2KWkYTff8IMhhhXhQHhVgg8guboYpQEOpFIJNwKrL+FT2hPxiYvjLf89JXawcFBgUGiu3ox4IlsZkH0ek0MmtkbhFd+/OMfj46OYvHPyCQM7g8JYBjaunXrbbfdJvlDGSSoE2Ip0SMNWqC6EW8EycX1yu4N8kNLOm8VrCO5N4jpRPoNNzq3Bh0ofAyOZB31ccMoSII7duy45pprELSMvJI+JP56CUDOq1ateuqpp5jcGBhEzsSM5sz8LdK6i1yLQGC3sCTAI3JvkOdMbGTOd21mKxvTjhU8KSbWIKNSRpCEeozm8AfmPYU/b2Tvb3R0dGzvb2RkZHR0dGRkZPfu3cL64ODg/PnzJehH6NYgvzT6FmlLGubAvFKqrq4OV5yFg6lFmPvp0R133KG7mfQrhVHlwJkYmVfQGkR2V3IQRB3tSshbgxjgxY+Vfu0i8aTwGWsQeYv0U089Bc9cdokJhyFRKQkMDw/ffPPNTG5iR7QkJrdIMyNAxWFQYCeq7AhA3hvkORMbEua7NnPOoIIwiBkBSKnOPAzyG+UCFsX0r7o5C4PWrVv3zDPPGGo080EZzYWYeR5mskRUc9GiRbW1tYHlMoMgCaB5GGQxBYNhsrse6DAoUA5YFAucM2BYClyPIGHQfffdt2PHjkDNmcsJDtCeXigUbr75ZmZqFBhkqen+gEGW4vRNP3bdwCqHPU1lRwAGBpEfQryNbeZhUGCJpFRDGKQYtEtag6qqqvxucbX3gf331OjG+mqR8ciy/2P/sVfBnCsLg5jvpBAGSfMxnaiyZn/mW5CEQcuXL29sbJS6zE3C3VvnJp/T4iqTyfzoRz/yPDls5DNbMMhgwwiSm35CGCRyYyAvuSg2rS3SwoAnMfMwyO/uyneCNaiqqup3v/udp6BnIDKfz2/cuPGFF174zW9+88ILL7S3t6NQYwCVoBBKqRdeeOHHP/6xJ5N6MkmgwymJnF3izjvvrKurC+SBtAaFMAiSrOzeoLlpDZr7MAh9MJvNPvfcc8uXL3/ppZewD2NwcPBb3/pWf38/DsYimWeHDewXs5LgzZPkP/7xj5m+FsIgNBBpDw6tQRDXnLUGvc17gw6IRbHZhUGlUunUU0/97Gc/e8UVV/z3f//3xz72seuvv95zdHOvJjQ2Nr7yyivueM9db+Vy+fbbb4ffRyP/WRyCFy1aFMIgNMec3RsUwiCjvzBB9KmGhoaTTjrp3HPP/f73v3/66acfd9xxdXV1mUwGq/AtLS133nmnZ26z2CU9+dEjQxgk0iAnbDkpJi96Ejgw7/lIIg+SRTEGZIfWoAovis2iNahcLh9//PEvvvgiFL27u/vv//7vsfdz9erV11577cKFCzdu3IinjuMsX7782muvraqqUko1Njb+8Y9/xKNVq1Z94xvfuOOOO3BqcfXq1a+//vpTTz112WWX/f73v1dK3Xfffcccc8ytt96ayWQcx/nZz372zW9+8/7772e2dEgnrDgRwiAR6TsbBmFer+Ci2IoVK+b4olg8Hj/mmGMWLVokTXzZZZd95zvfSaVSL7/8cldX12WXXXbcccc9++yzSqmNGzded911V1999bp16yT93CRIGCQQwe8WH9Ruf+wNsstt5hfFpgWD7Aj4IIFB5DJc4DYj0gPBX3tSzK5wb8MaVCqVmImZ2dbA7w2aXRj07//+74JmlFKHHHLIc889V11d/b73ve+pp5568MEH3/ve97a2tiqlLr744iuuuOKRRx459NBDX3/99UceeeSkk05SSl111VWnnHLKq6++etFFF5133nlKqRtuuOHf/u3fVqxYsWjRone/+90NDQ2/+MUvPvShD61cuTIWi5199tkXXnjhyy+/PH/+fD/jk71lK/WUhEGWW0OEE/KqhTm7Nwi3FAYOgoxthlwUI+cDpsRAs/9BCIMeffTRf/u3f4N+6ibbzs7OD37wgzU1NZdccsknP/nJN954o6qq6v3vf/8jjzzy+OOPH3744Zs2bRKtnoPEmzcd/+QnP2G+12d+UQz3Btk7Ean2s7U3yM78QQKDGO06YKxB+mVWxr1Blu7NQDxcH2nJBHuHdRzml3h2F8XK5fKpp576ve9977XXXvvtb3979tlnf+QjH0kkErt27dq8eXMikRgfHz/22GOffvrp1atXH3300ajF73//+02bNj300EPnnXfeyMjI4YcfXl1drZQaGxs75JBDmpqabrnllrPPPhuJTz755Pvvvz+RSHzyk59UStXW1v7zP//z4OCgUmrr1q3vf//7h4eH/YSzv+MXLVq0bdu2wFIYZEzim3K5zOSWTCYZPWQgQqlU8lymNGrNZEUyn0qlGOZxa6rBhjvIiIv83mXgbLlc1scNNz+ImfvWoP/7v/9bsGCB8C/TW29v7zHHHOM4zv333//lL39ZKbVr167q6upoNJpIJD796U///Oc/l7fmIPGml4Ybb7yR+V5n0sjlovaaMr2jWCwybq2YuYM/UMbUkfQplkwmdbjsKRCxsXk+lUjHcZgxh0SEjPAdx/HccSEsgSBHALJEso4GD55BZszxE37AFmncQYcRube39/TTTweCKxaL0AwEJVIuaiwWi+geaE4EkQzx2WwWBiHJRzJB5nglFothEtLflZyhc+vWrZtda9Bpp512+umnf+Mb37j44otvvvnmSCSilOrs7Lz44ou/9KUvXXPNNUcfffQrr7zyxBNPnHbaaXoTLl++/IILLmhvbz/iiCMuueSSM88888tf/vKJJ57Y3Nx86623ipnn85///LJly4aHhz/2sY8ppV577bXDDjvs0ksvPfPMMy+88ML/+q//6u3t1bOdSfquu+7CgXlpPmlQNBPisZCna4U0IghgIKwrGW1t5AwHWCjFyAQmDTi+iMfjmUxGVzzRK4wd0KtsNmtkoheH1+Gzpjj1w1tSkCQul8tw0iRdAxhFGHjzlDIMpel02q9EKSIWi4F5xEhxQpSmfvChI5HuxHikZ4VPZHevhLcjcKizJxUUcSEGOUjfRLaoez6fj0QiwFV+vCmlli9f3tTUNJO6Ot2y7r///pNPPhlvCQZSSvX29h577LHpdHrJkiX4VhkaGrr88svPO++8a6655thjj125cuV0y5rJ9IBB+F4XTZC+CS1CMJPJoKNJa+q6ARpOuyQe6iGKgV6AEzqiOUgsQSSGMVgGfESK/khizGRwzeGnzMgf7r10lUYm0FL0IByPMpRZZw+J4VZMmJE+LlxhSIlGo1g1hrikOBkEpD8ag6SRM0SBM1nIxJCGpIdjL51hGXZklLMIHxVBi2cyGThpl0gpRSoC4ctQJvFSQRRaLBbT6TSegjfJCplD+KI5nvLUNUd0UiolGYIoFovwRoemlKfGkOg3dwTDIPgng2vVM844w+6pDt7LIAK0kOHeDEG4VQMS0hNI5ng3m81OTEyA9vwLIL927drZhUEnnHCC28X0+eeff/nll2N0+9SnPvXKK6/U1tZiCUwp1dPT09XVdd99911wwQU9PT1HHHEErDuO48TjcaXUD3/4w+uuuw6vf+ELX3j44YcHBgY++tGPKqXWrFnzr//6r8CmhUKBubp0/w2yd95555YtW7CCK82nt6k4TfRsQT0ym83CiYQ7H4kRJ6DiFdIoC8U5jhONRgNdqxYKBU/fflIcckun05lMBiV6Fid11J/qmSAevcPT8bAuh0DmkTOYF/+L7uKEGbc3QSMxpApxGY8kE6mju9vqaTBhoNvq8QatlFq2bNkch0EdHR2HHnqozuQf/vCH//mf/+nu7v74xz+eSqXuvvvu888//01r0JVXXnnRRRehl5144on33XffXL4I480WvPHGG+EvEs0K9UMbiSrCwSfU3s/jpqeDTLcKQVcNHTCC+Xw+lUphMtP5cSdLp9N2JZRum8vlDM7dvFk8dyIxcpCBwp0DOIRHZMO1qpFYHwGMR3o1IdXArg2JCWN6DjrNCB9wMBqN4vI2/XWd9py4jYpAYTxdq+opMVBIHfVSQEtiffiSSCM9hI/mljRCSIbw++4eyQNgkG5oGhoaYm6RJs3+QJT26blcLgMT2JNt3LgRuxTtyfbT01KpdMwxx7gvp//617/+1a9+NZlMPvbYY4cccsjNN988MTHxH//xHw899NDQ0NBHPvKRVatWPfbYY6eccopS6rTTTlu4cGEul3v22WfPPfdcpdR3v/vdSy+9FDwff/zxjzzyyOjo6Hvf+97XXnutv7//ox/96F133ZXP51esWHHVVVftp6ox2S5atGj79u2BKRkbqd+lDkbmpDMNclGMMYnj285gwx1ksiIX/shFMaYTkc40+C0L7oobMaVSSR83jKcSnPuLYm+K7ic/+ckRRxzx9NNPNzY2PvLII//0T/9033337dy5833ve18ymVyxYsXRRx8di8WuvPLKL33pSxMTE7/61a8OP/zw73znO4y1X0QxwwT2BjHqynRbfPQHVoEpznEcRnNItYc5IZAxpo6wLgRmJT7F7CnJfTOMCjFbbMkRwHEcZkWSWRQj7yqDaccuK5J5OJHUTbae2cJm734UAIP0rTnTvUXazhPTfgfEFuk3fVvecsstOPmly7ezs/NrX/vaOeec88QTT/zpT38655xzmpubGxsbv/KVryxYsOB///d/lVJr16792c9+ppQaHh6+4oorLrjggosuuginzH75y18+8MADyPCOO+7405/+9Ob35S233HL66acPDw/39vZ+9atfveCCC67Pmt3MAAAgAElEQVS44oqamhq93BmmFy1aVF9fH1hoZe8NwpBqVzDxMG/hzW+p2HiFHASZk2J+t7kbJZJbpPmrZo383UGSsYPqpBik9MADD8yfP/+0004755xzcBJibGzs+uuvj8Vio6OjZ5111ve///22trZvfvOb55577iOPPLJmzZpzzjlHDoe6RT3rMeRJMZmB7NeVkSfFcIDAXnfSmYbMHfYRoIKzrOM4DFpiDsyXy2Xm4kq+azObCEngxcCgXC4HfCbCF0K3gDKolwTQjObMxZNi0BhdOm7tF1V2P5KYAwIGCbd6fYX23J1q9ChJLKojMbpiSUGyC49RbnlrPxHkSbH9BIN0QRkVDGGQCET0SmLcRAiD3DLRtcvyaS7JmAnJXcrMx0wLBgEDSR3d3M4WDLKDs8pukQ5hkLQ7YJAufDdNfl7OORjkp+V/jTVIBOdJvPNgkFFNT5HqkTptvKsHPZN5RupvzRg9izDIXscQBol8QhgkoqgIgd4nXyNGnnOnbxqMSXBaMEje8iNmCwb58SPxoTVIRMF8MPPONDw1XwdDYkcUBjyJOQSD0Gn9um4IgzzbL4wUCVQWBjETNrmLJYRB0kaMVB3HYZIdhItixvguUvUcM/0Sy1tzgSBhEPlNH8IgaVNmUYzcATmXF8XegTBImtCTCGGQp1jCSJFAZWGQsVwopeiEwCDPeUhShjBIRMHgG9LsfxDCIBHjO4YgYRC+6QOB3azAIGb9cW5ag94BMOjN7bB+WiFWFWbMmXlrkN/S/37cIm0fNd7xi2L26r9jnlYWBjGdJ4RBojz8J6O84keEMMhPMu+8+BAG6W3KjDlk7zhIrEEhDJqvK5AnjYsHPB/pkSEM0qVx4NKVhUHMGrbAILvQQmuQyIcc6JlkoTVIpHrgEiQMChfFpIkrC4MO9JNi4aJYCIOka4TEpAQqC4OYmZiEQclk0vOYnt5s5EA/lw/MW04wSU0ZqQbuDYK5u4IwaPny5XPctaoI8B1GhDBIb1CydwQOJjizHbha985YFNMFCNrYosBItbKLYolEwhOf6az6ua2c64tisVhMr4YnPbs+xTxZOngiKwuDprU3yC5k0hrE2J/Ib0HGtarf4rRRFwbDYetG4LCrlGIu3iDrGMIgo6UOxOCbPlh+QrtWxS4QY5LTa31A7w3iP4SYoYlcFGMgAr/eXakRIJ/PM3dXVvDAPFlHZvgi7w3yG34DYJAul6GhoTPPPFPvAJ50ZW+R1vdoexanlNqwYcNrr73m9zSM368SWLp0KXyK2UthvqXg/ceej1KKvIiZvEWaGd3gMSeQMeZ+VbKOJAwiN4EydYSTI6aOgWmKxSLTbVesWDEwMBCYW5hgf0jgpptuYj4AGM0hv+mZrPhbpBkjaAVvkSbvkWdukSYvwSdvyq7gCFAoFPTp3k/rKlgi/H/5FSTxjOaQMMgPnATAoFgsBveNuk8xcTrjSeRyOThgyvr/crkcfI5AveDW0fASgswjkYgRbwSVUlVVVT/60Y9eeuml34a/mZXAiy++ePnll8PDvKcyIBJObdyeXPSmhLcd3XUXFE/SICv4OYIbIMNljKTE90okEgGY0OMNGr60/PV08gn0GT6MLClzuRyKg1kFBYFnZIJPH9F8gxM9WCgUwDxk4leoSAzdxy9ZNpuF4x5LAr2OflLFbJdKpYx20TmHL6dMJjM+Pm5nXim1cuXKO++88/e///1vwt8MSuCZZ5559NFHr7322mw2izUCP8XIZDJw6mLpuY7jZLNZxq3VmytxfgUhHl07Go3C25RfYulBWMY11E+C4pbL8CkmCaCruCxHj3TT6BFwFubHFcaHSCQizs78UmamfhaRYtcs/Bj6dUYw6ThOJpOpiPBhCoJDNz/O0fEx9sKsAjZklEPd0S4WT23yFoamv374Qrnj4+OBOuYn/AAYhPU2LLn19fWdccYZ8A3r9xce5nFlsF+aUqkE1x74ekYy3fGsvAgfk+VyWWLchFJqy5Yt11133dNPP/3/hb+ZlcCvfvWrr3/9683NzTDSuFtHYjDmStBNQHMymQyM8PCo7E4GawqSeT5FpFIKCN7OGKYBSz7QVQxGdj3EHfmeaiyR+BaBjddSKL5s8LFuSQZ7vt6J/BJns1m/R4gHY4FSRR3F87NfnoVCIRqN2sWllLrvvvtuvvnmp59++vHHH38s/M2UBJ544olVq1YtXLgQo7pfI6IDQnMsTQklDBzwS6VSJpOxaw6yisVi5XJZuoybPcwdhULBwhW6LRxt2pMVi8VMJuMuRY9B7wisI8acQMbgfV3P303zdQQCsNcRwreIFJqQzWbhwdPNj8RYGNPzdxwnnU7LW54EP3xlMhk9c7/cotEozEueCRAJ4OhOEACDdCsZ6VOMNPtX8KTY+vXrw0UxMSHOMLFs2bK6urrAQhnDJrl5kF8UY1bimHX6aW2RtouCZJ50rcp0IvJGV79Vc6M6jFMU0rXqypUrw0UxQ7wzFrzpppsYzWd6UGHqF8g5swbnOA6znJrP5wM3w/LONJihiRwByEUxRhT82hOzN4hpa961ql34+I5lSiSXU5msSNeqflNMAAzSlXJwcHDBggWB6s4fmA9sP9Kn2IYNG2bRw3ygQKabwLIbcbpZzUD6WXStaq8ds70GXyT2fJRS5CAIiGBvPhJtHAyuVVeuXDmnTorpN8LZGzFQYeZ4gjcXSW+88cbA2YXcxTIrW6SZvUEkkgiUA0YABi0lEonASe0d4Fo1EAb5oQ2jX5AwqIJbpP0YC2GQ0TRUMD31k6QyaAohj3gC2wOZzqb7W/1rSuR5s6QMYZAIJ4RBEAW/RXquwSClVDqd1udF6V9Yd5C2FqJUKmEbh8TIKxIz14gQBuktoje3Hq/T5DnKEAZhbvJDG7pIYa4LRI3kQVdyi7QfYyEMMpqGCi5atOjb3/62nrS1tfXiiy9WSnV2dt5+++033njjzTffvHLlyr6+Pj2Zhd61a9epp55aX19vSaM/SqfTWMrVI2eeDmGQyDyEQRDFAQqDwPzChQtXrlwpbaqUevbZZxcuXIiYcrn86KOPXn311ddee+2LL76IyCuvvPLOO+/E1hBmTtUznxU6hEG62JkmC2GQSCzwygx8MJALfyEMygeKYM4uivX09LS0tOiG2aampne9611Kqccee+zQQw+94447br311osvvviwww5bs2aN6JAQ7rrHYrG6urpIJCJp7MSKFSsefvhhzzQz+T0awiBpghAGQRQHNAxqb283Pl1WrVp15JFHKqWKxeIJJ5zwn//5n4sXL7799tvf8573nH322Uqp3t7e/v5+pdTVV1/d09Mj+iDETPZHKdRChDBIF04IgyCNv9LDvIg0hEGTojgY9gb94Q9/WLVqlVKqq6vrjDPO+OIXv7hkyZLjjz9eKfWLX/xi/vy37tq+6qqrTjjhBKVUfX39JZdccvbZZ3/nO9+JRqNQmgceeOD888+/5pprxsbGHMe57bbburu7gaXOOuusM88887HHHlNKdXR03HbbbU888cQFF1zw5S9/ORqNtre3H3nkkZ/61Kd+97vf4Srn00477eyzz3711VdFHWeGCGGQyDmEQRDFAQ2DHnroIXSi55577vjjj7/66qt/+MMffv7zn1dKfeUrXznppJOkubu6uk4//fShoaFnn332lVdeeeqppw455JDzzz9/YGCgr6/vkksuWbBgwZVXXjk6OiqvzBEihEF6Q4QwCNIIYZCuFfvQ4RbpfcSxN3D99defdtppSqlPfOIT119/fX19/dVXX33UUUcBBukbyb/97W9jDD3ppJNuu+22SCRy3nnnfe1rX1NK3X777Z/97Gfr6+u/9a1vfe5znxsb+//Zew/wKovlf9zn+7vPt96/1+v13qsoojQRAUPvXSEQQAGlS0d6R3ovKfQmRQSpUpSidKQFSCAJEAhdBEJCSD/9JCfJSfYf+dw7rm87Ez0JUc95eMK8+867Ozs7Ozs7WyblpZdeunPnzvHjx998883z58+Hh4e/9dZboaGhjx8//q//+q+JEydevnzZ39//o48+ys3NrVmzZt++fdPS0oKCgurVq3f//v19+/aVKVMGt/j8m9JC/9+7ZhBHJfmCaVCjMq9h5XDVYzANFOrRJY6JkKw3iFoFsHz58mK1NwjkNWrUKDg42G63v/DCC2vXrj179myTJk0CAgJycnJeeOEFTc9uixYtxo8fHxUVVaZMmc2bN5tMpmbNmk2ePNliseRfJ/HBBx8oKv7UH31mkNwEzN7B2bXJ2Ruktz1FJkkIwe/a6oUFRVbYXqNOVKT4zCAFQ356lNWZ76QY8WXmzJl9+vS5evXqyy+/jKWxU6dOvfjii0KI7du3V6pUKTg4ODAwsFu3bi+99FJYWJgQ4v79++fOnbtw4cLo0aObNGkihChTpszBgwdxDOHcuXMPHjyoXLny3bt3e/To0bt373v37j18+LB3795du3ZNSEgoUaIEfPW7d++uUqWKEKJ9+/ZYFKtdu3ZwcDA8840bNx49ejTRWQSAd80gjq4hM8h4rcF3Uoxa34uK/ndvBrVp02b9+vVbt24lx8/cuXPr1atnMplKliypabd17tx5+vTp2dnZVatWTU9PF0LExsaGhYWFh4fPmDGjXr161BDFBPCZQXJDeLF3MINpcPbN+MwgaiMvnhTTO6jr2yJN3C4AMHPmzH79+oWGhr7++uvoRZcvXy5dujTMoDfffDMoKGj27NkrV67EpgGXy9W9e/eOHTtOnz693ZOfEKJSpUqwkFCw1Wp98803r1271qlTp8aNGw8YMKBnz579+vXbuHHj9evXq1atCu/6tm3bqlevnr/K1q5dO+zlrFOnTufOnQcMGNDnyW/r1q0FqMmvRvWuGcRRST4ziBqNryvpEz2AuQn0D2IGrV27lgIHrV27tlGjRkKIChUqYL2M7G9MxLt06TJjxgyr1VqlSpX4+HghRN++fd9///1p06Z16tSpefPmejx/Wuk+M0jmPEfnMHsHzCASD7kUgn3eIGJF0R+YLzozqOivTzx37lwR3xs0Y8aMXr163b59+6WXXoLD7OjRo9givW7dupYtW1JLA9i1a1eJEiUAL1y4EJqxUaNGO3bswL1P69atu3Xrlp+f3927dz/66CPy6KSnp2dkZMTExFSsWPHRo0f5PqQtW7ZgntqyZcvPP/9cCFGjRo0tW7Yg84SEBMxHFQQU3iPTDOK4efTC/yqIpxsIjdUNxxvEvFqwQPcGKahVPBLxinTFI//eIHmfviITeuQoej0FQZkAwP4nRaLikXl9YvFcFAsICPj888937dqFyUa+hEycOLFy5cowbrDAjfrGxcU1aNAgLi7u448/njlzZnp6+ptvvimECA8P/+tf/wqcdevWNWzYUMGfp/6YHxdi4sSJnC7JuT7xqdwbZHx1DTjMvDeIwwemBuB4g3ARs0cZ4BNfxItiHu+uxBZpjs5hmkGcrAr9+kTcPC2EePjwYevWrekiaoo8rAAQEUaRqHjEaiVmlgb3ZOfk5OBudSpUDQghzpw5g53CHmXLWwjjxo179913hRB169bt2LHj9u3be/XqhUWxlStXVqtWTVFQdHT0iy++uGLFitWrV3fo0OH111+/cePGpk2b/Pz8vv76665du7Zp0yYlJaVEiRI3b968cuVKuXLl1qxZs2PHjpo1a4aGhj58+PD555+/e/euEOKzzz6rWrVq/r7pbt26Va9ePSYmZsOGDZUrV969e/fatWurVavGCXSqIO/XPAYFBUVFRWFHiLp1KMXjhei4sd7pdKIX0YcKgGJuGETbwFX6CGpjnBvzKn1+MA2P4QJwm7sxVejS8Jwrqi8/4u5Hj5f3Y/Ypf6iGcVFeRkaGcewRChhiQD/aEd2W5AqNpbDYli1bprnGRF89FaBBgwZz5sxxu93/+Mc/xo8fv2XLFj8/P5hBDoejUqVKjRo1WrZsWXBwcLly5QYNGiSEeO+998aMGZOXl1eqVKlp06YdOnSodOnSS5cuXbduXZcuXcqUKXPo0KGnUhe9QuENcjqd1G0JU9bGFGrGrf+DEJIm10OkYBp6CG63G/aBxWIBVXqYkGdEHtXDQS0o0IQBGjSAMQKmLogrYoCZl5eHgGjAUfcypOCyZvQgvdzAChgcejjQcoh0Rv1LE5mCaWi+RSJK5ATTQNhHvdqBEgTTMNASFO0E0yqD3HAvF4g0QAPzjdUvokdrDjEeFsVMT36I1nHjxg1/f3/zk59V/2c2m9PT061Wq8Vi0cOy2WxpaWkmk8lms1ksFuSp+IvPk5OTLf/+KRDMZjO07eHDh3fv3k09uQiA06dPb9++XQiRkJAwbty48ePHHzp0aNOmTUKIS5cubdiwQU3DwYMHR4wYsXTp0sePHy9btmzbtm35bvYdO3YMHz589uzZNpstLy9vxYoVcPkgWOy4ceP27t0rhEhLS1u5cmVqamq+zo2OjsbxsXv37g0bNgxk7NmzZ9SoUZ988snp06fVRRdqSnBw8JkzZ/Ly8qjFbVq/tLQ0CIPWyx/T7Ha7xWJJS0uz2+16OISWmppqgGOz2axWa0pKSlpaGkmXRfUzm81WqzU9PV315mcJVqvVZDIB+WcvVA+oo91uNxB7s9mclpYGCg3QQDx6h6qcfyWAMI/0g6toHb2sLBaLyWSiNtIkjLhqsViIfnWGVqvVbDYnJCRgDkfuBPUdVyEhIdeuXRPF7Ld169YTJ06gIw8aNCgoKOj06dPw2uJyxcDAQKxWkwd6165d3333nRBi//79ODMfERExZMiQBQsWJCQkrF27dt26dcWqlvkhLcePH5+UlORwOKxWq9vtPnv2bPPmzefOnSuEkAU4JSUFethAmWOMMBYwdDRobIvOD/KckpICVWBQYnp6utlslunUlFigkawqcEiMjcUeX6GDKHJQPNpsNoxWKFFPQVmtVo8l2mw2EK8ogh5BPNBMJhOlqwFgQkuo31IKRmQwnxLVgN1up4Fbk7GotdlshopW52C1WunD9Cc/elQj41VqaipERv5WRgZaUlKSnKiGoU6hfhWFejCDFDHF5DNQQufHvIIdUdB08vgpWSbgp9SfQ0W8KEaTWlLxRI7mMk3ekx/h6AH0rcLfS+mYJOFzBY5enkWQHhIScuXKFY8FcTzPcCR4zIopYDabTd1A6sw5hLndbo7nGVFO1UXIKcw6MmOKMTsRs44cNA4OLYtPmTKlVKlStWvXhofy6tWrDRs2fOutt5YuXSqEWLNmDUdyZO4VNkzdSt3cmNqqCSBtIPdTNRqmv+r0p5KSH4h7woQJtNYQFhbWtm3bunXr0i2RRBWnB2GmTp/oAWqWqjHdbrfD4VCnK1LgClIkqh+Z60rMOnLot9vtJEJqeiiFOE8paoBPPIcwTrfNzs6Gg1BNjJzCYT5TRXtRfcF8l+nUgzVZ4cEM+gUnxfhbwEiD6FGcl5cnE6CHVsRmkB4ZmumyDWSsKDU/L/6JQUFBnCP6nN3+zBunmFukOWYQM6ZYdna2ZudRtA4FctdsaEgCs452u10uUZYiFIoiXC4XlKAaQaaNmA809V8cVzQeD1Ci2tRT5EblTp48+ZlnnqlSpcprr7320ksvhYaG/n9Pfi+++OIzzzyzZs2azZs3F8NFMaL/dwwotkhHRESkpqZOnz5dcTM+czBjhlbl7CrLzs6WFb5CtPCI/Xw5OTmabykRZ85lkaZXCoCu+1Kk0yPCPqA/UqIaQDwHj0YJ6Rx1DrLeoNMPmmhIlLutHhqiW0AD6OFQ1+Y4HVwuF1YwZWrlzoIJA8fU8+KuMtzh7tEGpbFDJlgI8dTMIHBTQY3ikWkG/c5CqyqYUMwfg4KCOAFAaCQ2qA7TRNATZUXOVqtVtiQUb/FIKknzLSUyz4lgh4SedkBuzJ3ICjOIKFEAnE7EDMrjcRMo6UrjCoJCi8Xy7LPPYksNTjU+88wzdAS9TJkyfn5+S5cuvX37tqJGvsci4ADMIPQOGjlGjhyJrU5EwFM3g4gSBZCVleVxCs0JWQWzgDNgMydCzC3SnBKZdSRrScEixSPziD7fDFLkr3hk6lU+8UydQ8KsoIce9dRvAcyguLg4zqIY0xvkUYNDRuXJAVVGAfjMIAVDivJR9gaRFKpXEH7rZpA8rdRjL+cwOdOG45tBHmeffDPI2GokM4haWY8PQohHjx796U9/6tixI3CmTZv2zDPPYPOcEKJr166vvvpqcHDw999/b5CJ71UhcUDhDUIpBmaQ8SDEnNP/Am+QXvWZwyeh6dH/VMwg5vhIxOsxAenkDzZG85lB4I8XzCDm9YnMZvaZQcaC+1t5S2YQRsesrKxx48Z9/PHHZDdABzHNIM48iWlJeNcbRNUxaJfCMIP0NDjI4CtB43zgXTdmPnLweFwWhOXm5tapUyd/UWzPnj1ffPHF//3f/9WvX79UqVJHjx49e/bs//t//69Vq1Zr1qy5efOmAT99rwqJA5pm0OjRoxXeIKwreaTBZwYRizjeIOb46DODiKucsYO5KKZ3J0sBvEE+M4gaxgcQB8gMEkI4HI5u3bq9++67TZs2JZ9BgcwgzqzlD2UGEZ81Ae+aQcbM55tBWLCIiop69tlnn3nywz1YAQEBePzv//7vixcvbty48erVq5r18iUWKgcUZhDafejQof3795cDLzAXxXxmEDUW0wzCzRT0lSbgM4OILV40g3B3AOVMgM8MIlb4gF/CAXlvUGxs7Pnz58+ePUtmEDkhOKKsZ6oryPKZQcQQ75pB3vIG5eTk4Hh8SkrKnj17zp8/TwTv27dvzZo1Dx48EEIsX77cZwYRZ4oSUJhBq1atatiwYbVq1WrWrFmrVq1ly5YRMfK+YEpUAD4ziBjCMYNw+RZ9ogf4zCDiDGfsYHqD9FxxPjOIuO0DfgkHyAwii+fIkSNNmjSBN4gSOaLsM4OoAWhvEDGQXsmAF80gvVVzKg6UcBbF3G63+pYg8g5ShsuWLfOZQcSNogQUZlB8fHxUVNTdu3fv3LkTERFx7949EEPeIOyh0aPQZwYRZ3xmEEmO8ZwKaExTjzN2+Mwgce7cuSK+RZrk3gfIi2LgxuHDh5s1a6Y4ysERZZ8ZROJEZhClaAK/CTNIbckhpXgG09Dk8+8sUTaD1K2DI9b4a7xrHmwptmYQxWrQrCMqyDzT5N2TYr5FMZIcb53w+K2aQR4PBPJPihWBGaTXkX5n+vEXVEdtBh05cqRp06aKrJhmEGcOUcwXxYxFxaPTBXwrejMoJyfHmPmoV0G9QQbcWLFihc8bpOgmRfOImGLGzf07MIPI2aAnhL6TYrK8ZWVl/e4PzP/CRTGZL48ePeIcmOfb13rSKbeNTICcLsNhYWGF5w2SnfkcgmXCZPjXfCvTIOdZHGDZDEIdjx07pjaDPOpcRLPizD7JV29cfc71iczQqm63m3lSzGMrM0Or2u12zjyJc6Mr87wPs47q6xPVrZCbm8u556JYmUHqhlOnqGv6G01hmkFMySGnizE3OBogJyeHo/CZNyzj6iBjqph19HirFkqx2WwKL7i6dP746DErEM9RFManH0BkdnY2h/mciZB368iRHNxd6bHP6qlfD3uDrFYrXRJ6//59f39/POr9xZwSoQD0cNBt8h2z8KZqokHssrOzEc5MEweJQojTp08XnhkkhLh169a8efMgKzKjFbD8qJZ+nEm+e/fuhQsXzp49GxERkZycrEbTy2Tnzp1BQUFqfEWK8Sq+Atkrj0FBQZGRkcgqLCwsICDg3XffrVChQkBAwLhx41AdRBM0aESIhMvlyszMxHishwwBczqdeghId7vdZrPZ6XQa54b740nYNPPMycnJfPLLv/Dmzp072DmhxkQ0wawnP1RHgQNpz8rKysjIyHnyg5oLCQk5evQo3faG63FBPGIBKvKhR5SYmZlpTH92djbi1dOHagBc9ch8ZIVJtjoTpCArk8mkpkpOEUIsW7asOATToB5nt9sPHDiwfft2utuaXun1FHl+ooesl66XZxGkZ2ZmTpw4EWOeXjsi3WNHgxBCpA2y4mgARDk1m82IXaOXG4ITu1wuLFTl5eXduXPnzJkz4eHh169fj4yMPHv27M2bN1esWPHZZ5/RPcuy7OFDyl8mHmiKgQkaQEajb2XA7XabTCbj/oiLWBFnWv5WhlF6fsAT46ygZJxOJwfNowZwu91Op9NisSASjkyPDJOWU/BQxoEO5EgOs44eiQcr0tPTOapJk/mezSCobCHE/fv3W7ZsiSKRqPmXFL3MGgUMUUb7IbAIAtPIfyEx1Cs0y4IhXBhmkKy8wsLCnn/+eT31tGTJEs1XsooEgt1ur1u3bvPmzbt169a5c+eqVauGhIQwvz179qymqac5Y8jNzV28eLFmznK9NBEKmhgcHBwREYGvzGZzZGRkTEzM999/HxUVdfv2bQo47FGJkH2jZ7hAAPDW6XTK8qCQLoioxWKBxMuYahg4suApYPKjWiyWSpUq1axZEy4r2CsKdilmXbBjFDgOh0OWjerVq6vFwG63O51OfK6mmVLyxzPcv0UpmgAxX/MtOiC6rTHzoQRlDaDJ+czMTLPZbEx88TGD0DoHDx6sVatWx44d+/fvX7ly5fbt23OCW8ktK7cppasTvd4BqSw+gJhiemaQLCQYzOQUNYzBDLaL+i2pd49ZYWsgSY6iG9Ij+iMNeBCkJk2avP/++y+//HLjxo3btGnTp0+fzZs3Hz9+XMETTUcyeoeMqa4FZ1CDGUT9kQhWAOhECrNM0Y9geFFWanrwOQxHzF40cYCG0VZRhOKRzKC8vDy9rNCUmZmZxHxFJvIjuGqQFU29jFmRnZ2NrBS2qVwWNJLJZJJVk7poGjvUWs6DGSR7yeLi4vz9/WVx0YSZwSM53nUhBMe77vW9QVBVdrt9wYIFS5Ys2blzp5+fHyp79OjRSZMmhYSE4CzMqmfRTBIAACAASURBVFWrqlSpsmrVKsQ9XbFixZgxYyj0tM1m27p168qVKw8dOoR5SZUqVahzhoaG/ud//idcKRcuXJg8efKMGTPkYxo7d+5csWLFDz/8IISAYQEaNm/ePHbsWIpjf/78+ejo6J07d44ZMwYxLD/77DM/P7/ly5ejIitXrhw9ejSC1dP+R822+wWJ8+fPx5zeWL9zPLfMYBpMjytzXYlDGHA2btzYokWLZs2a7dmzhxgVFha2ePHiyMjIa9eu3bp1CxK7aNGiCRMmoKHz8vKOHTsWExOzfPnyqVOnPnr0CN8eOHBg0qRJ4eHhAQEBq1evFkIkJCQsWLBg8uTJYWFhchhdKksNQDGp0xUpnKVGqAbFh+pHjoM6NzeXY0MUh0UxCO3Nmzeff/75nTt3or7Jyclly5ZdsWKFEOKHH36YM2fO+PHjcew/Kyvr2LFjkZGRwcHBmzdvFkLs3Llz/PjxN27cEEJcu3YtOjr66NGj8+fPp2sCHA7HkiVLRo8eLYuNmrFFmcJfFOM0N8Ybj/RzlpXhNPKYlWLsQCO63e7XXnvt22+/xefXrl27dOkS4LVr144dO5YU4MmTJ69du7Zp06ZPPvkEfRaT/BkzZkycOBH71RTaTHM+o6aTE1qVqb6Y691PnflqJiCFIzkwEPVyoHSO5DBNBU07uGAxxeLi4lq1akXE6QHMHawelxjz8vI0T96qyy2k0Kptnvy2b9/evn37ChUqCCHWrl1brly5L7/8ctCgQfXq1cvvKjNmzChbtuyCBQuSkpLefffdDh06bN68uUqVKjNnzhRCtGnTZuDAgdu2batateqcOXOEEFWrViX9mD+P+etf/3r8ya9UqVLr1q2bNm3a66+/npiYiIADffv2nTNnzssvv3z9+vWFCxfCBu3Xr1+DBg127tzZtGlTXHc2aNCg2rVrL1y4cNSoUa+88sqDBw+Cg4MrVKgQHByclpbWpk2b9u3bb9mypWbNmmqvg5qZBU0JCQlRh1ZVr81BcyFd8y/MRIU3RZMYpoDZbDbO8M/BwZy+efPmu3fv3rhxY8uWLUHYli1bSpYs+emnn86YMeO5555DsIiGDRv269dvw4YNFStW3LhxoxCidu3aAQEBy5cvb9u2be3atYUQBw8e/Oc//7lq1app06aVLVsWA2Tp0qWHDx/++eefly9fHh9qVl9OLNBJMYVml/PhM59zU7bb7ebMXlasWEHLTwpiivixT58+igkexPX7778vV67crFmz1qxZU7JkSZinlStX7ty589KlS6tUqeLv779gwYI+ffpUqVIlXxGPGTPmueeemz179syZM//3f/8XdnDjxo07deq0cePGihUrzpo1q4irplkcTopB8vU6I+ZLGMw8Sg5noPJuMA21Fzw7O/v1118nM6hPnz6IFBsQENC6dett27bVrl179uzZQohWrVo1bdp0yZIlffr0qVChgtVqvXv37muvvTZ9+vSFCxeWK1cODS2zDh4LOUUTttvtasIUmE/l3iADo4R0NX+LtNrHqa6jQYmEDOcNPeoBHMkpjifFOCygk2J6fYxvBhXGFulbt269+uqrONm4c+fOF198UQhx8+ZNzDBiY2NLlChx586d+/fvY2Dbu3fvq6++ioY8c+ZMxYoV7969+/LLL2/duhVjzK1bt5xOZ61atQIDA8+fP3/kyJEPPvigQoUKmZmZd+/eRcdzOBzly5c/dOjQgQMH3n77beT26aefhoeHL1mypHv37o8fP3799dcRiSkxMfEf//hHbGzs8OHDO3ToAOTKlSvv2LHjwYMHderUEUKcPHny5ZdfRi3Cw8MrVqxosVj0pO2XpQcFBXkxJIKeMPwC2jj2DT/bs2fPNmjQAPgVK1ZEE/j7+0OxwqI9dOjQN998U716daBt27YNTsRatWphjTI1NfXFF198+PBhixYtpk6dCrQyZcqsX79eCHH06FGn0ymE+OijjygaF59CA0wvctWgFPkVh/mrV68uJifFmjZtOmHCBNBPo4IQIjEx8eTJkxjYWrZsOXHiRCHEG2+8sXv3biFEYGBgtWrV8FXlypXj4uImT55M3XbgwIG9evU6cuQIZlBCiOPHj7/88ssmk0lm1FOBMzIy8n3PRVw0Uwg5kqNJeUZGxuuvv04un8GDB0+dOvXKlSvE80uXLpUrV87lcrVt23bYsGHIpHTp0mFhYWPHjiUV+sknn7z//vuKIphmEHOLdNEfmGeOyPLij4ID9MiZCPE9Xhxn/O/fDJKVDjEaAJlBBjjALAwz6MKFC5UqVYLZGxERUbZsWSHEjRs3unTp0rlz5wEDBlSoUOGHH364evVqjRo1hBDBwcEtWrQAPYmJiRUqVHj06NGBAwcqVapUo0aNESNGIKv69es3bty4ffv277333tixY1NTU4UQDx486NWr13vvvTdkyJA333wzPDw8f6JM3RJ5zpkzp1evXjdu3ChdunTXrl39/f07duz49ttvf//992PGjKExtW7dulu3br158yao2rdv38svv9ylS5fWrVt36NChQYMG8fHxyNBbf4OCgjDrtRn+UlJSrFarAYrdbjebzcnJyTabzar/s9lsJpMpJSXFZrNZLBYgqrN1OBwJCQnp6ekOh0P9llKsVmtqaqp+af96I4QYPnx4tWrVli1btmjRoldeeQW+vTZt2mzfvh2cbNy48ddff/3ZZ5+98cYbXbp0adOmTcuWLQMCAoQQ77zzzsmTJ4UQ8fHxZcqUiY6OrlWr1r59+/DhO++8s2bNmvxVsKlTp7Zq1WrgwIG1a9eGn8/hcFitVovOz2q1Jicnp6WlGeDg06SkJLPZrJPNj8lWq9VkMqWmphJL9XiSnJxsNpupjdR5Iqv4+Hir1WrW+WEn5qJFi65fvy6Kwa9z5840LsraxuFwjB8/vk2bNkOGDPHz8wsODhZC1KlTB06swMDAXr16YW97zZo1Hzx4MGnSpA8++AAVWrFiRZcuXfJvym7fvj1S4uLiSpYs6cU5wy/mXGZm5ieffJKUlIRdsZaf/6ifWq3WlJQUiAR1GRkAZmpqanp6ut1ul1/JMGQpKSnJYrHI6QrYbrenpaXFx8dDun5O1E9PEPv09HQQZrFYYDllZmbKZtDQoUNnz559+vTpV155pUuXLv7+/h06dKhfv35qamr79u3Xrl2Lo6mVKlU6efLk0KFDq1ev3rFjx/fee69Ro0ZwIwnp92vMIEgU/TW+HY2CUmMrDHxyBhYk0x/sXTPI7XZTdfQATomF4Q3Sowfpesz3sDdIdm7zY4pxWEDeIEnYfgZCIGQCfvZaevD63iAhxOXLlytWrAj5O3HiRPny5YUQtWrVwnGtlJSU1157LTY2NiYmpmbNmkKI9evXwy2E/QTly5ePjY0FjTdu3PD398ddA7Vq1Tpx4oRE+4/gBx98MHDgQCRWrlz53LlzBw8epJWXe/fumUym4ODg3r1737p164033rh7967ZbE5MTHz8+LEQYtCgQZin5nsU6tatu2vXruvXr8MbtG/fvooVK6anp5tMpqSkpISEhF882VLQTI+LFi3q06dPUFDQbMPfjBkz5syZY4jy41LC9OnTgTZL54cVB0IDsjrnuXPnTpkyZcaMGXPnzp2j9Zs9ezaSp02bZkzV9OnTT58+Xa9evTFjxkybNm3WrFmDBg1Co7dp0+aLL74AKypWrLhr167169c3a9bM4XCkpqbCFMg/ydikSZMjR47A3i1fvvzdu3cbNmyInSVCiGrVqu3evXvXrl3lypUzm835m4QGDBgwZMiQiIiIiRMnGtCWb4rNmDFj5syZBjh4RewywMxfxvXYRnPnzp0xY8asWbMM8kEDTZkyZd68eVqM/1daYGDghx9+iKgaJEtPC1i3bh35bEDDp59+eurUqblz59avXx/eoHbt2mFJq06dOnAJz507t3v37gilV7du3cePH0+ePJmuFJk/f3737t23bNnyzjvvIM9bt26VKFGC1MLTqizK/eijj8aNGzd37lzjpoRIzJo1a+bMmZo9EkI4ffr02bNnayIgcc6cOeg7BsUhq8mTJ5PYaCIDbdasWUCbNGkSdk+6XK7SpUuTN2jo0KGzZs0KDQ0tX758YmKiyWR6/PhxUlKSEKJ169b5C9m0WTM8PLxv376YeCQlJcXFxaWnpyta59eYQYrtmHTkQlEEPWLQwTZkStQDnooZZLwoBoODs72hMMwgPUYhXe/atqdpBhkYuSA6Ly/vaZlBZrO5dOnSn3/+eXZ2dv/+/f/+979jk8fixYsdDkdgYOCf//zn48ePR0VFlSpVKjo6+ubNm2XKlMHm6GHDhnXs2DE2NrZNmzZnzpwRQsyaNatBgwY5OTkVKlTYv3+/omN06NBh+PDhubm569ev/9vf/rZq1aqkpKQaNWrs378/OTn57bff3rJly/Lly9977z0hRPXq1fMVgRBi9+7dPXv2FEL07duXrKgqVars3r37zp07pUqVunr16q1bt0qVKrVlyxYhxKeffjp+/HhjKfkFb0NCQjg7PDjmF85qeqSB6XGlGwgN5geYyiuagwgg+Vy4cCG8a/SqTJky+/fvnzZtWv369U0m07fffvvcc8/t3Lnz0aNH5cqVO3LkSH6h06dPn/fknoXq1atj++0PP/xQokSJtLS0yZMnN2jQwGKxHDly5L//+7/37du3fft2LFmeOnWqWrVq7777rsdNBtDjHDTO1g3m/nTa0kfMIZ4QkJubqw6mQW8JWLFixbVr1+jx6QINGzZs3bp1ZGTkgwcPgoKC/vKXv8TExAQGBuavl2VmZh4+fDh/097AgQOzs7MrVaoUGhqa70uYNm0aTByHw1GjRo2kpKR58+a9+uqrMTExdrvdz89vyZIlKSkp5cqV27t3b15e3oABAxQ7kJ5WlfMP+0yaNIkzWeXgeHEwo3uDPPZZ9UicmZn5wgsv0PGUvn37jhgxIicn57XXXsMRhM8++2zMmDFCiGbNmkGFZmdnlylTJiIi4uuvvy5VqtT333/vdDr79++PnQxy6/xKM0jOyqMZBOTfrhkEdVrEksPcG1QczSC1KMviAm5yzKCzZ8+S9Cty+DWPBw4cqFmzZvv27XHQQwhx4sSJ1q1bf/DBB3v27Fm8eHHXrl3j4+NHjBjRsmVLp9N55syZgICA9u3b9+nTBweCVq1a1bJly1atWnXs2PHu3btCiN69e587d05B1cWLF9u1axcQELBx48Yvv/yyZcuWiYmJp0+fbtOmTYsWLbBrYdeuXfnuDexP6tSpU/snv4MHDwohlixZQtEQBw8e/N1338Gj0LJly/T09KioqHbt2uUT0L17d3l3toKGX/woX59okAltkUazqtUczkZxOk9eXh5nqmG32znDPwdn6NCh2LNMY//ixYsDAwOxktWhQ4evv/66efPmuKdk//7977//fseOHXv16nXnzp38LSYDBw7EuuGDBw86dOgQHx+fm5vbrVu3unXrTp48ecKECWiyfv36tW7detq0acePH2/WrBkdXDLgKp0UAz/1MGGDqnlOKbCoOKYq5zZw2QyiIhQAQqsWBzMIWshkMo0aNarRk9/7779/4cIFIcTjx4979erVunXruXPnHj9+vHXr1nv27Bk7duzly5eFEBs2bBg7dqwQIiMjY8iQIfmaasaMGa1atZo+fXqDBg1GjhyJnA8cONC2bduOHTv269cPpx/0mqnI0vlmEKej0fKNMf0cycnOzuYofM2VBKfT2blzZ1ioQoilS5diQ17+Qdr33nuvQ4cO3bp1wxbMTz75BL7YzMzMPn364L6P5cuX+/v7t2/fftSoUSkpKYqpkc8Mosb17Q2KJ5cvMUUNMA/y0LRSnQOlML1BhWEG0YBHYwOl0FBNr+R9XopunJeXh5UOLEUrepf8iO2xqDsUKO5yIG7Ih6hppzNRhWFGzjAnJwf5yIcJKUXO9tfAFFrVOBNsc1OMhfIj3wwiAaMqaxbNuUWa41jSu3g03zt4+PDhzz//HKW/+eabpIKFELTZkGSDVv1JQuQWRyZ0zhwXFWrWS06k8cCYFZBYmdsKGF4xkme5CAXM2a7odrtJPhWfy4/F5KQYtQt6KG1fJTcbNaV84zD1u9zcXIIHDx6Mve1kPdArco95vQPKLGXCMIOISL2vqHcYSxfTDMrIyCBu6JWYnZ1NjNLDQSugdShDopBS0Jok0iSQxH9qOOIDbvRBudj+QjR41wwiGaP81YDPG0Q84egcpjcoNzdXk/lPc1GMJJIqrACeohmkoEQ2L9SvOClyZamvEmCcg4wmwzJVpAjkRAVsXMove8v0BnFEWc9jqSCMzCBFuuLRK2YQcVtuPiooIiLCz88PN2HSgiN9QmgAKF3T/0RvgUz2DVpQYbVQW8toiuLkRxoM5EQFjNtKFYnqR85cUPYGqXOglGJiBoEeBf/xKCfKMFVBAYwePRor15QntRRSaOhVfFjEjwU1g4zJY5pBTG9QgcwgTcKIybgJUBNHVozq/qhoNfhK1WjqnH0nxcATpsPei8upfDOIrF65+XxmkMyNAsByV5FVpAxTdpqJclckTBr2kCJ/KMMyPsEyggwTQmEAv28zCBzDjaUK7sEwcrvdp0+fxs1Jbrdb01qSP1SbetRSskTRxib5WzVcbM0g8nipaaaU4mYGyQ1BRBIgtw4lKoCHDx9iu66cTtnq9XcZuWhgphnEjLhXfMwgtBG1FDP0GHOS4DODIJyciRD5EY3l+TdjBskOYX5oVY5gZWdnywpCj18yAXo4hXR9ol5x1M0UCJrVKTxkRen0qEkGvfU6wDSDOCLB3KWrdxOoomrMW6Q5hDGvatWcZyioMlhikzERlU9O0YSZV81yNDjzFmkOu5hO3GJlBmmyt0CJRdzvCkSbApm/N4jT3MzBjNM7cnJyOAY0076RdwUoOIBHfpMhVIhmJnIi5xZpIQSHFcw6enEixA+tyuEbbR2R+aOAaWujIl3xyBFCZmhVPTeVB28QQqtif8ODBw9atWqFIcHgLwUnMsBBMBT0H0VwEPkxKyvracUUU7SE/Fh4lk2BcpZJkmGOjMr4vxIOCgqKioqC39igxREFTG5cNZyZmcmJAqaI76NZaG5urtls5uTmEQdXTWRmZhoHycJGLk1i5ESXyyUHfJVfUUTJ3NxcBETzWCJiiiHMISbl2MQg8xYRhZCOqIfqv9nZ2Rzmo9ti14JMuQzDljWZTAZBpqBPli9fXhy2SP9K+Vd8XsS9T1E68zEzM3Py5MnYiCaLihrOv2iREuVWJph6h3Fzu91uBMikD9UAsqKYYmoEpEAIEVoVI4iMKQfwyrf2DGQVc4Nr164dOHDAWH3Bg2scugsml9lsNg4Ehm6ISY66qxKrwQqPWYEVHgmjKGYyoxQwNs1YLBaPMcWcTqcBV6lSDofDo0ggZLUxGod4mFOcmGJZWVmahLHMIEjMvXv3/P39oW2pwRQA4qUpYqEpOA6iEZCPNLhaNWdlZblcLgpVrc4EHC+CCPNM5fLHRKPQqgpJUDzK+lTxih7zb3VTxEzVbHSIMl7RtwrA6xHmcT+HohT5EdEQs7OzXS6XpjBDd7hcLo7hZTKZ0F3lImQY3TDjyc+4E4Fd9K0mbTCDjJmPIcfhcMgaQN1A0ODp6enG2q34nBT7A3ZbmEFwtJNgaAJku2i+RSInTnh2djaGT4N8YK+bTCZY/3qYGBcxxOjhQFbzY4ag06mtJcgt7tnHkU89HNg36LY0xqvLxaCWnp7uUdFlZWV5nBNCmcDTo+5ilIKwo8aqCb3VY1zb3NxcZoR5cFUdnVTmCaeOEImMjAzj5gaaQUB7lJuTk8OJMC/7aGSCPZhB8ppUfHw8J6YYbn/2qFyY/nyOj7Qwrk/0SL8PARwICQlBaFVjhtCBKQM0/qIYx+PKXBRjLhjRuSED+pnOWw4ahh+DsvCK6Tnn1JEmFcaFcra65+bmynpDL8Pf2aKYXjWLYXq+E3HixImcpRlORyOTwrimnF0QdG+QcVac7Sk4/OjROYc4RcbF4dAZRwNwYooxT3hwTlKjjhzCOOr3l8W11WMdU3I4xHPUl3waWo8kbM7TVL8ezCDZCuGHVtUsSUEcZ1EzLy+Pc3CgiPcGKSryB39kmkF0bxAW/tR/+VfXMLfXMO8NYnZXTlfknIXhE49OpGaUvHJKd8jqoeE0ONkuemjQp16so6w39DqIzwzS40xhp+cvRkyYMEF9X4OiXOZGV/gbFN+qH2G76Ekg7JWsrCxZcjSRsXGbOXx6RCMzyNhgYk4S6KSYJuVIhLtUzR9FCmd8xN0BnG7L0XLM0Koc+0xvC46ijvDAKRLVj1Bfxg30Gz4p5lFGmXstCyOmmLoxfCmaHAgODlZHmFdjwgxSp8spTG8QczrFOWzFVPRMJUjWhlwpBczf383RbvD5K4pQP3KmJcwD89gjpS5CTsnNzZUHM/mVDPvMIJkbRQnDDNK8QEVBBnP45Mgqp3cU9N4gBbWKR46vtJDMIAUl8iPzFmkO8bAIOZ4ejufPu2YQR3IKZAbJPNSEEalQ8xUl6o0dBfAGMWOKkbVLFjERIQPQ4ISjCZCny9gSNDaDjL+VSfLBv4ADfDPIY+ZeN4PQFTVFC4l6vUJBKp2iMpYlmrXolai40k1RivzIdGUx9YgXzSBs26QKyjQTTGYQoakB7A3ihGGhbH2Atzjg3UUxvjfIuPvAJQn3vzEm01PCsSQKagaRJGu2BXmDNN8isejNIPhmjFkKxxLWso0xmd4gPTNIZiCpL+MSOQY0eYMofzVgcEOv980g5tDCFGXOtNLADKJ7XIjRBNArSCelk4+KruEykGn1K8pHcU0IWkWNL6fIRcvphQHLl+fKNBe0rOJsBnkc/n/r3iDSI8atRiuSBmhMbxBnWwaZQQbFCSGKlTfo13QB42oWw7cwg4qnN4ij8JljR2GYQcatyTSDOJznEM/3BukZJXJ1fN4gmRs/g2WhZHqDipUZJIQ4duwYYm9RxWw2G4I9KULYuFwu1DciIuLQoUOED0BWlDKsQEOMoW3btqWlpalfxcXFffPNNzgynZaWlpycrNhMeunSpW+++Ub9oRdTiPjc3Nxdu3ZxlrQMSi/OZhDTV29QO7wqnotieXl5BTKDFHa/otZerONvzgwizqSlpcXFxdEj9RQFr37rjz4ziFqwoN4g+lAT8JlBYAtzeslUXwXyBmm2CyXqGSdP3xtkoGuYe4OMT4qtWLECgb6JF6dOnXrjjTeEEOvWrevfvz+lnzt3rnHjxkKIPXv2hISEULoM7N27V3NwlWvhdDoHDRp0//59+UPAJ0+erFmzphBi8+bNFStWfPfdd1u1avXhhx8i1J8QYtu2bbNmzVJ/yEwhDW6Mf/LkyXv37gkhxo0b9yutrt+0GcTsrrQoZsxVTnflb5HWFDMFAcwpo0evGD9cALOO8vRJQTM9FitvUHx8fN++fZs/+TVo0GDNmjVEJwFyH6dEAtRv1SkKDzF9W8RAcTaDOGdiCsMbZNwEzEkC0wzi7NRhdm06JGFMf7H1BtECiAH9HJ1Di2IG+WBPgiYrnqYZlJOTY7xUxD8p9vXXX+vVPykp6fHjx3h77ty5q1evfvfdd5UrVxZCBAYGBgQE0IenTp36xz/+YbVaXS5XQkICfXLs2DGERz169GizZs0ogubly5e/+eYbOJaEEA8fPkxMTAwLC0OJOIhhtVqPHDly8uRJGCinT5+uVatWfs4zZsxo0qRJRkZGbGzsV199VbZs2Y8//hghOePi4lB0VFTUnj17EJoeKUlJSd9++21qampSUpL5yS8xMTE1NfXw4cO3bt0CjhDi9u3bhw8fvnHjhpxy9OhR4KSmprZs2XLevHk2m+3x48epqalAu3jx4unTp+mTtLS0Q4cOHT161HgQLc5mkDHlGJM0ewUxAcAfxAzyyC444T2a2r85b5DVavXz8xs5cmRSUlJmZubevXv/9Kc/bdiwAXrzzJkzhw4dggbIysq6d++eyWQ6ceIE7om4c+fOoUOHELkzPj4+PT39zp07+/fvl53BkZGR33777YMHDxRy9bQemWYQc5JQGHuDjDnjRTMoLCwMgeiNS/SuGcTROV40g/jtqFia0OTJr9wbJOfJr6PmjELOim8GadqgT9MM8mgJMs0g4wjzI0eOHDBggBBi4MCBlStXHjx4cLdu3erVqyeECAkJ6dKlC3EzMjLy1VdfFUIsWrSod+/eQohevXq99957PXv2rF69+okTJwYPHlyyZMkBAwY4nc7p06dXr159wIABb7/9Noywrl27tm3btmHDhidOnHjnnXcePnx47dq1ChUq9OjRo0WLFu3atRNCnDt3DmbQrFmzkILSr1y58h//8R/x8fHr1q3r1KlT/sra+PHjq1WrNnDgwIoVK8JXdPbs2TJlynTt2nXUqFE1a9YMDw8PDQ2tV6/e8OHDO3ToULJkSdhny5cvr1SpUv/+/StVqrR06VIhxNq1axs3bjxw4MAaNWosXLhw+/btf//73+vXr3/q1KkuXbps3LhRCPHJJ5+0atWqbdu2LVu2tNvtDx8+rFOnTufOnVu3bv3uu+9S5HPiFQHF1gyyWq0ex3WmgmAqQc6shX9SzCPx2NXo8ZwI6mg83+DfVvC73Bs0efLkatWqkUgLIS5dunT//n2LxdK8efO2bdt26tSpZs2aSUlJQogWLVr07du3a9eulStXnjp16vDhw6tXr/7BBx/k83DKlCk1atQYPHhwy5Yty5YtiwnMqFGjateu3bdv3woVKuzfv784OISYZhCsXpktmrDPDCK2cLxBTJ3DNxE8agB+Oxa9GcQk3otmkKYNWgAz6NfcGwQtTH+Z00oECiEh0wOMzaBBgwYNGTLk8ePHf/nLX7BQFRgY+NprrwkhPvvss7Jlyw4dOrRfv34DBw5s27ZtxYoVhRDz5s3r3bt3TEzMCy+8KRfr4AAAIABJREFUAMk4dOhQaGhoVFQUjJiLFy/+9a9/jY+PF0J8+eWXb731lhCiadOmffr0EUKYTKY33njj3r173333HU01SpQocfTo0ejo6Nq1awshZs+e3aZNG7lGb7/99oEDB9auXQvzaPbs2fAzffrpp1WrVhVCNG/efNKkSUKIGzdu/M///E9ERER4ePizzz6L4zb9+vXr2bNnZmbmCy+8cOrUqXx6QkNDS5QokZCQUKlSpeXLlwshUlJSNm/enJOTU6tWLayFNWvWbNeuXV999VX58uVBTKdOnfbv39+7d+9+/fohpXr16tOmTZNJlWH+vUEYAEgGFAB/JNZb35WpguRA4qkgBQIeOdYGLkQGPuWmBjj3BhXUDFKXQimyGUSJmgDsM81XSOTfG4RbXzU5SYm/OW9Qs2bNxo4dSwYK6dzo6GiS/MaNG0+ZMkUI8cYbb6xatQozh9KlS+cDTqezXLlySUlJkyZNevnll8GH1q1b56uUS5culSxZEp6h1atXly1blrPWSZwsJEA2gwykgj9gcyrFuTJDsVlTkzaMHZhCayKQSMtOIxlT5irTGyRrAPlzBUzXJ8rFKWB1cGVFJnhk7pvhX5mhIEPxKJ8U06SHEpkTIU1rgzIBQDHFFMTIjyBM8aHmo9VqpZ6riQDn7q/1BsXFxfn7+3NK0hxaFB8yfWvwNuvVCunGe4OGDx8+YcKEAwcOwJgQQpw5c6ZcuXJCiFWrVvn5+a1atWrhwoWrVq0aOXIkrIGQkJDu3bsLITp06ODn5zdmzJhLly4JIS5cuFC9enXs4GnYsCFKT0pKyve+PHr0yN/fH/rRarVWrlz59u3bQoiVK1f26NFjyJAh5cuXhxkEQ2r27Nlt27aV61W1atUjR45s2LABZlBMTMyIESNgnLVs2TInJ+ftt98ODw/HJ5UrVz516lRoaGiDBg2QMmfOnK5du545c+att97CskVOTk6FChXCw8O//PLLkiVL9uzZc8uWLUCuUqXKvn37hBAtW7bcu3fvyJEje/bsKRNTs2ZNIOQPkJMnT37//ffltzI8f/58zi3SEAnIt/y5DDMPKzEtCY43CMO/TIMmzLwn14veII+3SKM3edSVQJPNQc0K8m1QtRJRt6nb7f5t7Q1q06bNuHHj1GaQEGLv3r19+vQZPny4n58foi7UqFEDAh8UFNStWzfo1po1a96/f3/ChAnt27cHh5cvX96lS5dPP/2UuvmDBw9Kliz5/fff6zVBkaXDDFI3pZoATU2uQGP2Do4ZpL5FWjFqoGjO2IHh0+OCw9mzZxctWqSokfqRaQaRN0iTbGTLnMXJNpyaHkrhM5/Em75VANnZ2QZef0LmtCPzUgCPxIONHCHkh1bVzM2DN8hiseT3GajRu3fvtmzZEo8u/V9GRobNZpODK2niOhwOhL7TfOtyufLv+MrMzExLS0NwMT00IcSpU6d2795N7aQAYAYdPnzYz88Pr06dOlW2bFksinXu3Jnwr1y5UqpUKaR/+OGHSA8NDZ0+ffoLL7ywbdu2GzduYIPzjh076tevDwS4W+Lj49u1a7du3TohhNlsrlKlSkJCwtChQ5s3b37r1q2HDx/6+fkdO3bsypUrZAbJi2K3b9/+85//bLFYVq1a1b17d5vNVq5cuTVr1qSlpS1evLhJkyZ5eXmVK1cOCwtDoRUqVDhy5EhoaGizZs2QMn369J49e4aHh7/11lvwNGZlZZUpU+bYsWPYt7R27dratWujXrVq1fr222/h4d+zZ09gYKBsBrlcrjp16hBLJ0yY0KFDB5Si/ksxxfQaCOl2ux1taoCWkZEBqQCOnqQBDZGM9HLLyspKS0vDDYp6OEj3iIOYXA6Hg2QSkqn+a7fbEaDUoMSMjAywwgAnOzvbZDJ5JMzlcjkcDqfTaZAVaP6VzEdDIBgZigOMzBHXTG4sp9OZmppqHOlMCLFs2bJiElp15syZNKuBhEdFRd25c2fdunWVKlUKDQ1NS0t7//33Z8+eLYSoW7cuDlfOnTv3o48+wsnQOnXqxMXFTZw4kXrKkiVLunXrtnbtWtp9eP/+/WJlBmH2bCA8mZmZDofDuKMhDqBHIcRhbIOyECrV4XCkpaVhOmSALGsJPTR0WxAvC6eMj7Fj4cKF8DDJr2QYobsQTU9OV8DZ2dmpqalghV6J6DJQJprBB4FAXdt47KMGUlCieMTd3IpExSMaCBE8Fa/kRwQLMx64s7KyMjMzob5IUciZAGbqVZfLBfVlzAoofLBUXRaVCI6pETyYQTabjWZ7WBSTHVaaMJ2FoXt31GhMxyZCbXtcTMl3gXz11VfqERopQ4YMGTZsWGpq6nPPPXf16tX8O5SmTp1asmRJIURwcLC8MnXixIkSJUpg63SPHj0iIyMXLFiATD7++OMuXbrExMS8+eabQojo6OhXXnkFE7uNGzfCsmnevPmKFSuwKFaxYsX4+PhmzZphd050dPRzzz0HbxD8STNmzIB+dDgcFy5cwBYikNSjR487d+6UKVOGioYfq0WLFnDdnz9//i9/+cupU6fOnTtXs2ZNzHgmT57cs2fPvLy811577fDhw/n6+ujRo6VLl7569eqcOXOwreH8+fOvv/66w+GoUaPGrl278qPSNmnSZPv27WFhYW+99RaM3Xbt2m3btm3EiBFQ8UKI6tWrBwUF6bE3ODj48uXLxm0kb09RCwNS4JDAjRpIgfyo8TG+0uRGjYA5hM1mk70gmmiYmWm+okR4jGRvFr1SALhhWZGI+5moL2CeRFXLffJTfIJbQz0Sj04Ek1eRg+KRsyiGaI7UjkQhQgRShghnTY9qAHeU0SV4mhVEAxWfCPPJycmlSpWaO3cu3KgXL158/vnnv/7668mTJ2OaZLVay5QpM336dCFE1apV4ZSl7X0ZGRkNGjRITk6eNWtWhQoV0FMCAgLGjh17/fr1MmXKPHr0CPckVa5cmbMZQq+veSs9f5CeOHEipv6yfMqtmZubS8s3aC/5LcEQwl/TO+SssrKy6KQYpSsAPbEn5gBf9gYpcqBHbNbEvgVKVANMDYBu67E/qq8X1iyRVrvUbylFCJEfJRcrkpSoBsAxdbqcAhw4ceV0BYwS3W63Il2WIugQ7BBA99f8C6e+R+Jx96OsjtRFQz4tFosmYYQP1SQPMfTKsxlE4sW/N4h6BX2rBjiOTa9skR47duyQIUPyd5KPGjXKz8+vX79+vXr1at68Oeaj5PVBtGFYOYsXL/7444+Tk5MDAgI6duw4YMCAhg0bXrx40el01q9fPyAgIDExccmSJQ0bNhwyZEiTJk2OHj0qhGjVqtXKlSthBtWsWfPhw4dffvmln59fz549Z8+ePXz48ICAgPXr18MJtHr16vLly3fq1Mnf379atWqjRo2CNbNw4UI4Zj744IN27dr17dt3xYoVtWvXXrly5ffff9+4ceNevXoFBgb6+fmdOHEiMjKycePGGC/nzJmD3TybNm2qX7/+4MGDmzRpglWwCRMmNG7ceOjQoe+88w4Mu5EjR5YpU2bPnj09evTYtGkTmNO8efP33nuvTZs2drv98ePH/v7+PXr06NixY/fu3Q38597dIo26QFog3GrJYV42zbmImbn74VdukZYroi5RfkuV5RAPRc8ZVjmrdYoVSZkqGWbuDJAHM6qUAli+fHnxuUU6LCysbt26jRo1atu2beXKlefPn5/foyMiIurUqdOjR48xY8bMmzevdu3a+/fv9/f3P3PmjOxLdjgczZs3T0pKCgwMrFmz5pQpUzp37py/LRpHPmfOnNmkSZOPP/64Xr16J06cUDDhqTzCDKJL/OT2lelhrj57d4s0ZzmVuWDE2WXM3BvE1AC0KCazUQEzF8U4xMsWoaIUxaOsVxWv6JF5faKeBlBIkTyLoyIUgMc1feBz1Bf/pJgmKwrFDNIsScGCIjOD0tPT6fDqrSe/jIyMxMREGO9wk4A2SrdarcnJyUi8evXqhQsXaIuS1Wq9du0aTJb79+9HRkaaTCZgJiYmAs3tdickJMAWfPDgQWRkJPDv3r37+PHj2NhY+Dzj4+Pv378fGxtLYwYWOEGS2+2+cuVKbGysECItLe3BgwcxMTGhoaGwSGrUqHHhwgUhBNFvNpuJ5oSEhIiICLomAItiYWFhdGQ3Ly/vxo0bjx8/NpvNdDrg1q1b2AKF6uTk5Fy8eJGWLRRSDhy4r/h7g+grTYBp3zD1CMeSUBslmoQxlSA5XTQzQSLNsA1wcG8Cc9sp3wzSa0FQojCD9MjTU4Iyvtvtpv4ipyvg4nNvEDiTm5t748aNS5cukboQQqSmpl64cAE9NDY2NikpKTExEXdhmEwm9LicnBz001GjRvXo0SMzM/P48eOyDrx3796FCxdw5F7BhKfymL+oMWnSJIO5DVEl14ISFYAXzSD13iBFWXj0mUHEFs69QQUNpkGZawIcDcBU0UVvBump39+5GUR3nBBATUujAgB6JAQ1YIBD+ROg/txjCuVPAC39CCFWr15drly5JUuWvPPOO7ITS8ZRF6GmR84c+OoURT4GCCEhIVgUU3yieIRRqEhUPOrJqAKN2cd8ZhD4BlMP7l8FJ+XHP7gZxOkmMrvU+EKIvn37Nm3alNDkeDVyIsFPC8jIyJg0aRLHxOHg+Mwgasfi6Q3Ky8vLyMgw0OGg/1d6g4gJBrcUyjhYauTP4hTfqh85oVX1hpjfiRlEx5rU3NFL8SgW9KEBJl55HGMoKwIM8jQway5evDh//nxc7GaARqUAx7gsGfkXwMHBwbIPSS8HphnEmaH6zCBiMm0goBQ1wDeDOMznzAWZ3qClS5fKN3yqKS8OKQXqO+fPn8eJBFD+C9RC0VQ5fx/uhAkTmM3tkSSfGUQs8plBYAVTRRe9Nyg3N5fWgqnVhBC/BzPo9OnT69evZ5oFcuV/Q7BaHWvOR4uyRiApMDDw+vXrHsv1mUFgkd50RMFAjiuLuTeIbwZxpv5eNIPWrFlTfPYGKfj/Cx6pP2IF/BfkUGSf5DfitGnTiGCDcjki4TODiIE+MwisKM5mkKb1/3swgx4/foxDHCSOPqCwOQAbyOVyTZ06laP3fWYQWqTYmkFMwrxoBh06dAi3enLG48KW5z9I/ui2586dmzNnDqfKPjMIXGLuDvSZQWCXzwwSTBZ4cYu0EGLx4sV0zw2ne/twfg0HaNxasWLFl19+ycnKZwaBS0xrw7veIBxeVTsU5YZjEuZFM8jlclEEYmPaZDp98C/mADF5zJgxHA8uDiJ5LM7nDSIW+cwgsIJpAzyVRbHfrTcI99mPGzdu27ZtJJE+oLA5sGTJEhy/96I3iDP7ZPYxjiXhOylGQlL0ZpAQ4t69e/3794+MjCQyfEChciD/fr9PPvnk4MGDuKbLuCxm7/CZQcTGojeDmLsDNcd+IhvAH2GLtN711r+HRTGa5axZs2bSpElLly794osvNj75ffHkt3Hjxk2bNm3evHmD4e+LL77Ae3xl/Hfjxo2KUozxNd9u2LDhiy++2LJlC73dsGHDtm3bvv322x07dqxfv15Ol4vDh/QWwIYNG/AJaAO+ukb4VsYBrygFuWkmfvHFF5s3b54/f/748eN37NiB/sPZ7c/0BhXIDKJ2V/RnPOIaU81XlMhU9EyXeNEfmGdeLsJhftGfFANVKSkpc+fOnTJlypo1azZt2qQQaciwQvIVnZjeKtLVj+rMNVMUHUEThzqRXIomJhIVHRZfya8UCIqs0BkJR/5cgUkck9M3bty4YcOGOXPmTJ8+/fz58/LVgtQXNAH0R+OOVqDeoVkKJf7WD8xTTDGqkRpgzuKYXZvvUFFTokj5I5hBepM9D2YQXSojhIiPj6eL4RUclB/pFmk5UQ3n5OQY9y5seebcpoWrLVGExWK5cuXK1atXrzz5RT/5XblyJSYm5tKlS1FRUTExMVd1fvgkIiIiOjoasN7fy5cvR0RE4O3Vq1dRiuLvlStXzp07FxERoYcQHR19/fr106dPjxw58vr161euXImOjn7w4MHNmzeHDRu2dOnS27dvE/1RUVGRkZExMTEoVFEWoV26dCkyMlKuH7KV8a9cuRIZGXn58mWiX8YHfOXKlcuXL587d45KJFZcvnw5JiaG7BXOdITpXWdKDtN2QUQXteApUpgmAucWH+aCEadEjisLE3qOK45DvNvt5qBxrjLLzc2Vr8JSMJwes5/88BgbG3vp0iWSMRmIjIyMjo4msZQlmcQ+JiYmKiqK022joqJIOcilEHz16tUzZ85cvHjRGC06OvrChQv0FYpW9CPonIsXL0IjyW/RK1FEdHR0ZGSkGkfGJ/VFn2hW9urVq5GRkepuC0YhyiEYzrx6h2PZe4wMhRJJY5AAqIGcnByOwmeaCDk5ObR8ry4LKeHh4UuWLNF7S+lMU4/jDWKqL2YDMc0gjs7Jzs6Wh3uquwLgEMY39ThTaI7kMGOK6Q0xHswgtCtUbWxsbEBAgNvTLycnB53HABFsys7OxlX9mpi5T364DEATAYm49B1xDDhDgqJRn/qj2+1evXo1keFwOPr27fvqq6/iHltKL4YAJBhRY9AKes0EVyTCEyKqsCYmomQYiITb7c7NzUXYh7y8PINCcf849sRoloWsIIcG+QCNSRgFmqASkTOqDI0M4o1LJOIN0JAnIjFRcXoACDPgPGwgBE3UywT32WdmZhrnk5eXl52dbbVaDYhHEfn766lBi6F4/y5JysvLg3GAa/eM+xrCPkAPG0gFeodxc+MGP71MkA77wGKxgEgDZAihMfGcIUYIcfbsWZhBBsVBpLGZ1RjNYrHASjDoIx7HRzgImHoVcwlj5uOUONSvHv1Q0TCD9HDQW8F8BKYAJiSEqox2oRFZLzcKpuGReEwvjdHy8vIQTMMADWOHppbzYAZZLBbEIRNC/PDDD/7+/uqwZIoUBNuDjx1tqf6LYLaIh6J+ixQ0sMfQqoi4htmzXlZYvaawauqgmJSC+52Rj2boO7zKzMyEswEqQMEBfOh2u81mM0WZVeOgdZOTkxcuXEjmM9YFRo0aNWHCBPiuQbzT6UTUcZSoWdPs7GyE9gTr8FeNKTNfpgoF0beIa4t2lNFkODs72+l0ZmRkGFCFbD0GJnS5XBkZGU6nU02wIgXtaFAijANEJ0WIX5lmgpEtuKooQn5EYMWMjAxjkYZLGaOL/DlFBITbjIIOEhlqIDs7Oz09HSKtfkspCHOYfxUeFUGvFIBH5mdlZXGYjzULg7CRkPyMjIz09HQDzgMNASaN0RBYESKk4KriEXU0kAr0DuPmRvOB+cZchZZDFElwW0GPotsq3tInIFiOQ6nApEeIvdwf6RUBOTk5TqczLS3NmKuQHHQT+lYNQBnqqRHgU+8wZhd0joFGJS3BIR6hVWFPqMkmwqCaDLptflDF06dPc0KrorkNpAv0p6WleeyPaEeP7HI++Rmjodt6LJFUk0ItyI8IdGo2m3GVvwFXifkKHBJptIvHyNAkOcZcBWGKstSP2dnZaWlpxgKG3qo5xHgwg2QvWXx8vL+/v8dJEjMSDVxBHnPj+EhhLnjMCuawRzTO0gZzlYezPcVkMsleWXgvR4wYMWnSJJlUZqAJTKTkDzVhWMSaryiReQke0yXO8crq7V8jkgAwBcxut3M8rhzCmAtG4KrxUq+eV1ZRR4fDwSEe8zPFt+pHTlZkiKs/l1M47OIvinEI45TI1AC5ubmchT+m5HC2nWKKLDNQE+ZQxdQAbrdbVtqaxeECX48LRkyuMtdlOEsbfOI5jn/Oolh+mGpZ/eqxizl22O12L3KVmRWHFZxOxF8U80gYU0UzewdHcpiLYvBKqlvZgxkkWyFxcXEcM4ivTz22HzO0KnO1lbm+ixUENafkFBqwjcc8u93usQlNJhNCHMvXPw4ZMgRmEOUPE1umQRNmKnqOqQdvlmYpciImiyCeqJURAHP6IcVeVn8up5CAGRTHDMvlXckBV/Oe/GSCASNdb4+eAp+5N4g5AjGZ71FWYf17VIJMAxoTaEXF1Y+c7SkYsPU4T3kyLQkO8/X0KZUFgN9AxsKMfWCcBnK73bLSVtBDj5wdHmhuj1wtUDsSAZpA0W+R9u7eoKLfIs2JKcactPO3SFMgd3UjQlpIRasR5BRm7+DsR+SHVtWcvcAMypOJ+3FI+/ez3KN8ZtC/ufLj3UjgprHyKqgZRPmTGUQpRW8G5eTkcAJkMkWZORJryigxAQD1MY/M9zjJ9roZpEmSPJAQ8YpKKR45IzHm9B7nEnwTgTPKMg1ojuQUaPjUZKzMNAiYMdofwQxi7jL2mUEQHu+aQZwt0kwNwNwGzjGDmFqObwZpToRkLccskTl2FJkZ9C99kpf7k2LJffJgs9kpyWcGESsKyQwi8Ro1atSsWbNQHBL5ZhDH4PDiYMYUZQ5VTE8J6RHjMY9jSTC7K9OPqNddZTqZi2Ic4mHfcNaVOA4VbKEgCdcDvCg5PjOImMxZpGZqAK+bQbKXmgiWgQK1o/yhGv6te4OKpxnkdW8QjVNyC8pajqlXmWOHnl6VS+d7gzQne89kuH7MLTk5z/UE+PFgfEI2CsjLEzabgwrzmUHEikIyg4QQW7dunT17du3atRs2bDhz5syzZ8+iUKYSZFoSnMEsNzeXM6enRTFijibANIM4aGQGaRZEiRxLgtldC2QGyeqAiCHA62YQxxuk2fOJJADF2QxSkKr5CMkxZn6x9QYxG4iJJrvwNXkFA9qj5DB7h88MIiYXWzOIo1d/pTeImAC7mVNi0ZtBeuPjMwmJYveemMWLDy5dti8jQ2zeFLF8xanlnx7AupjPDJJbl+DCM4P27Nkzfvz4FStWLF26dMKECWFhYSi0OJtBHIcEp1foySixHYDPDCKGMJc2OMz3mUHEVaYBzVnA5St6Kl0PYGqAwvAG6ZGEdJ8ZRPzxmUFgBdOA5vcO4+kNCsXdOtQWmoDeEPOM0yW6dAv5MR5Fpvjmm4QPP1xy7pwYMfLzG7dSf9x9bfd5gzT4WUhmkKazEZM2phLUa2ZFHbzrDfKiGcQZWnxmELWmd80gDvM5kuP1LdJUXwMApp6xuvR5g4iBTMnh+J98ZhBx1WcGgRXF1gzCFUrUXgT8uEV62MjPQs9aFi4+ePxEyuTJe/fuTVq95uyjxJwf19vsDtou7VsUI64VkhlE+asBnxlEPPGZQcQK5j5KpjeIM+b5zCAw37snxTicZ2oAnzeoQL3jj7BFGmugxBY9wLuLYhyRLnpvEA3cCib8aAYlp4rde6KuXU8RQiQmir17LkVHJ+G8mM8bpOAXHombxrPPX3xSTF0oUwn6vEHEOubSBqe7Ftu9QUw9wjGDvCg5Pm8QCSGzgZhCyETz1t4g/tZaj0cy6ew9cUYT8G2RJrYwZzick2I+M4i4SgM3pQB4xu0md48QbvdPr91C5AqH9Q93Ugx3/P/EBy2IuOkzg5iKnjkSc9ZlfN4gEkmmrmQynzPKFmdvkHxkl1gkA75FMeKGb1EMrPB5g2SR4Fy8ydEAxXlRTHOIeebHO4J+9i/vx8fcfyU6pAPzjx49atWqFXHNAOBMDnAFk0EmeMVpGFyg4jErRBvxiMY5vMq0r3Fzv3GJZrOZc40p4toYZ4W3HOZzcIQQnGklQsZ4JIxZImfAZja3w+HweBaGmRVTcph15GylcjqdHOKZnYhTIvPiV04d8/LyOJLDvEOWUyJuF/QohMw71h0Oh+YuPUX+HKuRec03p47Mm1Hz8vIcjp82dCpopkdOZGtm7/BiO7rdbi8Sz+kdFy5cWLp0KbFFD2BqAIfDYTwxRv6c5uYQjwbiyCpHA+Tk5DCZr8clOZ1Tohd7B3O00hu4pVuk/2UMPTGDAAtheRIVC7bInTt3WrVqZX/yc+j8nE6n1Wo1mUwOhwOYCnx6NJlMFovF4XDYDH+pqamKrORs7XY7CEEAKcUr+dHhcGgSJuMgt/T0dJvNZlyozWYzmUyI86XIAY/4PC0tzWw2G2SVmZmZkJCwYMEChJrSzApUWZ78DLLCtxaLxbhEoJlMJqvVapybzWbjMN9qtaId9YhHukeq0EDp6eloUL3cIDDEfL0qOJ3O9PR0s9msl4/dbrfZbHa73QAHlDidTvOTn0FWaCMIIUjS6R8/SrtBiSjC6XSmpqaijgaFOhwOEKbHBPqWyXyz2ex0OukrNeBwONA71K8oBe2YlJTEycojYXa7nZQJ9IRV62ez2RAIzGazab3/Mc1ut1PvMEAD8y0WCyRETzlBmZAUUfUVgNxAkDcZgVJMJhPBMgJgvLJarcaSA61lsVhSUlKMRQLt6LGOCi2nyQqHw2F68tN8S4noaFarlVLUAHBSU1MhOWoEpNjt9vT0dI9jByTHYrEYyKEQ4uTJkwsWLMCl82rOUwq6rcxVdQd3Op3JycmcsYOj5cxms7FedTgcUE3GaFBNiG5J1VEDaMe0tDQDdpGWM64juMQckUG8mpmkeyGrIFgPDawA89VVoxTF2EHpdrtdMoNkW+7fsNViRcg0IcT9+/dbtWqFqGYUgFMNuFwup9OpiJdGaBSATS9CG0VNwycmk8k4vBzQEKZRjhWngCmwonFu2CaGoIOKHOgREdoQ9UlRTZn4nJwcRWhVddG5ublyaFUqQgEgFCJiwileyY9ygEw5XQEjWF1mZqaaHsJEaMb09HQDHIqjyYntxyTemKs4k+IxtCqWiuTQqvgQ4c8UfxE7RS8MMuYrYAvFLlbkgNkwziAgjJFebrg0SC/2MnYgIdae3W7PyMgwCAqNOrpcLgR8VpNEKQhhqCYJxREasoK/hBJlADmga4MweotHcAlCiNCqYDv1fRnA1BPEy+lqmGKm6vU1dDpoAOqAaoBCOSJCnBoBKbg8Xa3BZHxQ4nQ6qcnUZGOxOCMjAwKmiQAcxEPVQ0BZ6I+I72uACa6aTCbUUQ8TJULL6eGgXPizUU2ZA4AhhAgmZOmPAAAgAElEQVQCatw6iFdlHPkSDWQymfSKo0LR1pw6oh316ogI8x5Dq1JITrmO6jxzcnJMJpNxvHCoU2xblHNT8JYTshrC43A4+JGtFaXIjygRQdrldAUsh+VWvKJHyKpxDGNohownPzUnFSnYYmugTMAKk8nkUcDgbgDnabBzuVwezCB5TYq5KMb0rjO9sjIB/7bNNP7nLKbk5uZyPHUcj6Web01BGWdRzGKxcBbFmNE9mZ7z7Oxsj65UZkA3pkuc00DeXfjjxLVlLqYwXeIcyWGuy2RkZHhsIFxTphA5zUeO2DNZwWlH5mEl77rEOXXMy8vjLDVyIkMx2cWsI5N4Dpp315U4JXqxdzBDqzLHDpjpmj2CEpmLYl4MrcocH5nb/jh15C9uenFRjKMMmb2Do3OYi2J6Q4wHM0he4+cfmNfchUSSB4CzR48TqjrvyY+zTo9JhoIM9SNnCxjt0jVeCeacFKO9QcZZ8U+KcZiv2AYuF02w2+22Wq1q/ihSYKQrEtWPmZmZlLP6LVKYO1iZzDebzch2y5Yt8+bNW/jkt+Dnv4ULF4aEhPw8TeMpODg4JCRk4cKFGu8WLJg/fz7SOVnNnz8/ODh4vtaPMl+4cGFQUBBy00L8MY1KDA4Opg81gfnz5wcFBRHxcoYyPtIXPKmOjCPDYFdISIicOH/+fDAnKCgoKioKxhkxH91T/ReqmTPKQgkiBz3JoWmJsYwxBcxms3lU4t7dBMpR9EziKU64mueUAnZ5tAhpwDZmPubuBk2DV5yQCHRSzLgds7KyOJOErKwsCJhBbswI88zLRa1Wq0eRJvWl5phMJxGvRkMKkPnM9zhrYh6Y5zDfu72DM3YgmIZHkdY7D1tgM8i4SwjxU9hRvfZDOnGTOqca8K4ZBFeYMVU42OmRmyTKsuCqcyYzSF01YqPJZGJ6gzimnl4zK2iDDUo0KN7ikW8Geez5zOOy3o0wL4SIi4sbPnz4559/Hhsbi4VhxcYR7DZQJGIHA/Y8WZ78gADY4K/8ifyhnD92pRhkQh96xOEjqAnT/JaDpomDzSsRERHTp09fs2YNdlp4VLtwZQtPP46J4F0zyG63exRp7yp6Th2ZZlBWVpY8d9XjLsfZQGaQXiZI54/ExtoSDjaO+5/GDmPCyJIwKLegZpCxzuSYQXl5eRkZGQaUg1qOmwB61aOsCiE4c2MseHnstmC+3ohG6Rit6FEN8CdCTDPIarXCvaQuCynix6Pwbs1htMBmkEc20WFyg5aG2oJFbyCjT8UMwlq+MfEFNYMMciNvkAEOFIRm+ym+0mtmBRq8QSQcird49K4ZxBFl75pBaWlpvXr1un37tmbtfImFxIHFixevXbuWk7nPDCIu+cwgsIK8QcQZTeApmkHGw98fxwzS4wOZIMajFQZ9pgbgjB0/Rrx4YgYZmBNeNoM0RZMSC2oG0YdqgLM9BXw3ZjpyZnqDfGYQ2PVbN4NWr169Z88euCfVouVLKTwOjB49+s6dO8jfwNRmKkGYCB4XQYDmUQlyDI7ftDeIFsWM27dA3iBj5heGN8i4HZ+uGWTAWKYZZOybQd2fojfIoIKy/8IAzbu+UqYZhP3dBlT5zKAfmeMzg0hEiq03iGPOclxxubm5Y8eO5ez4I574AG9xYMeOHevXr0duBuNZgcwgg3xQkM8MAh8KwwwyZn5hmEHGovibNoM8ugl8ZpCi9Zlm0G/YG2QwWcQ83uMuXZ83SBaa3/qiGGeyzjGDrFbr3LlzZc4wYWONz8xEE03OWYbJvaxI1MykMBK9Xu6xY8dwCNk45wKZQR4r7kUzyGazedxv4d35Lkfs+XuDONtrCuQNMma+zwwi/nC8Qb8PM8hg4MYrjkhzhBAbm4w1CfhPe4OoOdSA3vj4S/YGqXOXUzw2M5DJojeooW9vEDGWf1KM41D53XuDrFZrUFAQcU8NKHbBy0LoccuajOwxZxkBOeudQiLNYrwGIWf4C2AivvBKOXHixLJlyzzSViAziMjWy9aLZpBvUQxMpi3Sxsz3mUEkk38cM4iqrAnwJwkKPayZ29P3BskTC68fmPeoiH17g0gs/iBmkPGqObjB8QbZbDZjM0gIcfny5UOHDpGKT0lJ+fLLL10u18aNGwcMGECcBwA03I6oeKV4NJlM7dq1O3PmjCJdCHHz5s0PP/wwJSXl4cOHn376aUhIyMqVK0+ePEmYmzZt6tu3Lz0WEkCXoAwbNoxzSrGgZBw/fpzMINh26r/8cyKwb3Jzc6mlNOnxrhmkZ6pS0XxF79GxRMfcKHNNgOkNokUxNc8pBcz3OAKRGWTM/MIwgzy2tcexA1wF8w1yU5wUkzFl2LsH5ov5STFN8aNE8l9Qihrwbu8okBmkJkZO0fUGpUi/1H//kJaUlJSWlka5FL0Z5PMGEfN9ZhCxwltm0Pz58+vVq0fZXr169dlnn7179258fHx4eDilE5Cbmzts2LD09HRKIUAeUfLy8k6cOJGYmEhvCbh27VrJkiUzMjK2bt363HPPjR49etiwYf7+/tWrVw8LCxNCxMbGnjt3Ts4N38oamXJTA+qxQZ2VEGLVqlXbt28XQkRGRl67dk2dDyfFgKTjx48vX77cYyY+bxCxiLOCwDSDmLe/cNYjyAwyaGtYVB6tRuaVGU/3pBhV8+HDh4pLB7xoBhX/A/MklpoAmUHELgUarG2OSDM1ANMMslgsagWooE1vqeoZumUfJj/qgPP3ubm5FouFMoIZlJeXJ2PSDAMANmNjTq/HJmRI3MTeCEWeePRoBhExnJUgr2+RRunEHwKIFfK9QYoKEg7z3iAyg4y5SmfOjdFoUcxAbtxut9z6VDsCUARdzkHpmgAiSGi+okQinlI0AVj0eszHJxxv0PLly1u3bk1F3Lt3r2TJknFxcZcuXYKVcO3atbFjxw4fPhy+jXXr1r3yyivDhw9HMKaJEycOHjx42rRp4NKOHTt27tw5atSoU6dObd269f79+0KIr776avDgwYMGDdq7d68Q4tatWxUqVHA4HBs3bmzRogUVPWPGjL///e92u/3GjRvbtm0TQiQnJ0+ZMqVfv37jx48ni2rVqlW9e/fevn377t27IyMjExMTN2zYsHfv3gEDBowePdpkMgkhnE7nvHnzPv7449GjR4MGq9W6cOHCUaNGffLJJwkJCbdv3/bz82vRokVoaOiBAwdOnDiB4qZNmzZkyJD9+/eDqn379g0aNGjgwIFfffUVUg4ePDh8+PChQ4d++eWXRLkmQN4gYyFkKkGOPqVR1rhEj5YEPi/Q3iDjEvl1NMgHrzwSj7ZwuVyKIVyzjTiEkRmkmQMletSroJ9zfSK5sihzTUAeOzQRkAjVpFYUpHuFEBRhHkRardaJEye++uqrR48excCEdDKDkBsS1UUzF8U8eoPAeY4f0eVycdA4XnZivl7tiKs0luXq/AwkBwzEuAMhlJtDzVLsDQK+MWE4KYbciEI80l+9IcbD3iCLxYKwOEKIe/fuIaYYBQ+iMCIykJGRgTgGiFKEzzNVPwRDcblcmghIdLlcaWlpqk9/SgAlCBTyU6oWhIJgl2i9/ynNZrNlZmaC+J9Sfw6hjsCRQ5PIcFZWltlstlqtCEnz8wz+9ZSTk5OcnLx48eKcnBxNBCS6XC7Hkx9C0hhgItoroWnyFuzKyMgwoD8zMxMxJg34gAAuKNEADdTabDZijh79MvGErAYQU0xNfGZmJuqbnZ2dmppqsCiG7rRy5comTZrcu3fv5s2bsbGxhw4dKlWqVHp6+vLlywMCAjIyMipVqrR27dpr1661b9/+s88++/bbb1955ZUvvvgiPT29efPm/fv3Dw8P79SpU9u2bfNNnM6dO1eqVGnRokWXLl166623Ll++HB4eXrp06WPHjh05cqR8+fIxMTGPHj2CGbR58+YmTZrIfb5s2bLbt2/ftm1b48aNhRAdO3bs2bNnXFzcgAEDkP/SpUtLly59+vTpzz///G9/+9vmzZu///77V155Ze7cuadPn65du/bQoUOFEN27d+/QocPFixfHjBlTo0YNIcSIESN69Ohx+/btqVOndunS5d69e7Vq1erbt29iYuL777+PjeSNGjUKDAzcu3dvuXLljh07dvr06ZIlS3711Vf79++vWLHikSNHwsLC3njjjbNnzx4/frx27dqHDx+WiVfA33333aJFi6C/9NoaIk1CqIcmd21jGYPOQT6aMoPP7Xa7ZlmkcLKzsxGl1aA4vCKRJsFT5Kyoo5oq5IMYf3pdlWqUkZGBWFqKUuRHl8tlt9vT0tIQ10mzRCQipKNBHVEpUph6mNCryE2mRAGDMEWi4hE4FMdQ8VZ+5BAPLUECpskKIcSZM2cgq7C2Z8yYMXHixPr16+/btw/LahjaoPBlGtRwVlYWQpMaKHwahoxjNUJynE6nuhQ5BeE7jaUCWtpms3kUMETSpbFDLkiGEe4QKZpcxStIjhqBsqJAmXqiRZjoaHjUq4XL5UpNTaXmpm8VAALHokSZNg9mkDyxiI+PDwgIUKg89SPiR6rTFSlMi97jSTFky/EG8adTxlYnjrBxSiRvkKLu8iPfGyR7nvUoZIYe4wQMQYxJmVSC5dKZQW3kOb38OeUJP6KMJr+SYVoUkxMVsLE3CARs2LDhpZdeaty4cb169Ro2bFirVq3XXnvNarWuW7eua9eudrv9n//8J048IfO7d+9WqFBBCHHx4sVXXnkFzZGQkFCiRInHjx937doV23pycnKqVat29uxZIcSVK1euX79+7dq1Ro0abdmyJS0tjcygpk2byjS3aNFi/vz5X331FbrYvXv3Ll269MMPP6xf//+z991xVR3b/nzu55N3y3v3fX7JvakmNhTEAtjFFq8FwYoVGyZo7F00RqKxx4IVLFeDisaCimJvYDeKooIaFSyAFJF2DpwO53Dmx3Pdt97c3c5CD4jJOX/A2rPXnlmz9pqZ715T1lYPD4+y/rpjx45hYWHwSK1atXbs2PH06dNatWqBL2r79u3t2rV78eJFnTp1MjIygK1u3boXL14cP3589+7dc3Jy8AglX1/f8PBwxljfvn3Dw8MPHTrUqFEjeOTWrVtJSUk9e/acPXs2pMybNy8wMPDChQsffPABuI4A38Bdyb8xMTG4NkiSARIp8zLg5lHIBG9R2iOxayJ6g4hf2JLzkig2EBRPCbFp00+RVvAEg1Q2V3hAOyLGMYQ6yrV9KJEYjQ7P1FHODdkE2uYv0RsER9RC22nbtu3x48d5NpvKB0k0Go3N103pvigr56BEBa8erxyKgaE3CCrOP86rAmYS+BQxTawjzESJHxekUJo2xBQDJ5Dgcf5STrBywKD09PRu3brJaQcLI7YKIgzicRgWISYomrJpypBtcXGxzTra7CAgKwoMIp4iTRSeqHwKDLI5KQZ1fA0YJH59kCLnsRTwy5kyz6bVapctW8aniOmwsLCuXbvCNyhj7Pbt29WrV8/Ly/vpp5/AAZOQkNC5c2cPD4/u3btnZ2c/e/asTp06paWlR44cAUcLtL169erdvn07MDBwyZIljDGdTte0adP4+PiUlJQuXboMHTo0ODi4cePG+/fvz8vLAxi0Y8cOAQxq2LDh/v37Dx06BEUvWLDgH//4x9SpU0ePHt2qVSvGWPv27WG+jDHm4+OzadOm5ORkLy8v6Ha3bNnSsWPHBw8eeHp6YjyvZs2a/fzzz4yxCRMmNGvWzNPT88iRI2UTAd7e3mvXrmWMDRgwIDw8fMeOHV27duX106ZNGzwJesOGDTB/t2fPnlatWjVs2HDMmDHKCCAmJoa4NsjmmEFcPkxkI8Kgcu0UU+4riIGHKd0XPTI0v6+Ff608TQmuTNQqMaog5QuHvjaIaDk2J4x4GISvsmXLljA7jClE5VOC8lqtVuXmA6+JguHgBdmsI/E9YjAN3k7ENGV8JH69EFsHxXKqIgyitGrKa7ZarTZhEFgqpcSKCK0qthI+hQKDiN4goiuLyGZHGKTwOcKrgvI5QoRBcqv9+eIABmEvxt9COiwszNfXFy+fPHlSrVo1gEF+fn68tcBM05MnT1xdXcHH88UXX8CDeXl5n3766fPnz7/66qsFCxZAOK0WLVrcvXu3Z8+eY8aMATYvL68jR45oNBpXV1etVhsREeHj44NF79q1609/+pPZbN69e/egQYPu3bv3X//1X+C/OXXqFHiD2rZtu3HjRnikXr1669evf/r0aYsWLfR6PWNsw4YNvr6+L168qFu3LnqDnJ2d9+7di0o4cODAX//615ycnO7du0dERMDU26ZNm86dO9eiRQvI+carX+/evYODgyFl/vz5fn5+2L5MJlPdunVnzZqFwouJs2fPAswS3+JTiKvKsGj+WTFN6Z2JraNcMEgsCZ9Cbx38U5I0UXjBN71kVjAuvrk3CDInwiBKD0CHQcSx3ybb9evXV69eLdBSq1atTpw4wScSv0Ipa4NsLpFGrVKgHnFtEKUREWEQZewgwiB668BOjH8pArryjk8keoMoSifCIJuTYm8XBikv76rKMMhiseDCMSR4wyJ6g+xoykQYhN4gBeVTvEHLli1r2bIlVvnevXt//vOfc3Nz161b16tXr19//dXNzW337t1paWlDhgyZNGlSTk7O3//+99DQ0JycnA4dOowdOzYhIcHf3x+msbp06TJlyhT4KHF2dk5ISChbLv3ll1/eu3dv1apVzs7O06dPv3btmrOzMyyR/uSTT3bu3Llx48Zhw4b94Q9/gFmqNWvWdOrUKSsr65NPPomIiLhw4cLQoUNr1qx57dq1xYsX16pV6/z58xs3bqxZs2Z4eHhycvIXX3wBK6NXrVrl5eXFGBsyZEi/fv0ePXoUFBTUrFkzvV7ft2/f6dOnp6ambt68uW7duiaTqXfv3j4+PtnZ2T169Jg3bx5jzNPTc+HChTExMZ9//vm+ffsuXrxYrVq148ePx8TEuLm5nT17dvv27Y0bNy5bC/Xw4UN3d3dYToGqExB2h0EKLxqLpnwyEpGEAwahVmGTjvIg9NuDQa1bt46JiQElQN3fCgyyieEAbfCLJfDFCQjKiIwwSPl14/Yam2wCGcSXxJkECoDGCPPKUskNMRUyKUZR+m8GBonfLqZUZRiEa+8RAwkM6J2AQahqAUGBQadPn+aXsGRkZHz77bf5+fkXL17csGEDY+zo0aNDhgwZNmwYbgcLCwvz8/NLS0vTaDQTJkz46quvZs6cCQ7LsLCwqKgomBRbuHBhamqqyWSaPHnygAED9u7d+8svv0yaNOnAgQMhISEGg6Fsn9eYV78RI0ZMmTLl5s2bIP/Zs2dhAdCJEyf69es3YcKEx48fr1u3bvny5Yyxf/7zn2PGjLl8+XIZNoqIiFCr1T/88AN8J8TGxoaEhEB8we+++y4gIGDcuHGwUywpKWnKlClff/31iBEjbt++zRi7ceOGn59fVFTUrl27YAvbgwcPAgMDBw4cCPHhGWO7d+8eOnRoQEAAbJozm81r1qwZNGjQkCFD0Ckl0DlexsTE2Ncb5IBB9JVzdvQG4Te9oGfAFw3Euw6D+KOzHj16lJiY6OHhsWHDhuTkZNwq64BB+NJxbZCyVVAwgH1hEMUbJLthHqsnSfBzUvS1QRQV/DZgkKTSMLHqwyAUVUxUfRgklhlTbMIgbMMwxIonCJAB81Qg0H1drqcEGaIMkpns3Llz3LhxsOvexcXl119/xccVHsRbYmZMoXx0IjMSkkLCXbvDICxUgXB4g0A5RBiEg5mCSokrIKssDOLX4MuZq+D4xNGjR3fq1MnX17d79+7e3t4JCQmgn6oMgyjtlzIiozdIwSQAGYt7FfEjxBKJriy518eXW1RUZFMwBwxi/GoPXn0CmjL3ifMygmcFlw4YhAqhODblPJaYCRAU5duEQXyefBvjaTkeTLcLM+amTKSnpw8aNKh9+/aNGzeG9ctypWOQMkGGCvwCzjfMwe6TYmLxxCkOGAQ6IcIgylcoeoPE2uZT3nUYhGuDYPGy0WgE0GM0GnGQdsAgfOOU8ZFoOXZcUIFLpFFOSeLdhkEKPTjcomDPioBBCoLBalmbgr2tJdK/jbVBkrYOmre5U0zwrNzMi+QrtguzQACFS/zKKSwspGwzUciqEm7Z3RskPgFPXAsHDAKd0GEQGpVYmZgC3Zcy57sOg/hJMaw4ElB3+8IgShOmbyBArIYyiwmbwxBs0dfpdOJnBSlVdm0Q0RskeXblO782CF4S5TU7YBAaNCJ6GM7xLzLAWgScGufTBbQdET1lCxgcfiPuRwQ9tUajKS8MEtQLLyVhEN4VEOViFjxbrstKK6hcUgGz3WGQnHeKl+1dh0E2XyhxfXdFwCBl2Soiphj/ZsU00ZXFT4qJM4EUfsO8JA/UnTh2UHaKyTkkBKVXZRgEna2CVRCnU+2+NkgwCghUKjd2MMbKB4N8fX0VKg+lUuYsYMcmrqgQiwsplA3zwPm2YJCc5JD+5pNi6HUgdoJENsrKgLeyNogymOFc+NGjR5csWQIHFTLGXr58uWHDhoMHD8IJ70uXLrVpq8qvz3H39TRQ3uMT0cj54hCaU0yC6ISnnxtk8wsbO3qUkxceafpHAj4iRxCbdnlh0JsrnwgRKNPi9A3z4rFD/CIoSMImDILXgcE05N4OpL8GDOL7KJ5WEJ5nq7gN82J9Qh1tnkwBvlviiIyduaRioaYUy4HdIQiDUHie4CN9CYr7FwziNctzCJZI84ed8Gw8bbVabXYiRBgEdeMzl6PF7gExJ/EIrJKSEjltYJ7YCWKKJAEH/EvewkTi8YlE4a1Wq7JhQbkUGCSIKIcCCwjiSaAUkyDWEQT45ptvnP73FxkZ+fz58z/+8Y+Q0L59+5ycnDVr1th8j4K6OC7tooGYmBg88FohQ7PZjN2WAhulPyXCIGLXpNPpKI2Igs+IB8RR6khs2mazmTK1QTk+USEyFP++iBNGlB6AKDzx6F2KN0iwRJqvF09bLBaKSWi1WpsmTdQq5QXBydcUwSjKLykpgUPI+IqLaZswCB6hmDTRG0QRHtYG2ezw5T6EbMAggLeg6NTU1K5du4LoCn+Li4sNBgPYjRybxWKB8B9yDIC+TSaTWq1Wzgq+RfR6vUJW0BlBJBHl3CwWi16vh/ajkCEsqodsQQDwDONfcNsWFhbq9XoY3SVzKzvhNy8vD9boSTJAhhBXlaJVuygfYiUajUaVSmVTXRB/zSabwWCQrCAmwscuha3sGOW4uDgnJ6c+ffqo1epFixZ9+OGHn3zySVmorPT09O+++87JyWnlypVbt24Vt2FHSiVoAJdI48sVE9gDwCCKdo6c2JRsmgQ8As0WvC+YCU+UlJRAnCwFW4WGr1KplNsayAZ9DsrJlwU01NFoNEIXIWZAaUF4MQOmYOtQEB5gpdFohFDb+KyYgF4OHAmS8mMiRfkQtklcCp+C/SqfKKBBXQUFBVBHjPktIGBSCRYyQw8M/CgzZAv7LQRsgqwYY1evXlXoflFCiLFoU/kqlQq+MFEwQYmQg06nw1cPYmNB+KDBYAAkhLVDHny2tLQUhtHS0lIsCNmAgJVbfIkCBrgsLS3V6/X8aCvQJ7AJLEecFTwFw5D4LqZAFQyvfpgoJoDN5uAOSlOpVOBCkxyRISu58dHGpFhRURFUjDGWkpLi4+OD2pEkAL7o9Xq+dxNzms1mvV5vMpnEtwQpKpVKrlY8J3aCfCJPw7oTaNV8uoAGwUCbglt4CXUEM8VEMWGxWNRqtU6nU1CF1WrNy8tbtWoVfKeKM4EUHgbJ8cBrhmB7CiWiYdlUvslkKigoUFa+oKOXkw20CkUr8ABOlWOAdEDkO3fudHJyOn36NAzqzs7OTk5OEIm9sLDwvffeGzZsmAMGVQLikSwiNjYWhhaFVwmxhJUbGjyOaEPZFG32ANiIlPOBZmuzo4DAkMpZmc1m/NhTUAV8hSsz0IU3GAxqtRqC6sjlCYIpt0ei8iErm+oCN4+cPJAOnQkIDyOiJD+OHW+ufMbYlStXwFYBLsiVCDBIuUSLxQIwiGcTVATGDgAlkmVBImgVAbQcJ6jCJht8tMtlAumAbxBAyzFTenJ41ub4CCZtU3hiiWazGWCQnOQ4PoKvV8BmAwbx4WkyMjL44AOSPSAsZqS4i4lOP35WTq5EYswUAAcKmcAtitOP6F0nTopRzpojBgsjslHqWFpaavMIb/DKiufpxUqmmARReMZYbGysk5NTUFAQY2zfvn1/+MMfnJyc4Fi/K1euODk5zZgxY9euXWIxHCmVoIGbN2/y51LKlUicFKNYDuxzkSsI04kGBp8u+JQcQREMvlPlcsB0SlZE4YlrgyhT/8R+FQYYrIscQZklsVgs9prRA5Ow2TXRJ8UoUzOU0Ko2IxODAikzevS1JRQDA8Ah9/ownaIHouWABwtzliMowgvWBsllJRfQzQYM4lFI1Tw+ESpMaWMA0uUUhOm4iwpTxITcFKOA882XSGOGxAWSRDZKHd/KEmliGystLW3ZsqWTk9Mnn3zi5OQ0e/bs7du3Ozk5gVvoj3/84927d+fMmbN9+/bIyMg9jl8laiA6Ovrbb79dv349mq4cQezoYYEkLHWUywq6XVwOKcdGbB2/k2AaNiECrLiyqVXihnm5lyJIt7m2RsD/hpeJiYkUWyWWYnNtCjEfChuUVRFLpJVrQfmEJq6dpQNoZZFAXYWFhXAKjIL25LbpOUEBcsU4YJCkTh0wCNViR1MmuutgXkyj0Xz33XedOnXC1bgRERENGjTw9va+detW2dFBQUFBp0+fvnjx4jnHrxI1EBcXt2zZMnwpaCdiolyW44BBRAxH9AYR95xTMGjxqx+835cvX967d+/WrVt37txJ+Pff9evXxYk8S2JiYnx8/JUrVxITExU4ExMTb9y4cevWLf7ZO6JfQkICsCUmJvKcPP306dPw8PAJEyakpKTw6QIaBLAE0m4AACAASURBVCsLQaOQVUJCQmJi4uXLl+Pj4wWPCy5v37597do1QaL48saNG/Hx8YIS79y5c/v27WfPnmFrImJQipsAT5GWAwNQKGV9+luBQW8UTEO5zg4YhAbHEw4YhNoo12CGT0kSRBgEawgkc8BEjUYDMbYwxUFUmgZu3LhBmRRT2BLMi0p0iQObcm9GRBIObxDon7inCYZYtVo9b968GTNmbNu2LSIiYtu2bdu3b9/2Wj/lB5XvlqtAzGq7rR9ka4vr3+oLzOIHxSmS2cqx/fzzz0uXLp00adKNGzdg4o/iQafAoOLiYn4NDN8GeZqyy/htwSCbrkS5o+n+5Q3i68nTDhjEawNpO8KggoIC5WNMoVBiD05ke6cnxeRMGd8ObJ5cunQpnwK0wKkgHjX5FAEz5FBaWoo8PAPSSMA6OWAWPIKXvITYhgWPIM/rFS0QA4sul5ySzCiYgIiNjQ0NDRUkii+Jk2IOGASqIzZtujcI7U38aiCFCIMYY6mpqaNHj758+bJcVo50+2ogJydnzJgxx48fJ67CsS8MsrlF/63AII1GY9Ok5cYOGxvmHTBI0nztCIPMZnNoaKjNeXpiJ0hke9dhEH7646AueE0ajUYSBgGbwWDIycnhv6KsVmt+fj5/zroAi5SUlLx8+RLbP8ICFEDAz8sDt/Lz8yVP5TabzdnZ2SqVin+Ep4EBi+Zv2YvGWjDGCgsLc3Nz3yRnBwxC7dF9pfiIHEFs2m8FBgUFBT18+FBOcke6HTXAN9VJkyYlJSVRMv89wCBiMA3JIwYdMEhoRRSIYEcYxBhbvHhxSkqKUI5/vyZ2gkQ2Sh2r7BJpRPR8j/Dv2mLKMCg+Pt7b2/vFixf8Ux06dLh8+bLZbF6yZElBQQHcKi0tXbp06d27d1NSUry9vWFPPv8UnPwkCWIEnybjx49fsWKF4Fk42LRXr15Hjx4tuzVv3rxJkyYFBQUtWbLk2rVrwPzs2TNfX9+srCzxswoaEDNjiuRTxcXFmZmZjLEtW7YMHz4cmYGQfETAg5cOGISq+D3AoKtXr8Iq43IZCarIQby2Bm7evLlkyRLK4/aFQTY/2t+KN4gIg/hvXVSdY1IMVfEvggIR7AuDoqOjt2zZohw4iYhviGyUOlZ9GCR8c9y1MgzSarUpKSnYHsAt1KBBgwsXLuTl5dWoUYOHO9WrV4eI7s+ePZP8kpg0adLu3bu5wv9FCmBQ1qufmM1qtTZt2jQ6OtpkMlWvXj0kJGT79u0//PCDs7PzN998AzgpNTWVODf02kPRkSNHxo4dyxjLz8/PzMwUCM+LjUUgwd+F4wwck2Kgk98DDNqyZcvVq1eVuy+BhbzTl3JmX/mV0uv1y5cvtwlKiGes09cGKXQOoISqDIMk+3DHhnmh9VIgAhEGle1mosDwsnO3Jk+enJGRAbHfhAK9uibiGyIbpY6/YRj08OHD8ePHwzHZfn5+Pj4+K1asaNmy5ZUrV1Qqlbu7O485PD09d+/enZ+fP3HixOLi4qdPnw4dOnTIkCH+/v5xcXGHDx92dnZu06bN5cuXrVbrqFGj+vfv37179wMHDjDGjh49GhwcPHjw4M2bN2/cuHHnzp2MsZ07d/r6+vbp02fMmDFwSkrLli0PHz5sMBgaN26M56ZkZmb++c9/3rp1q9FonDRpkk6nKyoqGjFiRJ8+fbp16/bzzz+DnYSEhHTs2HHmzJkhISFr164tOxUiODh448aNAQEBrVu3PnjwIJztNGPGjN69e/v4+GzYsAG6xfnz5/v7+/fp02fz5s0ZGRmdOnVyc3MLDQ09fPjwggULYH3V+PHj/fz8Jk6cmJ+fzxiLiorq3r17nz59vv76a0CKkkPC2/IG4UylZAsCQMm/WTm2t7JEWlKTvITEpl35k2KrV68GGMRLa3daTj+YbnNsfnORsCyFjvrNSylXDhs2bKBEwKAMQ79rGKQct0y8NsjmS7JvaFXKCX5EtEs8N4i4IZDYn9q0P2haSUlJgwcPRm3z7Q0UTuwEiWzvOgwC5fNLhgVmqewN+uWXXz7++OOSkpKAgICePXsajcZ9+/b9v//3/27cuKFSqRo1arRjx45jx44dOXLkxIkTrq6uBw8eTE1NdXZ21ul0Xl5es2fPZoxt3bp11KhRT58+9fDwgNmu/v379+nTJy8v78CBA3//+9/VavWuXbs++eSTLVu25Ofn9+rVa/78+aWlpS1atIiNjWWMeXt7z5o1izHWqlWr6Ohoo9Ho6en5/PlzrEtQUFDv3r1zcnJq1qxpMBjWrl3bq1cvxtgvv/zy+eefv3z58vz583/5y1+Sk5NTUlLq168fEBDAGPv888+HDh2qVqtDQkJq1qxZtohy9uzZbdu2ffny5fXr1z/66KO4uLjw8PAWLVqUlJQ8ePCgW7duCQkJQUFB3t7eWq124cKF7du3Lztgt1OnTjNnzlSr1X379h07dmxqaurHH38cFRWl0+n8/f0HDBiAcgqItwWDbDokiK3DjjAIDhEW6Ed8abOXoGM4O8Ig4vLb0NBQDG8srpq9UsRdIuacmJhIXCKDj7w2odPpzp8///Lly9fOwb4PhoWFoVdbIWeKgRFhkB3HR7qvVOHtY60pS6Rlzw2KjIyEThmz4wkcmBljGRkZ3bp14+9K0sQAmZRjTK1WK2ULH7G5EvdjE4+H4hfYSuqBMabX6yloCWw0MTGx7Av+7Nmzcrk50sulgRUrVsh9IN64ccPDwyMzM7NJkyb4IVujRo0LFy5oNJoGDRp07drV29vbx8enZ8+eH3744dGjR9PT0z09PQE5NW/e/Ny5c2U7hEGeli1bnj9/HvBHfHw8JLZq1SoiIiIqKqpFixaQMnDgwB9++AG21ezfvz86OnrIkCEjR44EGHTo0CGAQenp6VjN1atX9+zZMy8vr3HjxrBs+cKFC7t37961a5e7u/v9+/e//fZbhCOTJ08ePHgwY6x+/foxMTGMsczMzBo1aiQlJXl5eYF3qiwkzvDhw4OCgs6dO1e9evXw8PDU1FQobvHixUOHDmWMrV69etCgQffu3fv444+h9RmNxpycnB9++OHLL78E5oSEBDc3N9QACgwEPcK83AviM6Q0NHoPQFlprtFobBZKPEeeeIq0zeLA/UARngiDKN0v8WzusLAwbET8i7M7vWnTpjK3a8eOHXv16sUvyp45c+abHIEoHmLFKYyx+Ph4k8mk1Wq7dOkSFxcnqJ34EXGK4JE3v7RarWFhYZKzPILMKcMQnhskeFZwSRkfiZZjx9bxpqFVVSpVVFSUoKp4WVhYCJHzGGNPnz7t2rWr6dUPghTCLcFfiJdmMpkMBoPgFn+p1WqNRmNJSQlkKP4LzPn5+RBqin+Wp+HwLp1OxyeKaYgBpNPpiouLxWXxKRqNBsKF8okC2mg0QqAMQTp/aTab1Wq1RqMpLi4Wy4MpIBgg+tzc3AULFnz33Xfr1q3bu3dvFPfbv3//gQMHDh06dFDxd+DV7+DBg1FRUcjIZfN/JGSFbHgDno2Kitq3b9/u3bshk0Myv+jo6IMHDx44cACfwnzExOHDh2Wy+VeyQGyUX0BERUVBifCY4O7Bgwejo6O3bds2d+5cNGMBcePGjcaNGz958qR+/foJCQlwt0mTJufOncvPz2/SpAkPvhs3brx379709PRGjRqB/zkkJMTHx8fV1RWioLRq1Qp2rjo7Oz948ABy8/X1DQ0NPXDgAH45+Pv7r1y5Uq/Xt2rVauTIkVu3bh04cOD48eMZY15eXugN4mHQsGHDxowZo1arYbJs9erVzZo1W7p06aZNmxo3bvzw4cNx48Z99dVXUOLy5cv79+8PuQEae/ToUd26de/evduyZUuE19OnTwfkFBsbO3jw4EaNGvXu3Zsxtnz5ckgHGHTnzh03NzdeD0FBQX369IGyHj586O7uzq+ggnT4GxsbC5rhm4OALi4uhjar0ANA2DvoKLDZIiHIkG+2Yh6j0QgNDUKPQZfCs0E3Amz5+flw/rtR/mcwGCAqonIvp9PpILiSQFq8hHKhjpgoSRiNRp1OJ3kLE2EkKygoUNaqyWSCrHgNYCZIYC+nwMYYW7t2beXAoK+//nro0KEPHjwoa6cTJ07861//eujQIRj/cNIgNzcXTxcEkG0ymdLS0mDGACoCdGpqKo9U8vPznzx5wq+zKSoqQtesSqXq0qXLuXPnzGYzBMwGU8/JycHtFJDy7NkzmEG26Zvkm8zr0Vardf369YWFhZQhRt6W/+cOtEe1Wg2Wo8AsaI9oLUiAMNCCMFGSwEYkeRcTbZq9yWQqLi4uKCiAgVsBnOj1ehi4BSbtZLFYXrx4wRsE/0o0Gg3OuKenp/v4+FitVpiMgHTBX3DeAj4V3OIvwRDhi0QhN4vFAvbNPyugS1/9jEajIF1wCfgU/C6CW/wlCAZncvPpAhon/gTp/CW0T5uqADed1WrFFlhQUHD69GkEKAcPHjx06ND+V7/o6GgFJHTo0KEDBw5ERkYq8EC2+/btAyKK+/FQBrDFrl27xCCDT0HB+Ge5LP+HBP7IyEioCP84Tx86dCgqKgrY+HQxDRAN6ygoLioq6tChQzZhUKNGjcr03KpVK1g9o9frP/jgg8uXLxcUFLi7u/M7xt3d3SMjI9PT05s0afLs2TP098TGxtasWTMnJ8fLy+vChQuMMRcXlyNHjkDzadCgwfHjxw8dOtS5c2dI8ff337x5844dO9zd3SFl1KhREydOZIy1aNECYFCTJk2wQz99+vR7771369YtlUrVuHFjlUpVv3796OhoWMVcu3btjIyMpUuX/uMf/4DcAgIC+vbtyxhr3rw5nODy4MGD+vXrZ2dn+/r64rHOZdGRg4OD09PTcXfbZ599FhUVtWbNGvAGrVq1ys/Pz2AwuLm5Aaq7c+dOeHj4li1bmjVrBmWdPXvW3d1d7jMUvUF8cxDQOCzBaCG4C40aEo1GI15K9hWQCLHELRaLHA/E5IIeADMUlwvBicA9I7jLX0Jwbz5FTIOPCr6eJaXCR/jDmjGRJ/hJMT5dQINWbfaZIBh0OIIcBJcUwdauXVsJk2KMsdGjRy9cuBAskDEWEhLy4Ycflmlmzpw5sCR/1qxZHTp0GDhwoI+PD5jusWPHmjdvPmTIkEWLFvn5+WVmZv70009fffXV7NmzO3Xq1L59ewAxoaGh7dq18/f3b9++PTTwzZs39+zZ86uvvurateulS5dCQ0OrVavm7+9/7ty5gQMHwrfT3Llze/Xq5ePjs3z5csbY48ePu3TpMnDgwM6dOy9evBjlrDgCvEHwCS14cYJLg8GgbIFgOTD5I3iWvwQ2s9nMJ4pp4vgI8U0lewA+T5tGCOhFrVbLNX/IDRqRwWDgMwe6HEukcVJMDjPB+5abfhNYA5zmjvIJ7sKl1WrlZ+XkeIjr0olrgyjrZvjXLCkVJAIiVmAAC+CHE2XdKmfluMtrYPny5XLKhLVBFotlxYoVderU2bBhw6xZsz744IPz58/n5eXVqlWL351evXr1nTt3pqam1qtXLzMzs3fv3v7+/vv27Rs1alS/fv0YYz4+Pq1bt3748OHmzZtbtGixbdu2cePGtWvXjjG2efPmJk2agFQ9e/ZcunTpw4cPP//889DQ0IULF/bv37958+ZxcXGwlrmkpKRatWqTJk0KDg7u06fPRx99BEuOnj17VrduXZ1ON2LEiK5du27evHnWrFmNGzcOCgq6efNm/fr1p0+fvn79+g4dOsAUW61atcA7lZiYWK1aNbVaffz4cU9Pz/Dw8Llz57q7uxcVFW3ZsqV58+Y//fTTqlWrGjZsmJqaunfv3k8//fTQoUM4+fXDDz906NAhPDy8efPmS17ty23Tps2oUaP27NnTrl07iMvNKxzpmJgY8AaJuxtMQYiAT8kR2AnKMUA6ssm9dPjSoMwOENcG8c1WTja+o5fjAVUo3IVbxIVNxEkxYjANUJecSkGwSoNBY8aM+f7771FRBQUF1apVS0tLGz169LJly8xm85AhQ54+fQozv+BndXFxgcNpt23b9re//S0/P3/lypUff/wxNPCmTZv+85//TE5OrlmzZmJiImNs0aJF7dq1K1vVV6dOnUuXLsG2gI0bN6alpdWvX//OnTtqtdrV1TUpKemnn37y8vKyWCy//vrrl19+mZSU1LNnz0mTJgEecnFxOXfuHIpaQQQPg5SLoNgqcW1QlT1F+o1iilksFoFbj1coj0IQBvEMYrpcMEjZc1j1YZC4+nzKa8Ag/nGeNpvNlB4cz9ThnxXTaMp8B4dDFCSWlpZKHvcnyM2Oy9wsFguluVIwqPIS6YyMjF27dsGMz5YtWyZNmnThwoWTJ0+mp6cbDIY9e/agS6a0tHT37t3JyclFRUWRkZEg4bp162bOnLl27VpoOI8fP/72228vXrxY5ok5ceLEvHnzQkNDwTGemJgIfvuyBUCnT5+G8+9Pnz49a9asAwcO6PX6bdu2nThx4ujRo48fP2aM7d69OywsbM2aNZs2bYIUxlhZz7t3717opEJCQubOnfv8+fPHjx+Hhoaq1eo7d+6UOXKePHmyePHir7/+mjG2b98+OIYqJyfn559/Bq/P+fPn586du3TpUpwyOH78eHBw8Jw5c2AAMJvNGzduDA8Pv3HjBhxixBiLiIgIDg7et28fvPTc3NwVK1bMmTOnrJoCM+Av6UukKYtdEN/wRYhpZONNmmdzwCBeG+8iDBo9ejQPg3Q6XY0aNVJSUiZMmDB//nzG2I0bN4KDg+fPn9+rV6/Jkyc/f/78888/z8vLg0ZUo0aN3NzcZcuW9ezZE1QxePDg+fPnb926tWvXrpDy7Nmz2rVrZ2Zmjho1qnXr1suXL4fWUVhYWK9evWfPnpWUlHh4eNy9e7dXr16LFi1ClaalpdWoUeP27duQ0rdv3x9//BHvVhDhgEG8Yt8opphWqz1x4oRc3+GAQbyikcaRGFMkiSoOgwSuODkYJGcbUOW3C4PkZFOAQXKPCN4gTP6KEwUpOJUpSAcHLCbiWmBi6cQHHz582KhRo2vXrj179szDw4Nf5KcgGAqDpYiler0UyNABg1CxDm8QquLNiVGjRs2ZMwfz+eWXX95//32r1Tp69Og1a9akpaVVr159zZo1d+/eHTVq1KRJk1JSUqpVqwYnUBgMhpo1a2ZmZoaEhMDkL2NswIABS5cu/ec//9mjRw/ItmzWrFq1anCwanR09MSJEz/77LM1a9aYzeYGDRo8e/asuLjY3d393r17gwcP5qMWZmVlff7557g00N/fH5AZSlsRhAMG8Vp9UxgECw74HJF2wCBUBU/8BmAQPxaKxzzw0lVxbxD/RgS0AgwScOIlKEFOFcgGhIBNcMkzS96STOSfkqQln9q9e3eXLl2aN28OZzxKioez7zyBRWC2SOAtZWctz8bTDhiE2nDAIFTFmxMjR46EvZaMsfv373/00UcTJkxgjAUEBGzcuHHv3r2enp5QSs+ePUePHs0Y+9vf/gaey5iYmP/+7//OzMxcsWJF9+7dga1fv34hISHx8fHOzs7gh46MjKxXr97z588jIiKAZ8uWLfXq1cvPz69Tp05GRkZJSUndunWTk5NDQ0N9fHxgB9+gQYMuXrzYpk0bjChcv3599KG+ecXlcnDAIF4zbwSDTCZTYmIiPyjyWTtgEK8NpB0wCFVhX28Q5XwLivJfGwZhvao+YS/UYveaOmAQqtQBg1AVb05MmjSpdu3a/fv379Chw8cff4whXwYNGrRs2TKVSlWzZs3AwMDRo0dPnjy5bt26165d2717d/Xq1ceNGzdjxowGDRqkp6f/+OOPuKugbI/kvHnzGGOBgYGtW7cOCgpycXGBWex//OMf3bt3Dw4ObtGiBSx08/Lyat++/eHDhz08PGAZddu2bfv379+5c+eOHTsyxs6ePVu7du2pU6d27dp10KBBb15fmzk4YBCvojeCQXxGYtoBg8Q6gS8AyoD9bk2KCWpqsVjkDobhOe0LgyjrnxAGSeIAkO01YBBfKQf9Jhp4izBIQWzH2iBeOe/i2qD09PQrV67ExMTExsbiVnbG2JMnT2DFW0pKys8//wwLdK5fv3737t3s7OxLly6lpaWp1eqGDRtmZWXl5eUlJyeDKpKSkjCY45kzZyIiIu7duwe3SkpKjh8/vm3bNljPV7ZP7cWLF4cOHXry5ElSUhKsN9LpdPv378eFdHCmzM6dO8+cOQOZKHRQ/Lt4bdoBg3jVUWCQ3NrZ/4kppnAgkgMG8YpGGkdiTJEkqjgMUp7yKC0trXwYRAGXqHyFXsYBgyQNsnISHTAI9ezwBqEq3pCQnK/gzxmR7A1GjRrVs2fPmJgYPz8/mCZDMZBfnDPeQmYxj2DtnfgRcQrmZi/CAYN4Tb4RDNLr9XDKCJ8j0gIYBLOqyi/YsVMMtVeVYRA2bMFCaRT+rcCgcu0UQ1HFhAMGiXVSaSkIg/hF9wIazvGy+04xhTo6vEG8ct5FbxA/7vC9FqYjgR94JpNp7dq1gYGBS5cuhU8sAQ+fD6+fd4J2wCD+NVFgkBw4cdJqtUeOHOGNg89aAIPgSFw5ZnhQriQ+W8H5XYJbeOnYMI+qIJ4aIuf0w3yAwA3zcCn5Qt/KhvlyeYMEleIvHTCI10Yl0wiDlMst13SqpIny+cOGeT5FQDtgEK+Q3wAM4qsDNG8kkvgGv/3wWf4RTHxXCAcM4t8UBQbJncnipNfr4cgTPkekJWEQ3pUk5EoSMBcXF+NhlIJbeFllYRDxwEb7eoMoEKFcMEjQUwh6BGKEeXiP+MrkCDjmW+4upBOhHk6KKeTmgEEKyqnoW7GxsbhlRqEsu8Mg8SDHl261WomHbxFjilFCWlb+pBjxEDw7wqB169ZVzinS/NssLy3o68r7eNXkf1swyKYTl9JFl9cfbPMVUI5PlBsfbZwizQcVyszMxPMVFGQqLS2lLHQtKSkRTK+K87R7aFWb7w/cVAJAICkYpY4Qwkz8uCCFkhUxLixEDBDkL76kKL+0tBRPERTngCnEGNqUOhKFpxiYTqeDE+5RTgdRaRrAU6SVS6QYIfGEZWKzJTYijUZjs6MgfggRWwcxtCqFjRggs6SkRBk1wrujlFhpoVWVzel3eBdgEGUhAeUT2r6WQ+nwiaFVKVlB6CqbJg0rocWmYgMG8aFVnz175uvrC7EA5cKdQkRVg8Fgr9CqBQUFcmUZX/1AHkpoVYi4JoiphvHbgID4ixCqTXCLvzQYDDqdzmw284k8XVxcXFJSolKpiKFVoS4KfyGCo7IqMKSccqQ9iJhoMplAfiiUFx5CWhoMhvz8fOWs4K5er1eQHG7p9XrlrEB4g8HAG5hAKriE8HiStyDRbDbn5+cvW7ZMbO6OlErQQNkZLRBqQ+EdQUODmI7KxiMZClGcM3xyKLTukpISjE6qUGJxcXF+fj5Ec1RgMxqNNkOrQgRTg8EAXiixzGiulO7LZDJBI5LLB5stBsiU48ReTjkCK6hLoZeDwbXSQqtWgum+W0XYMbQq2CpYjrLZ24yJDmMfzIQoZFVSUgJR2BXaLAzEYPY22QAqgM3LlWswGCT7Eyej0ZiQkCDn/9BoNBCGsOxwhefPn/v6+oJ3Ec7YhVv8X/A8wwyIQiw3iNCGoVXFnJAnhFaVKwt44C6WyAvD0/TQqhCjEaspScDEHzpaJXkgRiNAdV4SpLFeEDxSMhMsAjosBR64BX2WMhuGx4OFhCCP+BGIpQynA6DMPAGPAGqBrMSZYAofIBMTBYTZbMa4d1gQ8PAWYjabQaugQEEmYMkajaYSDrPHThObD08gjWzlJfDj5s2zKm/Rb8J/9uxZmBQTvxpMwR6AaDn4oBwBzZa3EzEnNCI5kwZzYoxByG5lwSwWC9iqQongo4JvWblWBo9j60CzFxBWqxWFF9cLU0CrlNCq8BWkXEdY5QkSynFChPmqPyn2JvZcZZ8Fb5Ber1c2aQgDrGCo0L2YTCZYA6PAyRgzGo0wcKPVCYjS0lIcHwVmzF9SegC+dQhK4S+hnywsLMRlNnJVsFgser2efxZop6KiIgyLLX7fr7E2iL5EGnt5cbmYws/KYaKYoDj97BhaVc63JhAMgKcgUXxJEd6O62aIMwilpaX82xeLDSnlWuEhlwmkEy2HOCm2dOnSykQPjx8/7t+/P3+cCURqhJPWTpw4sWPHjoiIiIMHD6ampirrgb87Z84cOL2NT1SgiTNNCjm8+S2MMK+cFd1ylPOBuzaXSMNQQXGw2ze0qs35NeLEH3FGryJCqyrr/51YG6RchXf0Ln1SjDJxZsdVZcTxkd4DUHpycNkov0q5IcZJo9EcO3ZMDpHwA2FGRgYeQ65QmFxJgkdwjZ5CDSlLpCFbCpKwLwyilGjfJdKUHlxuCZhY+XJvHDmJa4PsaMrExfWU9XdarbaSYVB+fn5UVJQgSrGbm9v+/fstFoubm9vgwYPHjx8/dOhQV1fX0NBQ1DMS8F2Cl0BcuHABD3Djb0m+vszMzIULF/Jsb4WusjCI+C1RETBIoZejwyBKD2B3GKQsOWNs3bp1cOSK+CPb7im8O+F3TsPOx7CwMMpSfTvCIMEuY8kehrhyzo5jB8y9SPaKvIRy4OR/jk9EJyr/ANAOGCTWCfiHHTAINGNHU36nYVBubu727dshnPv69esHDRp0+PDhTp06HT16tLi42MPDIzs7GzR24sQJCG/EGNuyZUtgYODUqVMxnnxaWlpwcPCUKVMgTOOpU6cuXLjAGHv58uWsWbOGDRuGzqGjR4+ePXt22bJlw4cPB6g0ceJEDw+P9evXM8YeP35cFmQ7MDBw165dkjZccYkOGIS6xdahDCYo+IaI4SofBm3YsGHChAmhoaErK+UX4vj9rwYWLVr07bfforEpEA4YBMqRhUEKuoPV18jg8AahKhDtKvduDm8QaowyZ/FOw6CHDx++//77fE+rGgAAIABJREFUeXl5mzZtqlmz5v79+9esWfPpp5/GxMSYTKZGjRrl5OSANp4/f/7nP/85MzNz3bp1np6ely5dmjNnTv369S0Wy8uXL9u3b79q1aqQkJBPP/00IyMjMDAQ4ke2adNm/PjxFy9e7Nix4/Tp0xljffr0ad++/b59+4KCgurUqaNWq6dNm+bp6Xns2LG0tLT69esvWLDg5MmTzZs337hxI76ISiAcMAiV/NuAQZJ+SqxjaGjouXPnYNWI3NLU10uHfSH8s7Co1vEXNKPX69etW0eBOBQe4qTYb9MbZDabBQsa0L4dMIhXBU/zMEgBCTlgECrtNw+DHj9+7OzsrFare/XqFR4eDhWvXr06eIMaN268evXqqKioTZs21a9ff8iQIYyxtLS0hIQElUp148aNzz77LCMjY/Hixb169YJn9+7dm5KSMnr06AULFpw7d65evXq5ubmMsYsXL37yyScmk8nf3x8Dbn/++eePHj2KiYnp2bMnY2zx4sXNmzcHh+WWLVuaNGmCL6ISCAcMQiX/HmDQunXrrl+/jlV2EJWpgfXr1zsmxUDhRUVFrz8pptVqDx8+LDeWv/VJsSq7RBrGGOXvJAcMwh7h9wCD6tSpk5+fP2jQIIy22KpVqwMHDpjN5saNGwcEBIx69du6dSuo5fTp0127dh08ePDIkSOdnZ3z8vJmzJgxdepUVBpjLCAgYPHixbt373Z2dh42bFj37t0HDBjQq1evwsLCwMDAiIgIxphWq3Vxcbl3797hw4d9fHzKpsmnTZvm5uY2ZMiQnj17DhgwYPjw4cR2xBf92rQDBqHqEAZhiiRRxSfFlHu5devWXb16VbJeb5KIQxqWLjdIYSn4CKxbwPQKIlAevtwKKksy27d1fCLlwD/KohFi66CMHcRzg2QnxTQazeHDhyW1/Na9QcTNSrD1Tq4KmF4RS6SxJWApPOGAQagNiikT13cTl0j/+OOPym8HZbML8fjx4zp16qhUqr59++7duxfyrF279uHDh0tKSjw9PXFtENwymUw1a9YEHFNUVFS9enW1Wr1+/fqAgABguHz5cnp6+jfffLNo0aJDhw6hR8disUDI26FDh4LbqaioqH79+klJSQcOHIADTr/99ttOnTpBPmazWaPR2Oy5gNkufx0wCNWIHb2yKVZ9GIQ1EhMVBIMgdPymTZt409VoNFFRUTqdDpbEZmdn5+fn87pNSkravHkzZQwWV4SYwoOe06dPK4yexAxfm80Bg3jVvZE3qLi4+OnTp3x2PP12vUEUGATfChS7tyMMoozE8JluUzCr1UqZuCXGASAiieLiYr4x828c6beyU4wyHqDy+e4PxQZCq9VWMgx69OjRhx9+qFKpZs+e3bJly8ePH+/du/c//uM/AAZ98cUXjx494oU0m81NmzZdtGhRamrq999//8EHH0RGRv7666+NGzc+duxYbGzsRx99FBcXN3LkyClTplgsFnd399WrVxcUFMyZM2f8+PGMsR49eoSEhMA5N9WrV09OTj558mTdunXv3bt369atWrVq7du3Lzs7e8KECZV8kqTdYRD6A3gFCmjA2QqcjphivMZwoy6fKKYp7bHiYFBcXNyECRP4nkqj0Xz66acFBQUPHjxwcXHp3Llzr169unfv/v333wM2unHjxsSJE8XzRAqGwdda3KWIUxhjDx48OHPmDGPsp59+WrlyJZ8DHrDEJ0pmwjO8Hu2AQbzeiDHFJEdkG6dIO2AQr2ikcSTGFEnC4Q1CtVSEN0ihc9FqtUuWLFFgQMHsRWRmZs6cOVOlUul0uqlTpw4dOjQ0NDQkJOT27dtlh/bOnDkzIyNDUNb169dHjhw5duzY2NjYiIiIiRMn6nS606dPjxgxIiAgYM+ePYyxzZs3A3H79u2xr35TpkwBRLV+/fpTp04B2ob8TSbT6Fc/xtiVK1dGjBgxduzYuXPniosWSGLfSwcMQn1Wfkwxu+8Uw7rIERUHgzQazZMnT6AV37lzJzo6+unTp56enmq1+urVq7Vr187KyiooKIiLi+vatWvTpk1LS0vNZnNKSgqc1ZSWlnbq1KmbN2+i5Hq9PiYm5unTp4WFhS9evLBYLKmpqSqV6tKlS/yxFFlZWWfPnr127Ro+mJ2dfe7cuVu3bkHKmDFj+vfvn5ubm5OTk5aWBonJyclnz57FIzPMZvPly5dPnz6NeyMwN3sRDhjEa/KNYBBsmJcbMPglBcSdYrh8mBdRTFOC2lDODQLJKV8txPPHiouL5bSBtcDjoZQ538rxiRRVwDGgWB1JgqJ8OJub91pLZkU8GYUILlH5cmUxxnQ6XWXCIGUzQDl5Np5GBgGBPPwHMfCgzsW3JBdGYFaCIirikgiDyhVRyKb8YPbKbMQeQKvVonoV9EN04lKOT6SE7iIKT4RBlO4XWrekOfFqqTgYdPLkyaZNmzLG9uzZ4+rqOmXKlKlTp9arV0+r1V65csXV1ZU3/ho1aoSHhyckJHh4eDDGduzY4enpOXfu3I4dO44bN44xlp2d3bp168DAwLlz53bq1Gn58uUlJSWtW7eeOnXq5MmTXVxc4MytM2fONGnSZOrUqb6+voMHD2aMXbhw4csvvwwODu7bt++IESMSExMbN27cpEmTU6dO/fDDD6NGjWKMbdy40dfXd8yYMY0bN7527ZrFYunVq1e/fv0mTpzYpEmTiltCHhYWRrFDCg/RcigzCZQumjFWrh6ANzlJGibFlHsA2bVBOp3u5MmTcg/DqgLoFNLS0rp162b53x+cmf2/V//6D9Ex9Xq95F1khuO9YesdTJ9DDELxX6gbPihJQBAGm6dpQUAum4Lp9Xqz2aycm9ls1uv1ksJgIszowYn7mCgmiFlBjDabwhcXFxsMBptsBoMB+kGxPJACc3CFhYU2szIajSaTiWfjaYvFAppErVosFrB+QdFwNrROp4PHxZYAKXB6isFggHwk2WCeqDKDaUg2y99tYkxMzKpVqxhjCu8IewD4gpd8j2AnYDn49iU54Yx8vCUoF00OGxFyigmr1QqBFAVmLDBXYrOF1oECCDLBS4g7hpeSBMREU5YKenm1Wg0zgJL5QJO02QPAs9DQ5PKBcaHiYoodP34cYJCLi0t0dDRj7Pr16++//35xcfHVq1ddXV350T0wMHDMmDHx8fENGjSwWCy7du06f/48Y+zevXsffvhhWXc3d+7cLl26QKusXbs2gJ5PPvnkwIEDjLGDBw+6uLgwxlq0aAER8cxmc61atS5evDhx4kRfX194cM+ePRaLZfz48XBoRVBQ0IQJEzIyMj7++GNYW7JkyZKwVz8vLy94ZMaMGR07dqyg3iAsLAxmAxXeEbYOBR6r1WowGIqKisByxO0CUiCGDMyoKvBg65DjgaYN8b8ErVXwCJQoSBRfWiwWlUqFWEKypgBOcIjheZy0Wi1YmOR7Ur36QbSOR48e+fj4FBUVFRYWauR/hYWFEFIUOAsLC4uKioCdT8nPz1er1Vqttkjxl5OTU6j4g5wLCgrkJfrXHbVarVKpQAa11A/Kyc/P12g0wCYnWmFhYV5envbVD5jFnBqNJi8vLz8/H2stWQ+NRqNSqeCWOBNMAXk1Go1kJvi4Wq2Gt6PMVlBQUFRUpNPp5IQvKipSq9U5OTnKwgMbapV/14LXAS8IlQ+cKCSkFxQUqFQqMAm8JSCgRP4dCRgKCwu1Wm1WVtaSJUvY7/Un91VTOfqIjY1dvnw5bLAQmAFearVa7AEwUZKgNG2NRgMmLZkDJGq1WuyalNlevnyJPRg2QJ6AZqjMA52eSqWCXk6uoYEkIDxfhICGx5VLhKxUKlVOTg7wK1QzLy9PrVaLGbCvhhzy8vL4FDE/Y2zFihUVsVOMMXbixInWrVvrdLpatWolJSWBl7devXpFRUVXr151cXHhYdDXX389bdq0srkz8AZlZ2cHBQUNGzbs66+/dnV1NZlMgYGB8+bNgyYwYsQIOHiwQYMGENzmypUrbm5uL168aNCgwf3794HNz89vyZIlWVlZjRo18vb2Dg4Ozs/Ph/2bEydOLDsqadar39mzZxs0aMA3rsDAwJkzZ0LK6dOn3dzcKA4/PgciHRoa+vLlS+VxgTLEAA8MatA5CywQLqGhwRAjyQDWUlhYSDFpHNTksoJ0HDsU2DQaDYxWYKJarVZsqzCywNghuOtkMBhg9lSy6+QnxTIzM7t162bz9UAUQJtsEAXNJhsvgAIzxcgAdSpkArcoWRFneSDqtV1KhI9mm1kRlU+ZFBPsE5QrGjC13F1Mp2iVKDx4UzFnSUKv11fyEmlJMX6fiTExMXCStXL1weeqzIPzMnZhg8DPNrMiTopRZrvA9WKzREpW8JluMyuLxULpM8s1KaZcaMVNigEMMhgMtWrVgmPWtVpt3bp1AQbVq1ePF6xatWrR0dGJiYnNmjXTaDQtW7acNWtWYWHhzZs369SpY7FYAgMD58yZA48MHjx40qRJjLEmTZo8efKEMRYTE+Pu7p6Xl+fm5oYwqHv37rNmzYJodEePHh05cqSbm5tWqx0/fvy0adMABgUFBcXFxQH2QnlGjhwJ7qIy99LJkyddXFwoHSA+TieIwTQoKyXAaWSzaIrl2HdSjKg6itnLDdzlWyJNgUHEs4ApU4yUnWIwdS25/FvwRok7xYiCCUq0/vsPitbpdAI2gUhwyX/TSDLAwE80ZUpuMB0JIsuVWFpaWlhYKHcX04uLiymduNFolMTZmA/MoVDqSAmtCjHF+MwddKVpICYmJiwszGZxxcXFlA4OFtfzq0Akc4aZWYgsLWYAU7e53RJMVKPRoEn/e7P+nyvMXNy0kRl5cMM8pkgSaPaYAxLIL14bhDy8VMXFxfy+FnxcQGAIXj4ToJGT0tAgplgFRZg/evSop6cnY8zNzQ1iyBw7duy9994zmUxXr16tXr16QUGByWR68OBB+/bt3d3dGWPnz59v1KhRZmbmp59+mpiYyBgLCwv7y1/+otFolixZ0qpVK8ZYbm5u7dq1Ad/UqVPn7t27jLEzZ86AR8fb23v27NmMsYyMjC+++CI2NnblypUnTpwAtVSrVi0uLm7cuHFlvqWyyfepU6eOGjXKbDbXrVsX5uAmTJgwffr0yMhIT09PmDT86quv/Pz8UKv2JYgwiNL9CixHbBhgZvwp0gIerBouwREw8JeASKAH4NMFNJxODs1fcIu/hIUQNnsJueWn5YNBlRxalbhn2+7nBtlcIIna5DsgNAIkKDvFiMITIwoRN8yjKSvIT4RBxI6e0g6JdaT0zpW/YR5fuoOwOwyiqBQ3zCswEw2MEloVemeFsuCWzdYBDRBhkEKGNjEclkiBQZSvF+Jml4rzBp09e7ZDhw6MsbNnz9auXbtr166TJ0/u0aOHRqNJSEioU6dOjx49unbt6unpOWTIEJiuOnXqVPv27a1W66JFi9q1azds2LCwsLCBAwcOHz78xYsXo0aN6tix49y5c/39/efOnVvmBGrTpg3AoAsXLkBZjx8//vLLLwMCAry9vWES7cCBAy1bthw2bFi3bt2mTJnCGCs7Dv7jjz8ODQ1dvnw5pERGRrZu3bpPnz5t2rS5d+8eY2zixIne3t5Dhw719fXF3WQK7/f1btFhkM38icE0KEctEC2HYoTQ0BTGKawX7BTDS0kC8Zng7v9Miv3yyy9yxfAtirhTTK4kQcEmkwk+ueSKBlckhH0VPCu+FH+ZiXmI3iCj0UiBQeB0URCeeG4QEQYRO0E6DEJ8LVYUpLzrMKiSI8zLqfF3mP4WYZCytu0Ig4jHfSEMkuso4IuWcpyE2Wym9HL0/T5EV5yySsEbVEFrgwwGQ1ZWFvRUWVlZt2/fhuUdpaWler0+Kyvr+asf7lGHMxVfvnwJ2k5KSnr48CF0sKmpqU+ePImOjs7Ly2OM9evXLzQ0lDGWlZUFWoUMQSdFRUW3b9+GNUNQfZVKFRcXB9GOIeXZs2dpaWlFRUVYemZmZnx8vF6vBwbGWFJS0u3btyFPm44KfKpcROXDIPyEVpDz3YNBWq0Wz/4XV8wBg8Q6AXzmgEGgGezoJRWFiURvEKWjJ3qDHDAIlV/JhAMGocKxddiEQfiIHEH8EKLDIJz4kyuR+IVWQd4gXmM8rSCtMtRITExs2LDhuHHjBg0aVLZPnp/x5/MXZAI4lS+UZ+bTkRY/YvPQAXy2vIQDBqHG3sgbpNPp4EBMzI4nHDCI1wbS6PFSbhJ2nBQjdoLvujeIsrDJAYPQDqsm4YBB+F4cMAhVURWIly9fbty4MSwsDCYZBIinvBIqd/7Kd8tblhy/AwahZt4IBinvnnDAINQyTzhgEGoDO3pMkSSI3iAHDJLU3ruV6IBB+L6wdcgNijgpho/IEcQPod+MN0hOD/ZKl1tNb6/8KycfBwxCPb8RDMJcJAkHDJJUiwMGoVqwo8cUScIBgyTV8ptMdMAgfK3YOhwwCHXiIOyoAQcMQmW+EQwymUyCoI+Yr+DkGMcSadSMAwahKrCjxxRJwgGDJNXym0x0wCB8rTZbR1X2BhEXulbQ2iDUoYNQ0IADBqFy3ggG6XS66OhouY8VhzcItcwTvwEYBLvh5N47LAPnVxHy1edpmx09MBNhkB2XSDuOT+RfU2XSDhiE2sbWIdfQqjIMIi6RXrt2bQWdG4RqdBByGnDAINQMEQZJDjFOer3+2LFjmJeA4E9mLNsQSDk3iPgNQTx+gMdhAtn4S8rBG8RTpO24IZB4irTki+FrV66jBSm5UY6IhJi7AjHEl3gOm/gWn0KRirL2GfZc2Nzrq9PpHDvFeP1XJk2EQRh9XVk2StOWOxxWkLP4BEIBA1zqdDqbR2YQzw2C4EeSpfCJlDoSd/ubzWYIMsXnL6aJR7ZQBFuzZo0DBok1XDkpxNCqlO6XvqrM5tJyIgaw49gBZyXYFExuiHEqCxSXm5sr986KioqKX/0YYykpKd26dSspKYEUyb8lJSUmk0mn08GCPkkeOD1Wr9ebTCY5Bkg3mUwFBQXKJQKnXq9XzspsNhuNRr1er5xbSUkJHP2swIZ1BEKuXLPZDHG7bKpCp9MpFAfqMrz62cwK6miTjaJ8o9FYUFCgnBUEtYUwjXJ6APkBESrzGI1GiDFJZ4OhVPC3tLRUpVItXbpUzqod6RWqgZiYmDVr1gA0kXuVJSUler3eaDQqG1hxcTE0beW+AnKTKwvTTSaTzR4AYjQq2yG0VmKzNRqNKICYMJlMFOEhrqpN4aE9qlQqAHyCdoGXEPmSqHzlXo4xtnr16go6N6hCrfS3kfn69evh0HOxaWEKDGp4KUmASajVaorlKDdGuGuzdUCJdhk7ANPDkeJo5JIEBFcW9zk2TpEuKirCDxqIMG8zxHFxcTGcQAgOYXEwWIguazAYwCEkEBfuwlPFxcUqlUqhRGSmxHsvKSlRjkwOhWK0Z0nJIZHPSiA/1BoCr2g0Goj3rpAVxB5R0BXUkRiM12QyQe+mkCGWCO4xsfyQYjQa1Wo1xDLjg/EijYLB61aoI/TOcHylHBt87OILkpMKDpEzGo0KVgEHqztg0Nvq6DHCvNy7BssxGo3QTBTY4OsFGORMAkwdmq0CDxiYTVsFGGSTDXoAmybNN1tJ2VAVUEdsXDyB1cfWIacxCMdNiTAPylcO7g3KV+4lGGMVF2H+bRnwO1Tu+vXrdTodbPdWsAp43XIMEN2PjzDPmx9Pw2oQHOPkTJofHxUK5VuHAhs2bQUejDDPSyugYSzDRsQL72Q2m7OzsyVPfIJzkNEmMjIyfH198VKOIAbIpMzLgKdLriA+neL0I0YntTnhQo9iptVqKV5lyjlmMOrzVZakiXUsLi6WW6yA2RInxcDU8Ck5gqJVotufYmAwKSYnjCO9QjVAnBQjhlalNG3iKhaK5UCnR2mSFJMmuv0pvQSxaRMnxSiRrYlTG5W5Nshmr2VzWoS3fHFukMKnlytDPnM6zRfH05QciJNiRHvmj8CWK50ydhDbox3HDmi2NrUnOylGP0U6PT3d19dXDjCh1jDeFqZIEpTJaWJMMWJzBVcYgBiohaTWIEajpMyYaN8l0pROkLisgYgkiHWkLJEGhI6akSMkwwXgW4AXAV+fcjlgupwpIwM0CcfaIF4hlUnHxMRAIEzlQuGbUo4HbYMOgySbM58/sXVoNBqbTZLY5yjXEWWTbB14Fwii8PQVHnLrn1DzxJ5cAQaVlpaCO1xQl/JeWq3W+/fvv3jxgnIcc05OTkJCAuUEMoXciouLExMTFZaLlLcKYn7eXIuKihITE4ky81kRl0gr2DO8bpjC5pcC86XwNGXsKG/r4FXBlwU0pXXQ1wZJKtlJo9FER0eLy4YUfoUywiA5ZkgnNh4iDOIFUCiX0lciDFLIB2CszS8A+8IgivAVBIMU7M++McUopgyzdcpvB7awKbRqeNwRWtWmGiuOwS4wCMWD1qFgqMBJNDCblgP9qU1Pj706eqiXHYV/cxiEmsdvemXlK8Agi8XStGnT/fv383m+Hu3n57d9+3bBsyCYQLwzZ8507NhRPHAI2CAro9E4efLkrl279ujRIzAwcP369WAhWq22S5cup0+fFpQIl5JZCTgpPKWlpXfu3GGMJSYmfvnllxDvDPNBgCJI4XMmwiDKEEMMrWoTBoHYlBLt+JEAzdZisfDKQb0hgQM3pgDhZDKZIP6c4AZc8sYEMEiSjU8kwiDckKUgd2lpKS8AX4qApii9ImCQQAzBJTGYBqVrtjsMAotRVj7FG2RHUyZGAnF4gwRmVtUu7Q6DrFarzS8TQBJy9gxds02HCjyu0WgqDQZBvao4DFJWvuDcINCh1Wp9+fKlxWJp2LDhzp07wUTVajV4dNBiVSpVdnY2XoIfF2LF4148vV6vVqszMjJUKhV8BZnN5qysLCgIfVqYc35+flpaGm6Xe/78OfZjBoMBLCEzMxPmiUwmU4MGDb7//vtLly5t3brV29u7YcOGGRkZVqv1+fPniEtyc3NfvnwpkBPkgYEMBiCDwYBiAHNeXl5GRgb/oEqlysnJgZR79+75+fnl5eXp9fr09HR0VOTl5YF4UMeSkpLnz59LDhPvNAyiuEIAi4MeeDWKadgwr8wpC4MgO7mHeRSSnp7u4+Mjx4lilRcG4YNigjgphl8t4hz4FAcMQm3YRPR2PzeI2NFT4KwDBuF7rJqE3WEQpZpEA5McSwT5FxUV2R0GCYoQXFLM3iaGgzwrwhskkFZwKYBBjLHU1FRvb+8uXbrMnj27adOmMNuwatWqL7/80tfXNyAgAIaVdevW+fr69u3b19/fPzk5mTG2Z88ePz+/Hj16zJs3jzG2fv368ePH+/j47NmzZ9q0aTExMQ8fPvzmm2+Cg4O9vLxatWr15MmTsnDx9+/fHz58eO/evb/66iuNRnPz5s1BgwaBGP369evbt2/nzp3DwsIYYz///POECRMWLFjQuXPnLl26QHD4Zs2anT17Fivl6+vbv39/xlhAQMD169cZY2PHjvX29vb19Z04cSLYz/bt2728vEaMGLFixYoJEyYwxhYsWPDdd99NmzatdevW06dPh9zmzJnj4+PTo0cPEIwxtnjx4l69evn5+QUGBj558mTUqFGurq7BwcGXL18eNmwYrCSbNm3agAEDevfuDbE+L1682KVLl4EDB3p7e586dQrlBIK4NohiYPbyBtHXztrxE5o+KSapCier1Qr7bgT6hUsHDJJUixyoFDBXZW+Q8hcemDJ+RQnqxV/a0ZSJHT0dBvFyOuhK00BMTMy6detsFke3HJtZET+EiAbmgEGocMkxA+8CIYZBvXv3DggIYIxduXLlb3/72+XLl+Pj452dnbOyshhjY8aMCQoKSk1N/eCDDyCAwYoVK44ePXrt2rW6desmJycXFBS0bdv23Llz8+bNc3FxuXPnTklJScuWLffu3Xvr1q0//vGPly5dYowNGjSoDDAxxlq2bLlt27ayI12GDx/+3XffXb161dPTs7S0tHv37uPGjYMpp08//fTx48cRERF///vfYR6qefPmCxcuZIw1a9bs6NGj8OHHGDtz5kzNmjVzc3ObNWt26dKl+/fv9+vXD9YON2vW7ODBg4WFhR988AHIEBgY2KJFizIo1q9fv44dO2q12uTk5M8++ywpKWn37t1169YFz5aPj8+cOXNu3rxZrVo1SJk9e/aJEyeOHTvm5eWl0WiuXbtWs2ZNUM7w4cMZY5s2berSpUt2dnaDBg22bNnCGNu5c2f9+vXBBYWvwAGDUBVFRUU2BzU5H42TVquNiYmR8/FoNBqcobTv2iB+UgyKwIKwYlXfGySWGYUHBy/4OfkKCmj7nvxG7OjRGyQQBi/fljcI3cK8GpEGK6XUsbCw8Mcff8QHHURlauDcuXN2h0FgmQq1wEkxtGEBAWeQwrguuMVfQgQhu3uD+CIENGA4uR4Yq0wxe8YYeoMEpfCX0OfgdBIWISZ4dYnvQooYBtWuXfv48eNw18XF5eLFi1u2bGnWrFlERER4ePi4ceMaNWqk1Wq9vLy6d+8eGRkJXpnAwEBww2CXOGnSpAEDBkA+bdu23b9//40bN9zd3SHlwoULTZs2jYuLa9iwIUwhQbTUEydOtGvXLjU1tV69ehgnysfHZ9OmTdu3b+/SpQs8Pnbs2MDAQB4GQfr169ddXFyys7PbtWt34sQJxtjVq1cXL168bNmyZs2a7dmz59KlSw0aNADm48ePt27dmjHWu3dvAFWMMU9Pz9jY2DFjxqBbaM+ePe3atcvMzPTw8PD39z948CB0dLGxsV5eXgDUPDw8cnNznZ2dAWBB/kePHq1duzbYRmlpaYMGDQTLlXBSjH+/Apr4kYDeIGVTtDl2QOmUgY/+IaQsEugKJ8UE1cdL6AEkhxjbS6QhF8aYAwaBugEiUDoIrVZLsQaKo77i1gahlfBEFYRBaIeU8cBoNAYFBVE6enzLJau9AAAgAElEQVSnDsJeGjhy5MiGDRts5kbvBME3qdwV/gZgkHIFKWZfFWBQaWlpnTp1cCxv1KjRxYsX169f37x589DQ0Hnz5oWGhuKi6VWrVvXr18/Z2fn69evBwcHDhg3jzWbixInjx4+HFIBB169fb9++PaRcu3atRYsWFy5caNWqFT+2nThxom3btsnJyQ0bNkxJSQHmnj17rly5cufOnf7+/pDyzTffjBkzBmAQgjY4BqlNmzZWq9XLy+vatWuHDx92dXVdv379qVOn2rZtGxkZef78eQ8PD8jk/PnzjRs3Zoz5+/vj7kgPD49z584FBgb+8MMPwHbo0CFPT0+AI8uWLevatesXX3yRmJh47do1QFG3b9/29PTMzc11d3ePi4uDpxhjx44dq1evHlyWlpZ6enoeOXIE7zLG3goMwnWl/JAhoCkDH70HUG4aoBAiDDIYDLwCgXYyGAzXrl0T34AU8aSYHCemy/mdkAEI9AYJ0vlL4hJp4q6Nyl8bpNFoKF7ltwWDeFWLaavVWvmTYnKNhxePMinGGFu4cGFiYiL6uvkcHHSFamD+/PmXL1+2WQS9E7SZlX0dKo5JMVQ4pfsSe4NcXFxWr17NGMvNzf3Tn/505cqVPXv2AFxgjGVlZSW9+sXExEBBU6ZMGTRo0OnTp5EnODj42LFjs2fPHjFiBPC0atVq3759d+7cqVu3Loxk4eHhnp6eWq22YcOG4PXZt2/f/PnzL1682KpVq7Id0B4eHrt374bHa9asefz48YiICJhHY4wFBgZOnToVnDcXLlwAtvj4+Pfeey8iIgLm2q5fv967d++xY8fCXU9Pz0OHDqWmpv7nf/4ndNohISHVq1dnjA0YMGDx4sWA1z09PePi4hYuXNipUyd4cNasWX5+fgkJCTjUDhgwYMiQIdeuXWvWrBlj7M6dO66uroyxHj16rFq1ijGWlpY2cuTI8+fP16hRAxZOpaWlVa9ePSkpCfKEvwiD+EQxTXmP6A0SP86nUAZu4ohM7wEoMKiwsJAyKSY5xPzrFGn81OYrLIgwj94gAe7jL2HUoYzrRG0WFRUJRBJcgoIoJZaWloKvmxdYQIM/lqJNSVApkO3N1waBeODNQ+EFpcAlcBKdRujYlMwKM6TAIDw3CDUpmSflBUnuFBNnK8DZyMATjLFff/0VnN5YHUpbkhTekWhTA6jbmJiYadOm2eRnjMEByjY5KT040e1P/BDCnWK8RSENAsOSSpvCw0m1NtkodcTuSzk3nBSzyWbTV0oczMQwKCIi4qOPPpo9e/aYMWM+/PBDcGB06NChX79+S5YscXd3j4yMTE9Pd3FxGT169IoVK7y8vHbt2sUYgxXT48ePd3V1TU9PnzFjRt++faEiHh4eP//88927d5s0aTJlypTFixdXr159x44djLEff/yxbGpp3rx5NWvW3L179y+//OLm5sYYi4yMdHV1Xbx4cZ8+fXx8fBhjoaGhbdu2hQyHDRsGhtq0adPOnTuPHj26S5cu77//fnBwMIwCjRo1unLlyv79+52dnefNmzd58uSePXt26NAhIyMDlgTNnTs3ICCgXbt2jLHu3bvPmDEDhj83N7fz588bjcZmzZoFBgZ+//33DRo0uH//fnx8vKur6/Tp05cvX+7p6Xn69OmsrKwvvvhixowZJ0+eLCulLJ/4+Hg3N7fvvvuuZcuWQ4YMKRN13rx5TZs2DQkJadu27bfffit4rW++NggMG6qM2+vQ/4rtGsuljB2CLhqfFRDEHoAydgBWoQzcvOMQ5LFarf8XTENcYVjdgqJnZGR069YNL+UI4se6vU6RBrFRU/hSxeIhRMAeTUzQYRCWyFsMZgjvg3KKtHJ/itXhhRdXDVOInnOIFYBPSRIQEw1uSdoGJApgkGRWoFXgl8wKnuKFV2AjtjHGWFRU1KRJk9AxLiebI90uGrBarWULSKdOnUoMTUr8FuS7LWxfYsJoNCrYDFSwvDBIQS1Wq1XwISQWCaao+J3PchkiDFKoAvYAcplAenFxMe/Cl2OmHG8t6JrEFQRpxTAI1tOEh4ffuXPn/v37mZmZgFO3bt26Zs0a8NGCWygsLGzJkiXoOywsLNy5c+emTZueP3/OGEtOTkbmmzdvarXaS5cu9e7d+8GDB0uXLoWNVFDB2NjYLVu2xMfHM8by8vLi4uIA5N2+fTs8PDw6Ohq66/T09Nu3b8MjCa9+Zct6EhISjh8/HhkZeezYscePH8PdkpKSGzduwKKlixcvhoeHP3782GAwHDlyJCUlJSsr6/Tp0ykpKWfOnIHICvfv3wefTWlpaVxcHGyJz8vL27t37/bt258+fQrZPnv2bOXKlQsXLgRRYRX5Tz/9lJ2dffPmTRDy1q1b27dv5zeFnT9/ftu2beg8442ECIMUWge8VjoMoowdkh+0oAH+r80eAGqKm0D5ivP5AP1GS6StVuvNmzflChCHVpUMzIaJEALQZlg1iJjIBx0UR2uDgCMQLw1oub/FxcUQD1WOATI3Go0Q4FOZDVw4yrFOIUYj1lqcIcRwKSws1Gq10Pkis5iAuTNxJpgC6sIYk5guICCam03lQyhHiOkmFgZSIAQdxrUVFISXdMFshlZF4YuLizF/sVXIsfGPmEwms9msVqvh62revHlLly5dsmTJ0qVLfxT9lixZIkoTJix59ROmiq4XL14sShMmLFmyhM4G5cr9/fHHH+VuidNtMi9evBhVgQRKjyk8G96FzH/88cfQ0FC9Xm+1WvPy8iAkp+C98JcQWlW5oWHTRrPkc+BpnU5nNBolDQaN3GAw2GwdZrNZpVIpsEGhlM4EegkIYwyy8QIjDXVUriCxX4UgmthsseICAtigjxLcElxCvwqJKDBPiGOKSQ4lYs+TJBs/tiGD9dUPbp08ebJp06Y8m8ABgE/xPEDzMiiwwWctPi7mLC0tbdu27cyZM+/cudO6deuVK1dKMosfRDYg+HoJbuGloHYC2eBMAZuhVQEZ829NTINJqFQqHK3EPJCi0+mUxw7oorVarXLTJoZWhak6gVmKL0tKSvLz83lEIeaRGzuKi4ud4uPjccEaah8J/sMiIyOje/fueEuOIH6sQ1xVzETSaGBtEMVcEDBihmKC+C1oR6ffm0+KYS2I34K8QwWfFRMUV9xbWRtkc4cOfdYVEDzU/cWLF/fu3fv11e/+/fu//vpr2T5YIBISEvASEgV/f/3118TExLt379pkg29fBbYHDx7cu3fPZokPHz6Mj49PSEh4+PAhyCz3FwR78OCBHAOkY4lybA8ePLh79+6dO3cePnz44MGDhzK/Bw8e3L59+/79+4IS79+///DhQ3TblJSU4Fy2QuMlHp4Gn8iS/QNv2BDqSJmN2DoAA4mHHL44q9XK+4P5WzyNk2LKglHiNBGFN5vNEBJBskRMFHS/vMxIYx3xKbzFE5LeIJ7BjvSjR4/WrFljxwzLmxWoIjk5ec6cOWVTfpStAOUtolz8lb82iDJ2EDGATW8QqIIyuAvODZKzWIjMLdawU2xs7P3798U3IKUqwCA52fh09CpDomTnW3EwCIoTqx6+pXg5JWlKf+qAQag6wayrnPJxhQc++A4R4q/Ad0h4m9OpUBdiJ1j5MAg+ZJUVjhBBmY1eR3HvIciZCIOU1wZhKRQYBBMlynCQMVZpMAgbhWT3LlBXxV2iDrEIcQreqmii4mCQnJJLSkrwRcjVrsrCILnZuv9bGyRZpQqFQRDlWNKG4Ph84k4xfoGk3MuDJZkUwEH3BoGQkvKDMh3eIDQqCqInQj2EQaWlpQrKF8AgnpOnKSZhNpspbiqoI585Vh8JFB5TJAmB8JI8sPSEd/XLsVE8JTY/EqBeFL8FwiBJVWAiHSLYHIlx8RlmLqkKm0gCHqconw6D6C9IUmZMtCk8cPIwCLUh7hXfRRiEqnAQqIGKgEFoNlgKT1RlGGSxWCQhGtq/HD57mzBIuYMAkMHjMP5lCGiBN0hwFy5tdvTARodBNntnBwzCF1ERMEi5ueJgpsBG3AtTZWEQcTCzS+sANVJc4giD8O1LElUQBoGcxA3zFABNWYmMGE5SS5j4GjAInxUTRMuhuOIqzRskroUjpSJgkLJWKT2AHNoQ5EzsAShjB06KQTcl1+dXRW8QD4NQbgRusAoEYBDeFegRLymaqggYhAJIEg4YhGqhvKDyeoMwc0kCYRD/fcAbEuBsIkSoZG8Qv7BJsnaQSBzMiHVUHtdBdVAiNFL+Ly8kD4P45swrH8Z+2EXFPyumKSMxIglBEYLciEhCo9EoqwK+f2zylNddJ5BWcEkUHr1BkqrARKLlUJTvgEGCN1WZlw4YhNrmd4qhnfP9D8wISXaGb98bhBJjfYBweIN4hRAhArGvpCD6qr9EWs5yQG8Ig3g1omkhIdkqBI84vEHo+KRYDg+DBJrEfPjN5GIePoUyEtsdBtlEve/WpBivT6AdMEisk3cxxQGD8K3hKdKYwhMwWFRRb5AArKHckP56a4MwEwFREd4g5ZHY4Q3CV1AR3iBl5VNgEL+qDEUVEw4YhPClXDBI8gVhItElXmVhEAVAv91JMVS12KQdMEisk3cxxQGD8K0pwCCEGVUUBmEdJFvsa8AgzFBMVAQMEpfCpzhgEGqjImAQZi5JIAySNC0Y1x1rg1B1NlsHqLFcMAjBE5bCE78lGCRnY28XBvHaBhrltCMMWrt27dWrV8VlOVIqQQMOGIRKlpwUw7tA/PZhELZwQc3x0mZHD5zlWiKNmUsSDhiEanHAIFCFfXeKEQczit/CZutwwCA0ZoB3vFblOp+3CIMkRcJEouVQXHFr1qy5cuUKrxwxjeWKCTHzm6Rg/uJM8BYSPA86DJSxO//Im9CSMrxGhlUTBhE/L4kfQpSxA5dIgw7l1FtFYRBvfGIjIHqDeKXL1b8iNsyjR0EsOaQ4YBBqhmLKxIVNiCSUjQe9QSgDEryR8IMZMggIO06KEeuoIDwvG3EwI9YRxjw+f54GpZXLG8TrGbPCRGInSBmJ38raINAqVgcryBNvEQYJhnOBnETLoSh/9erVCjBI0EhxvwIvj9Vqxe0yGL2cV6OgLv+fve8Oq/LY9r5/3O+5z5NzT7lP6klOErEholIUEBAUUZqCIggWxAIiKgiImsSCgFEgYkOkWGND7CIiqDF2pKiAvdAUUPrem11hw56Pwzpnzpu3jslGMNn7D5h33vXOrFmzZuY3a8qivaI9UlOmvQKsj/OivuW/fYNKqcUwFPa3JNgdMIhHgNDQcCVycd5TJ8W45ImV8FfCILiQFEpbXV2N3fNylR/0lb8/hW9JOgiNRkNlgCdTkhwJdxmT3IxCuKcEPEjwsA2vSEYpQuYxRODPlOTuB41Gg+8C5kntrQYznnRAc0hEQbg7Fe6Y588RWrUgTXt7O/mZJv7UNBqN4PZb8OVHkiNJPZKXkYQxwoZGojmEjhVJuIIN1/zdN9U/MX8daVdzWAddGgMkdU3oWhXfIk3LgvaoRc3Ztm0bDwyaOnUqOEDFDMTFxUVHR3e6dj9z5sy9e/dwfEFBwfnz5xFCs2fP3rVrF46nBpjKwKz07OzsyZMny+Vy6ocQ3rlzJ3gn/emnnzZu3BgbG7tz5878/HxMOX36dJw1M2VMxgXL+D/Bn4NKNDc3jx07lufuYq5ccDoIIUKfYiT9Kj5jSE2fGSbRHMJhiLAHIOlzCF2rUi0m1KIJnBSTSCTYd2ZlZaWLiwvMjOGSeOZfeKtUKjs6OuBD1r/t7e3g0Uaj0QABjKZU4vaun1gs7ujogHGI+haH4cYkhULBZIYaA4yBtylqPC2sVquVSiVUD86CGWhra1MoFB1dPy7eAEbIZDJ+UYBrFUGpgj8UAEM0nvEjLiN/jlj4PGRgtBCJRFylA5lAUiAxzAYzAFKFCmUKEycFZRSsbnBkhlNjzQ4hJBaLFQoF5p+pYFDL4CmQiyugAfc0POKCzyE7nCMzTUiByhWTBu4UlUgk0IiYpcMxMLOB6QRrOhAJdcTDFS4jFgXOghoAMoVCoVaroY5Y0wTNgWZL44pKD/NF6FJpZLRH4Ir6LY0AHgXJAEbgMrImAkUTi8WwMs7fKlUqlWB7BCdHPCoNagxS5WIJuAIfbfxygLoWiUS4X2VNE2uOoEqDEnJlCsM5/96ge/fuvXr1ijrkBAcHe3t7I4QMDQ0BD8HbZcuWmZqaIoTu379fUVFB/QTC+fn5TBfrTLK6urrCwkKa41sgW79+Pbist7GxGTFixLp16xYvXmxsbOzs7Az0RUVFrFmT4FTA2TR+WIGRn59ffX09QigvLw9cH1K/ErS1UIkTExOlUqlgPcrlcmpbZoZBc1paWrDmMGmgC4WBmydHcpWGfpVLu0B1cfclSCYWi1m1HUdCa4WBm9a0hWEQ8IoQKi8vd3Jy4veXBm1VLpfTsqHJFMZ+6JJwgjQaiAdnb5iG6S8NvhL03IkZ40mqtbUV3I6CtyMmPzhGpVLJZDKQL46kBsDmLBKJSFyrgiN6ZtFwDDhWBFXGkcwAlBG6VCozzDC4e+SvI6VS2djYCGZkZl4QA+IiYUywHeIK4ucKyMDdAZSLyRsMrvwOMqGugX+mfKgxgOFIpAq+qKjf0sIgTB63nVCW9vZ2kUgECsYsHY5Rq9UKhUIQ2ZOXkb8eoSzQ0HAdYWZwAHS1qalJECJoi3lgTFDBwJ0Qfxmh4Tc3N0MPhgvFDIDbVJLOhFBzsELSdAYegXnBpKBfbW5u1orwYb7Byg+ORAht2rSJxxq0a9euO3fuIISOHj06Y8aMLVu2+Pr6BgcHI4Ssra23bduGB/Xvv//e3t4eIbR//35IcP/+/WFhYaGhoVlZWQghb29vCwuLnTt3dn576dKloK4fPDY3NycmJu7cuXPVqlX37t2DyIaGhqioqODg4KVLl4LRZePGjTNmzEAI2dnZJSQkQNZKpdLS0tLV1RUhdOjQoatXryKELl68GBYWFhQUtH37doAylZWVy5cvX7FiRVZWVnJycmtr6+XLl48cOZKUlDR//vzExERI7fbt22FhYSEhIRs3bgQzxu3bt5cvX75s2bL4+Hi5XL5169Yvv/wyJCTk6dOnKSkpr1+/RgidP38+JCQkPDz80aNHsM1lw4YNQUFBYWFhRUVFWETMQGJioqBr1ba2NrgKi6nGOAY0RywWg+bgeFoAOhOePgdaEHgL5m8d0H0JTqFJui/AZ+CFHWsmMwCNCPpVGm8CMIi6JlVVVeXk5MSsCVoM4ZoF4aIY4S3SJHYzqGAat8xHkkUxLtsaLTXwCU+LZD4yLb1MGkDfzHhaDKE1sq2tjXWaQktNLBbTYpiPYCRgxtNiSCqIsIwwXxG0GAMApbHBfCRhDCYizG9pMSSaQ7i0QeLWClaCSOaOhGUk0UOSaXF7ezvJohhJDwBlpMmZ9ZGEeULhE27Mwq5kWfmBSJgp8RDAKy0yr1arZTIZSY4kmkPCGP8WaVNT0yNHjlRVVX3xxReZmZm3bt0yMDAICQlBCNnb2y9fvryysrKkpOTly5eLFy8GLDJq1KiUlJSMjAwzM7MHDx5kZWWNHj360aNHy5Yts7Oze/bs2bVr1/T09I4cOZKfn29sbLx79+7m5ubPP/98+vTpFy9ePHz4sLGxcSeYCAsLc3d3r62tjY6OhpjNmzcDDLK3t4+JicFSys3N/eSTTyQSyfjx47dv397S0mJmZnbkyJHS0tIhQ4Zs374dITRu3LiFCxcWFRUFBgZ+/PHHHR0dMTExgwcPPnHixOnTpz/77LP8/HypVNq/f/+tW7fm5+fb2dmtWrWqra3N0NBw3759L168mDZtWnJy8vnz57/66qvjx4+/evVKT0+voqLi7NmzFhYW169fj42NNTQ0lEqlCxcunDx58qNHjzZs2KCvrw+mI8wtNUC4KEbSA5AvpwqOHYQYgHDsIFnRI18UY1VpARhERSGvXr1ydnam1gFrmHB7FN6jxyNTwi3ShDt1BM/CQHG0eFJM51oVawjhFmlWHcWJQAAPZnjjG40AHkkGM0I4C8YP1lyokSSaQ7hFGgyE1MRZw7gRsb7FkST9CGHrIIF6/NcnYq5gDocfuQLQg/P0EvAhMMZPRih8Qs0hgUEwJRWE7CSjFCHzMPXnEiaOJ9QcEuHzL4rZ2trm5OQkJCTgfaXz5s2bP38+Qmjy5MkDBw50cnKyt7d3dnbW09MDjOLk5LRv376srCw9Pb0LFy7AwhxCaOvWrdOnT0cIzZkzx9fXF8qSkpLi4uJSV1f3+eef3759GyF09uxZc3Pz1tbW2tra27dv5+XlHTx4sG/fvlKpdPv27awwqKKi4quvviovL/f09AQD1cOHD2/dunX37t0pU6aEhoYqlcp//OMfTU1NCKHCwsJPPvmko6Nj/fr1kyZNAjYcHBx27959+PBhGxsbiLl48eKQIUNev349aNCgNWvW1NfXwxpiZWXloEGDoEnq6+u/evVq0qRJGJPl5uaWlJQMHjz48ePHkI6xsfGPP/4IYeZfLW6RJtwbRHJIghADEPYAJGMHmNAE9+FxmQl6HgYxqxbH9GYYRNJz6WAQrkoSVSY013Ht9sd5QYDQJQIhRCDBZ1BG/pGYqx3SmIeFM1ok85FwMCMsI4lKk9Tj+w6DSOyIGo2GEAaR2M9IJE8Ig1pbW6lzV6bOQAyh5pDAIH5nGra2thcuXIiNjQUEgxBavny5v78/Qmj06NGbNm3Ck9jIyEiYZjs5OW3duhUhdODAATs7O319/QULFgAMmjp1KkJo0qRJERERUJCTJ0+OGTOmrKzM0NDw6dOnsPPawsICIRQfH29lZbV06dJly5YNHTpUoVAkJibOnDkTDFEYeQCy+fTTTxUKhbu7e0pKilQqnThxopeX14YNG8aMGbNmzRqRSNSvXz+wjtfU1Ojr60ul0piYmKCgIGDD0dFx7969iYmJXl5eEHPv3r0vvvhCrVbX1NS4u7ubmpqOGTPmZddvwIABjY2N7e3tgwYNevny5cSJE/fu3QtfIYSqq6sNDAxqa2shxs7O7ocffsBvaQHtwiASO2KvhUEtLS2CBk4ufKaDQTS9QiRzevLBjGQEIuwESUZi8r5SUGN6vzMNes398lkHg7A8SJSQ0Br0B4FBgm3tbWEQPzgm7AFIyHobDLKxscnJydm+ffu4ceNAIb29vefOndu5/8bKymrLli1YS6Ojo2HThZOT07Zt2/CKvEKh+PDDD9PT01NSUmbNmoUQCggIwKAqISHB0dGxrq5u8ODBsLHmzJkzo0ePLisr+/jjjwEYFRcX//3vf0cI7dixY9q0abA3aMeOHTjrMWPGuLu7I4RcXFyOHDmCdyl17teeMmXKypUrO7/9+OOPm5ubEUK3b9/+4IMPZDJZXFwcmLU6Ix0dHQ8dOpSenm5ubg7Jnj9/vk+fPq9fv8YFCQgIcHV1raio0NfXB5oBAwZUV1f7+/tjVLd///7r168PGTIEnyDT19c/cOAAZpUW0MEgLBAdDPondsHi4AqQd/SCEEEHg7CQtWjYJLQGEQpfB4NwHWm3dfCP6HBBF+HeIHJLiWCmWlwUI9mYpYNBWLv4rUFDhw5NS0urqan54IMPEhMTjx8//tlnn82bN495Uiw8PBwwhJmZWWLXz8rK6tq1axcvXuzbt+/NmzcPHz789ddfX716NTc3V09Pb/fu3RcvXjQwMDh06JBYLP7zn/9cUFAAe7EHDhzY2Ng4ZMiQ6OjoS5cu+fv7f/TRR6dOnVq5cqWHhwdCyMbGxsnJKS0tLSoqatiwYYMGDYIFL1NT0+Tk5GPHjg0aNOjq1atJSUnGxsbW1tad62uOjo6enp5ZWVmLFi3S09PrPCe4evXqCRMmgBwsLCxgC1G/fv3Wr19/7do1MzOzjRs3VlRU9OvXLzU1tbi4eMqUKWFhYTKZ7MMPP9ywYcOjR4/69OlTUVFx5cqVfv36ZWRkREZG/v3vfxeJRGFhYfb29gUFBStWrBg6dCiPeU8Hg7Ae6mCQDgb9Sxl01iBqqxCcPWt9bxD/diWEECGG0y2K4XqEStTBIPKmzTNqUqUquJEC3zjFL3x+GLRjx45bt24hhE6fPu3g4PDdd9+lpaVlZ2fDItelS5cwS5mZmXDeavv27T///DNCaNu2bZ6enlOnTj158mTnappcLg8PD1+2bBmYZHx9fX18fI4dO4YQqq+vX7NmDZx1v3PnDix4FRUVzZo1KyAgoHPJ7Pjx45GRkenp6WlpaXAiLDQ0NCQkJDg4ODExERv/tm3bBlknJiZOnTp1165dtbW1ixcvvnDhgkqlioqK+v7773Nzc62srMRi8fXr1/GunaSkpMuXLyOEnj59GhAQ4Ovrm5ycDEW7cuWKj4+Pp6fn999/Dxnt27dvypQpd+7cSUlJqampQQidOnVqypQpc+fOvX//PvQSsIwYHBwM1w1wVYEOBmH90cEgHQz6lzKQ95WCFi/dohhuYORbpHUwSGcNwmoDx9zA4sU1jAGxIF6HO2lIyHrbohgUkFl8bAiEjgh3RyTgjCphWvq0ZJmUrLf7QCR/1iEhIfv27UMIUXdGA2TBH+JS4HyZBWfGYGJaWXA8zyeJiYkke9RI7MFtbW26vUFY5r8IUCcW3XRS7Bf5/fJBt0Uay4NwwUgHg7DEdItiWBQknSD5kjFPpww5/g62SGPzAJYhLaBbFMMC4T8phsn4A1ipaBMJ5iMzHa5vMSUQYDKIp6WMI/FXtMClS5cmTJhgZ2fn6ur6/PlzOP3HmjLtQ/wIOTLZAALWeNZPcIIIocTERNb7sqk0eBM6LZL2qINBNIH851EHg/4jC0qIfGmDZAQimeTpYBAWP6HwdTAIS4xECXs5DMJl4QoQNiISsu7YG8TFNsSTcEU+w6F22lz5avGk2ObNm2HZiysvkngaCMCfsIIVrgsIupUYWIItRFT2cBgHWMvyq3nj+hCy27FjB+yrf4AAACAASURBVOt92ZgZCJD0ADoYRBPafx6pLapHrEEkey0J0S55R8+0bf5HIl0hfO6OVeMxMaFrVRIdJWSe8DA54Wk4fMYBl4gZILwgjuSEkXahHuHtL4TCFzQPgBLy60N37A3CqwDMqsExhGUkGYxJNEetVpNoDlw4i5nkCgDzgoIlua2AEEloFwaB5vDzTyJ5Qubf/aLY8ePHz507xwVNuKqVNZ5/yGf95J1F8tfgO2ODmlFDQ8OaNWuoMVxhkh5AizCIcM+lFo/XEF6fiAdumqAEDsx36y3SgmhDo9FQcRiNdeojST9CpdeFtSUBwptASSoI34vIzxu5NYgEIpAwRojPSK4WJCwj4RZpfkHp3v46CZDcG4QQItmTQThJ0KISEl6fqMUrvGtqapYuXQqi/o1YoTfDoF+nS93xFZbSzp07Dx48SJIFiYJp8f5xchiEt1XxlIIEw4E7akH147reWgAGicVipVIJfJSWljo6OqqEfkqlEhz38BCCzxHwJ9La2qpSqSAX6ifgPaqxsZEaSQuD58LW1lZsNCovL7906dLZs2fPnTuXmZl5jvLLyMg4e/YsLZLy/p/BzMzMjK4fxGd2/XBS8JiVlZWZmXnmzJnz58/Dq7NdP3gL6WdmZmZlZZ08efLUqVNAk5mZSc0dcwg5UrOjZoq5PXv2bEZGBs4CkqI9Yv7hq6ysLMwepoSMTp8+ffbsWUxAzQUzefbs2WPHjkEKuAhQiqtXr1ZXV6Oun1QqhVsildw/cMEG7mloNYgfW1tbFQoF9reF42kBcL/KTwYG/+bmZrDG0VKgPoIeggZS46lhYAx891LjaeHW1lZ+33AqlQoy4ucKPBc2NTVhlX748GFOTg7UIGgaVOK5c+fOnDmTkZFx7ty5rK4frm4gw3/PnDkD+oZrk0oJugoKRlUJrDMQgExPnTpFVV0aDVb+48eP49YB6UPKkAiEIUeaJlPzAuLTp0+fO3fu/PnzrLxhUZw+fRoywjE03rKysqBpUznBcsjLy4MpX1tbW1NTE79KQ38F7tW4tf6f3aZMJgPN4dExmIUzO0CqgoHag3MeajwtDA6YmpqaoPOkvcWP4CwMNA1Hsgawr0bWt9CiYYdKbGws0v3eoQSuX7++aNEi1qGTWlmgV+CqmUdXoftqbm4Gn4CQLJMeVJpfc7DbRyobzDDoqkKh4Gka0GfyKyGk3Nra2tDQoFAogGdW/lUqlUKhAFsvLVMBGASH0Do6OhBCL1++dHFx6RD64XUZHkJAizBZBzJwFE/9RKPRdHR0SCQSCFBfMcNwtnPt2rXh4eEHDx48cuTI4V/+Dv37d/DgwUOHDv3y5X+e4C2m+fdHv/gP1NSog12/w4cP0yKBElI7dOgQTpZKid9SI6npQBjIMDEtKWr84cOHDx48ePjw4bS0NEgTE9OSxV+BQKgZAbdpaWm0Tw4dOnTkyJF9+/YFBQVh34SwUAKOhVn/gimSWWvUGPAUBksb1HhaGJMhhLgUQ6PRwN3qgqkBY1zpQNYajQa7RKAxQ3uEW/9pkdRHyEiQK4QQLCqVl5cvWrRo/fr1R48epWodtXIPHDgAj7i6aVWGaxl/hdWdSsmvfqAPkAL1K64wTu1g1w/IIEzlB5LF8VRirJOYW6zMVHrMAE0+OB4THzp0KK3rR00QwkePHk1MTFy0aFFOTg5MK6GOWJUZR5KoPThMhcXQDo4fdIbMDpBKDmoP5kZqPC0M3SBY0GmvqI8wJ1ar1fyaj1sHFxk0NOjGk5KSQkNDc3NzX7169fLly8q3+ZV3/SoqKiorK+FbavhtUuKjZeUKMoLPWAn4UmS8I0mBhIaR8L8iXnb9njx5snnz5pCQELBH8vcnoFcKhQLrLWsAlBA8zLMSQCSoRHt7O5dKdHR0wCvBzhDOUYJ3S6py0sLAGC2S+QjnmmFpgot/8FkJQqOlIAyD0L9/VVVV+Laof8ex/AdJsbz4ZZTgzgCQJnVV7pcJ/OJJLBYvWbIElqh/8UL30G0S6LwAfu3atdDFC2YCbZWfrKOjg2ShgVDBwPEyf47Qxvhp4AQ4yd4gwmvmSQzUcMF/QEAAnEkR5FBH8Nsl0DlNXLlyZXp6Or4vhydNwpNi+KoFQAxcCZKoRA/uDeJiG+Kxn+b79+/v2LEjIiIiMjIyKioqkvKLjo6O6PpR4v4V7OxD4BcZGRkREdF5ZfO/I9j/Axmk1nn5MjtRVyzQ8BOsXbsWEomMjOSijIyMXL16NQljq1atWrNmDRSMK7WIiIjVq1evWbOGn72IiIjOfT/MRFatWhUXF3fhwgUQPuGqK0m/Su5TTHAli7CL1u7eIIlEAvYaHnXlYqwnYRBIk7WD0HT9SA7Mw+cbN26EK7l4RKB7pS0J4Crbs2fP7t27SZIlgUGEHT2XKtPY6JEt0iTtkGTME4lE8+fPB8/SWNq0AuoetSgBLOTly5fn5eUJpkwIg7AdEafPmjKJShC2ju7YIs3KM47EZcQxrAF+CeBPSOYbmLi3BUjqEXWZsX875yBPjLP5EyTpfrW4RZqwi9YuDHpH1ydq3RpEBZWsjYQEBsFqXSeW59cD3dvukEDnRDAiIoJkqkHSDgl3IhOOBz0Cg1jVmCp5wv3dp06d2rlzJ1jaBNOkpq8L/2oJgJzv3LnTOQUXTOQPBYP4NZAQBimVSv50YJWExPzf6ciCOnZwVRZecODJl9weTAJxSEZijUZDcsRd8EYDKBQ5DOKSEo7XIgwilGqPwCDWeux5axBUA6umEsKga9eu4UvNcaXqAt0tAaiyDRs2wAXw/NlpEQYRIon3Ggbt2rUL/ERqa+7IXzu6t1gCSqVy2bJlgjYJHQzCEnv3MEgQIgBvhGQkB5EI0UZLS4sgPiNc+scYDsuZNUDIGEkZtQiDdNagf3pNIhQ6yQoCyYH5GzdunD59mlVL3mUkFclRwyQ8MEXxtimQ5NIdNLGxsXfv3hVMuUdgECvwp7JKOGsh72tgMZeaBS1MiOGSk5PLy8tp32rrsVtViyoBmlYz88XE1FfUMK3IeIyhpUwj+y2PCoUiODhYcL5ODoO0eGuDoD5Tt0jzC4EQIkCOPDWCN7ryZwf3C/CnQ24NImceKwwPeySjFeG1bToYBHImxwAkrYNk7Ojee4OoKETri2KCfRmhNejmzZsnTpzgUfSeeoWbPexL55/ZX79+vaKiQqFQpKWlNTQ09BTPb5tvbGxsUVGR4Fckqky4KEaIJN7rW6RTU1PfweZo2F8Js3mSwUCwljHBqVOnSkpK8CMOKBSK7Ozsurq6kpIS2ma+lpaWCxcuCHo1evToUW5uLn9Twtn9ioBMJsNncHg+f1sYhLsC1jRJ8A3hWnB37A3iZ/4PYg0iqSMdDAL11sEgUmsQ4bEaKg5j7UEQQr0HBtXX11tbW1P3FrS2tjo4OCxatIjJPJ4KwytHR8e1a9d2dHR4eXmBq2TqJ8yeiBlDpX9nYR0MwqIGqMdfL4QYLiUlpVthUF5enpWVlY2Njbm5uYWFxeDBg+fOnYsLAgHWgjAjaWoM3wYEBBw6dIiWIJxFHzBgwPXr18+cObN8+XIqQWlp6ddffw0Ot6nxtPQjIiLs7e0BBjGZoX7468I6GESVm84aBNLQrjVI0NYIVj0SSwm5oZparaxh3aIYq1j+GUlFITprEKeY/v2iurp64MCB5ubmzc3NEJeTk/PRRx/NnDkTHiUSSUFBAXWEUyqVV69ebWlpmTVrFtyMXlVVBXNijUZTXFxcWVn57+RRfX19fn5+aWkpxHTHMIDzIgzoYBAWlBZhUHdbg86fPz9w4MD8/PySkpI7d+7k5+c/ePAAClJaWlpYWCgSiWCRQiQSSaXSO3fuUPVQLBYXFBRgPYQPHzx48OLFCwhXVVXBMTeE0MOHDwsLC8EBpEwmGzRo0IULF9ra2mpra4G4pKSkqKjo6dOnRkZGECmVSgsKCvDuKAA9P//8s0Qi2bhxo6urK3zYHX91MIgqVR0MAmloEQaRb5HWwSAQPslKgm5RrBdZg8rLy6dMmeLh4YGnwosWLbK1tfX394ebYGxsbPz8/EaPHv3NN98g9E9YM2bMGA8Pj2+//dbCwiIpKUmlUo0YMaKmpkYsFvv4+MyaNWvMmDHR0dEIoVOnTtna2gYGBlpbW69fv57aW/VgWAeDsPDfIxiUnZ1tYWGBOceB6OhoDw+PoKAgCwuLCxcuSKVSR0fH8PBwHx+fPn36dN4UhRC6evWqlZWVn5+fjY0NGD47OjoCAgKmTZvm4uICNh5XV1c4teDl5eXh4TFnzhxbW9vXr18jhIYOHZqfn79nz55Zs2YhhLZs2TJ48OBFixYFBQWNHDlSoVCUlJSYmJjMnz/fxcUFGo5Go5k4ceK4ceNWrFgxefJkX19fzLDWAzoYRBWpDgaBNHQwCGsF4TIOySJ7j5wUY2VM4KQY9fhidXU1yfWJXG47sBwhgC/dosVTHzUaDZUB6itq+NatW71kb1BZWdmkSZN27twJSwzPnj1zcHDYuHEjdNz29vbbtm2D6/gGDx786NGjjRs3jhs3DmIGDBiwbds2lUqlp6f35s2bOXPmBAYGIoSKiorc3NwqKirMzMzgbrenT59+8sknJDtyqFLqpnBMTExxcbFg4iQr63DLp2BShOtKJA4ySS7KQwi1t7eTzMwIyyh4Cgkh1N3WoMuXLw8aNGjFihXLly8PDw9fsGDBlStXJBLJ559/Dt7Cr1+/fvr06YaGhr/85S9wK+mRI0f69++PELK0tExOTobpl6Gh4ZMnT9atWzd+/HiEUE1NDeiqk5PT3r17O01Ka9euhfI6OTl1XkDXieaHDRtWWFiYlJTk7e2tVqs/+eSTn376CSF04sSJfv36yWSyzMzMxMRESL9fv36PHj3qvPx54MCBoBienp6TJk0SVJJfTQAwiLWvpKVJck/Eu/e4R+5TTHBrJpgDaaVmPmpxXUatVpN0+G1tbYTMk2yRJmm2hNsWpVIpCWMkmkPo9E2LXZNarQaTLbOKqTGEAzdJC9Ji6+hen2ISiQTzWllZ6eLiwnVTNY5va2tTKBQdHR04hhmAQ4Ogzcy3OKatrU0sFuNH1gBC6Nq1a70EBpWXl48ePfrly5ceHh5NTU3x8fHh4eFnzpyBRbFhw4b5+fktWLBg+fLl/fr1y8zMXLZsWXh4OCjZ1KlTY2NjVSqVoaHho0ePTE1NMzIysP6VlZUNHjy4sbERYkxMTFJTU/HbHgzExsZ2XrUCWIG1guA2d7lcLnjTOThO4koE4sE1KYmCicVihUKh0Wh4ElSr1YLXzMN2P7gbniep9vZ2hUIBm455yEhaB0IoOTkZLzB1R+VevnxZX18/Ojp6/fr1UVFRy5cvv3r1KkJoyZIlhoaGixcvvnz5MkLo1atXAwYMaGpqQghVVVUNGTIkLy9v+PDh/v7+8+fPDw8P19PTS0tLc3Nz27x5M5XPUaNGJSUlIYTOnTs3f/78pUuXDh8+HNZ8jYyMCgsLU1JS/P397969q6enBxCzqqrKwMAAFuPi4+Pnzp0bFhZmaGhYVFS0fPlyvKwcFxc3ceJEal7aDQMMglVpnnoEP5Q8BKD24NGJpzOERkGihODbjicpnKNIJOJX+46ODvDlxJ8abh08LZewdXR0dJD0ACqVCrwn8QgWM89Dgz1IwA1D/JRyuZyfAJcRMAe0cebfjo4OsVgMxhKeBEk0p729XVBzwKMFOM/ir0fcNfFwBSMyiTMN8JHHoxIAGUmkSlLG9vZ2Qc2B6haLxYAduYrJM3YIWIOam5tFIpFYLFar1U+ePHFxcZFIJBAj5viJRKLm5uaWlhYJ96+lpaW5uVksFvOTSSSSuro6jnz+Fd05Pb1w4cLJkydRL/hVVFSYm5u3t7fHxMT88MMP3t7excXFx48fnzZtmkaj0dfXT0xMPHXq1LFjx27cuIEQmj17Nt4o6uHhERMTo1QqDQwMysvLx40bR70F4Pnz50OGDIEBCSFkamrae2DQzZs3NRoNd23/801jY6NEIhGLxVxkLS0tYrG4qakJAjyVLur6SaVSSJCVsqWlpaGhQVAPgTHWFHCkRCLBuoojWQNNTU08BYSCd3p94ecKbmDbtm1bt8IgrkUxhNCdO3fi4uK+/PLLqKgoqVRqYGAAG92qqqr09fULCgqGDRuWkpJy8uTJEydO3L59WyaTubm5bdq0CVF+NjY2J06cyMrK6tevX05OzuvXrz09PVevXo2tQSkpKX5+fnfv3u3bty9MoCsqKgYPHqxQKGbOnDlhwoTHXT9TU9NHjx6Fh4d7e3tD8jExMd0KgxQKxZIlS+rq6pRKJZeuguI1NjaCrnKRtbS0gK7iXo5LPQQ1BzKCRsSVnUQiaWlpaWpqqqur429EWO15WpBYLMY9Oau2Q1mgJwf+ucign29qauIfOKBp1NfXS6VSLDHWwuL2yPoWIoExkUjEnxS0bp50QKoikaipqQkYa+H4SaXS+vp6wUEN93I8mTKZZ8pWJBIB8yANJgGOAa0gEX5DQ4Og8AV1FcolqBIAJASZB3HxKyqooiBUAAWDIYYmfAEYRDVRVldXOzs7I6EfeAEUokJqtRq6P35KKgNclL1nUayiomLYsGEtLS2lpaWmpqbTpk1DCKWkpMCmTktLS+yOFJYVVq5c2bnBAnaAfvbZZ3FxcUql8ssvv+wcKZcuXern54cQKi0ttbS0fPDggYWFxfHjxxFCL168+Nvf/kZyWw+XxLQYHxsbS7IoRrKoBE5MBXkjXHWVSqXt7e2CqZEsUeH7DvhTI7GuwwIofzqwKPbs2TNBsl9NkJ2dPWzYMPDCo+z6IYSKi4vxbeyJiYkmJiYtLS36+vpgGTpz5kyfPn0QQlRLZFJSUkdHR3x8vJ2dHbizHTt2bFFRkaOj48mTJ6OioqDHUKvVAwcOXLVqFUJowIABBQUFiYmJXl5eCoXiL3/5Cxii9u7d+8knn0gkEn19/bS0NITQrVu3/u///u/hw4dHjx7V09ODwo4fP56kF/rVklEoFCEhISRneUhUGiamgsyQrCCAwVUwqfb2duq5Fi56kqUNwiVjMAxwZYTjSRoaWErwJ1wBQubBdyxXIjieRPiEi2JisVjT5dcZJ84aIOkoCMtIuHZGInxw+c7KMDUS/PtSY1jDJDkS9qskSUHnw8oJNZLrojgBGERtUa9evXJychKsZrx1A066ctGrVCrBfgRsDNRisIZv3LjRS6xBZWVl5ubm1dXVCCFnZ2cAPYmJiTB/vXfvnpmZ2axZsxwcHDw9PRFCMpnM2Nh43Lhxs2bNsre33717t1wu19fXf/nypUgkGjt2rKurq4mJSWhoKEIoMzNzxIgR8+bNMzc3j42NZRXFu4+Mi4u7d++eYL4kV+m3t7eTdEn4GlZQMK6spVIpdDdYD5kB8o4emiKXMgMP4HKcix+Ix62DSYbZewd7g65evdqnT59RXT84Nu/g4FBcXDx9+nQ7O7t58+YNHz48IyNDLBaPGTMmMDBw6tSpAwYMOHLkCNxPYWxsDBrr5eUFBXF2dnZwcLC2toZdcY6OjocOHaqqqjI2Nvbw8FiwYEF0dLSRkdGxY8fGjRt3586d5ORkaAKRkZGffvrpjBkz5s2bZ21tLZFIduzYYWho6OXlFRERMWfOHCcnp4qKCnt7exMTk4CAAA8PD8iCv/aZ4iWMUSgUoaGhgpskMBbnVwl8pw4/GclmETDpC5aira1NIpHgCwWwUlEDoPYkkwRgjF/Ura2tJAMVSQ9A2xuEecalBjGyOtNgSpjklkXC+58I9z/BsgmP8ME9Dkkvh8dHfuGrVCptCZ92YJ5L+EqlUlBzuNAGrkcIaFFzEEIikUjQsMI1xLwdDHJ2dmZqG61shFcnkVwWrtFoqDiMlhF+vHnzZi+BQQqFory8HPoOMDAihBobG/E9QE1NTRcvXqT6bpRKpRcuXHj27BlY9tra2kpLS2FrglQqzcnJoVp9Xr58ef78+YcPH0LZBesCi6j7AnFxcVQOuTIi6QS5dJSWJlYw/uILwiDorUi6JHxOhD9H2D9E45b2yAODqJTdfW+QVCotLS0t+fevuLj43r170Lvdvn07MzMTDsNXVFSMGTPm+fPnV65cefz4Meawtrb24sWLhYWFOKatre3nn3/Gil1WVgZXgL558yYnJ+fNmzcIofv37z9//ry8vFwikTQ1NVVVVcHnBQUFly9flkqlr169gj797t27Fy9e1Gg0HR0dhYWFYG/Izs4uLi5uaWmBE2f8dYEZe9uAXC4PCwsTtAYRdvSEMIhECQmvT8QwiH8wJrQi4MOPPNLGZeQXNWzU46ehwSAuYhJ8A/u7BQdshBCJ8N89DMLjI4/kAc4SwiAuYeJ4GgzC8bQAKwal0RBKFZeR+Tk1hmTseO9hEEadzAD5LdK9AQZR9RU3P4xPqW+hjqG81Pqmhmn0tEcqZc+GY2JitAiDCKfFJD2XFk+KYRjEL2qAQUw1xjEwFyQxiScnJ3ffohi5LlVUVHz99df4BiBWjWWNBEFh5eeSGzknXCloPb6bYBDwiTWBGoAxQ1AUvwIG8QiHHAbxJAKvCGEQyWCGYRC/NAAG0WTI5JOwjMAYf46EMEgkEuGen8kPxBDanwghArnwufjB8RgG8YuCKXxqReAwSRdNWEYSzfk9wCBcE9QAzAXfL2sQ5p+mSaAc+O3vKUDoU4xEleF8hKBwsDWIn1K7MIhwytXR0cFf1+TWoO6DQfxyo76VSqV79uyB01sQT1NsKvHvI9zdMIhVSiRjRk/BIMEaJx+JBZPCMIhVSjgSW4P4EySEQSTC1y4MErQ1gplHcNMIWLwIuyYsPa4AhkFcBBCPrUH8wieRao/AINaZtm5RjL/SdW8FJKDdRTFWHaVxgGEQfzvEi2K0z6mPeIcHNZIZJuwE36NFMWYZmTFU8VLDTMoeieGHm7+apW6CQfwCJBkzehAG8TPfgzCIv5Z1MAjLh6RfJYdBglbeXrsoBrctYLHgQO+FQdDNEVqDTp06hYukC7xLCWgXBpGMBxgG8RdTu9YgkpUsvCjGwxi5NYjqcYUnwT/sK/6x+VeLRQeDqKIj8WOgg0FYYtpdFBNcX+tZaxAuNWuApCd/99YgfLyGxnMPwyCeKR2cptPBIFqF9bZH7cIgErTRa2EQmIthXYyrmnQwiEsyvSS+m2AQlI4LupGMGT1lDRKslx6BQYQLRiRIgkT4hPZgQhhEuChGwjy58EnqEY7m8FNS9wZxURIeIHj3MIjrFE4PwyAuOeJjDoQwqDdskeYpy+/4lXb3BpF0SRgGcQ0qIG3dotjvWOu6r2gKheJ3c1KMR0rkC0Y8M1VIn3wk5m+wcKUWyUVxeG8QTwF75KQYCQziWpehlYUQIpALn5Y+85F8UYwEn5H05IRlJNlXSrhFGo8dtOL3XhgESEgHg2gV1tsetXtvEMkaNlZl/g4awyAg4/pLYn/Cc0H+fvx3tjeot2nau+FHLpeHhoYKztcJ57t4lOLXHJIx422tQVwKD5y8LQzi4R+Xkb+CSAazt90izZ8jeRn50wF8RrITGcMgHuG/LQyCpLg4JBc+Vwo4nhwGvdd7g1jb2tvBICcnJyw1rgAepbgIIB4jQa4GBtVPMjm4efOmbm8Qv7S7721cXByJk1eSTQbv+0kxuD6RS5+hCsgXxeDmnu6rOF3KrBJQqVTdAYMgLy7dYO2aaey9LQyifU57fPcQ4Q8Fg2jSpj6SH5gnMboQOmknmV4SwiBCUxzJ9BJjAKp8mGESzel2axBGoy9fvoTrE3mgLtz4DkLnJ4PrL+FUPGwDYv7FF8PzJ3Xz5s2DBw9qNBqx7vduJdDe3h4VFQUwiKuOYOqAT5JzkcGUC2bhXDQwitDQEisx+CcXnMDhOT1rIhAJ1nXcqrkoEUJwvypTjbHjQxAFlIInHXCtWlhY2NbWJur6MWsV4ml/mWQQQyODxz8mMasocKRMJqupqVmyZIlgD4b3Wmq4f3DsGTQHqFh1A98bxJ2SBloHNSlWYshRLBYjoR8egVjTwZEwAvFoLLV14K9YA+AOmfUVREJSYP4Hv6GsxCAu8DXBSoBTIy8j+ObkSo2wjJ2eiZubmwU3LWk0GrhJkis7kDZmHmqSlZh6fSIrAY4kzBGMDoLCBy8lMHaD6LBi40dA9pgBZgDXI94Aw6QBUQhqDpA1NzfzcA40eG8QLS8BaxC46YbBqbS01MXFBTwQ8fyVy+VSqVSlUim4f0qlsqWlRaFQgINc1tTg68bGRqVSyZ2SAiGUl5fn7++fmJi4Sfd7txLYvn27t7c3wCAV208ul2MYBA7keRRDJpPJ5XIgY1UJiAQFw2SsugEAAtbF2Pj6Zxz4N5ZKpfwKplQqgTEg42GspaWF5y1eZwEn86xsKxQKGICTk5OXLl2akJCwmeMXz/bbtGkTk3zTpk1stPFvRcxMdvPmzVwp9wZi1tLx8Awi2rJlS1RUlJ+fHwwbrIoBaqNUKqGXU3L/VCqVVCqVy+X8vZxKpZLJZFz6APHQakhylMlkDQ0NPK0MdAzUnrWAVE5aWlow89R4SAReyWQynkYE4lKpVC0tLXK5nJYI9REGhcbGxtbWVpwpU7oqlQrSARpo3TgXamOnNltqRjhM7QG4RAE0crlcJpPxcAVkDQ0NmAznQg1ALtBRUONpYVAJ0BzIlEYAj1DLMpmMn3kQPmsKOBJompqaBIUPusqsF2qMQqGQSqU4cWYAxMWvOfAVaAVOnJkUJquvr+dva0qlkqseBWAQdWtOVVXVhAkThKYZiNALHYkDJkKfYrpFMcFK6T4CkkWxhISEkSNHCnpgJVwwwoiev1AymQybcHgoBS1GMBEXnOSBNYgnI5gszpo1y83NDaYmPMQpKSm6RTEe+XTfK/JFMcKFBhLNIVFUwn5VrVZTO20uQbW1tWlrhwfeOceVF8STuOQkZ16wBUGzME9PHAAAIABJREFUJVlXIlyRJKnHlpYWQTJsgRYUFwnz7e3tgjmC0UhQYm1tbSRbUEh8vhKWUd3145cD4RVE4FpVUKW5hpi3g0EuLi6CTBO6ACRZYiT3KabbGyRYL91EIAiDvv3220mTJhkbG1+/fp2fB8JdZYRkEomEH+KAXZRwBCLpa/jXsJuamtzd3SdOnGhubi7YJelgEL+qdN9bpVIZEhJCAnFIhk/CrRskSREOeORIQnDMIByBCHfpEsIgkpGYZOyAlSwSJKFF4be0tAjmSAgRyDWHpGsi6eUI9wYR2i9IWhD4ChRsyyTMAwwS7FfxWjYt026BQSR809Y+aWzBI6FPsVu3bp04cYI1Ba1HYkHDIIq7Eqz9zAB17RPzg9PBMTiAU8A0OIBpek8gNjaWx8O8SqW6fv16W1vbmDFjbt68yc82j5mHXwKsbyUSCb8eksMgwvku/0mxysrKFy9e5ObmmpiYYLXhEkhqamo3OdPAWTMDNGaoUgVZAQE1nvYJJsA0OBdqCkBGfYU/xI0FYnBbgEfqX5wFeGqjvvotYblcHhwcjFcwuZIiPO9DCBFIxgzCLdKtra3gYZ6Lc4hvbW3F8uehJIEIhH7CSQ5JvO8nxSQSCY/GgpwJYRDJ+Ag4lQQGkdSjdmEQYY6EzFMbO5e6isViQbLeCIMENYYQBvWsh/mjR4+ePn2aWjcFBQWHDh1CCNXX12M32kAgl8srKip4VAQqsry8PCUlRa1W79y5MzMzk5p4bwvzwyCsl5aWlr8FBoEwnz59WlpaWlVV9azrV1NTc+LEiQMHDoBMYKDFwy0+MM8vMX6oBN9qBQZBUufPnzc2NhYcgboDBm3ZsiU/P58qjYyMjJycHITQmzdvXrx48fz58xcvXjx79uzp06eCOICaDn84Nzd3x44drDTnzp3LyMjQaDTff/99WVkZlWb//v137tyhxjDDIpEoISEBHM4z3/66GLlcvmTJEsHiw0ZXwSzePQyiepjnYU8Hg7BwqNvAcSQtgHsA3L3QCOBRB4NADoRQj9zihccRVrFDpA4G3eyR6xOhbo4dO3bmzBlq9XRil+HDhyOEli1b1q9fv+rqavw2Jiamf//+tB4f3lJr+vr163p6ekqlcu/evWfPnsWf4wCVGEf2SIAfBgFLra2tVlZWt27d4ueQxxqEENq5c6elpeWECRMGDx48atQoJyenqVOnbt26NT09nTVZpohoMXDS4R3DoKysrJ6yBm3atIkGg3x8fAICAhBCEydONDY2dnZ2dnBwGDt2rLW1dWFhIU2qNOnRzDZAzDpI3L59OyEhgfl552apJUuWzJo1CyEUGxv74sULao6mpqabN2+mxkCYiiBFItEHH3zAZJX5FXkMOQwiMeHoYBCWfK+1BvGvZQP/GAaB2uNC0QIkMIhwTf99twYRtg6dNahVW9YgvCjG2gvTNFXrj8+ePQNYI5VKk5OTz58/n5qa6ujoiBBasWJF//79U1NTIVOJROLq6mpmZvb06VOEkFQqTU9PP3DgAHUz7N69e9PT08+dOzdixAipVFpaWooXRy5dupSenl5bWwup1dTUHD58+NChQxUVFfyNU+tFpiZIAoMQQlZWVgUFBfAh64gIVy3w2MngQERHR8fQoUM3btzYiTJlMtmLFy8ePXoEyV65cmXPnj0///wzPBYUFDx79uzWrVv79u3D/rnkcvnx48f379//5MkTWEwhaa7UTpBadlqYZ1EMF/nixYsmJia0D5mP3WENKi4ufvPmDULo1atXCQkJubm5ixcvXrp0KULI1NR0165dnRqLjxFBRRQXF6elpWVmZsKu26KiosrKypycnIMHD2I9FIlE6enp+/fvp4L7a9eu7d+/HxT79evXeHf8tWvXfvzxx0uXLoFAli9f7uvrixAqKiqCY95FRUXx8fEPHz6cMGFCUlIS1PLp06f37duHE0EInTt3bu/evcXFxf369espGMSjq7hCey0MUqlUhCMQLgtXQLcohiWjg0EgCp01CHFtxsa6AgGSbW6Ei2K3bt3qEWsQFGTu3LmrVq1CCFlaWrq7u2/fvt3FxcXV1RUhFBoa6u3tPWPGDKBMS0tzc3ObOnVqeXk5QsjCwsLb2/u7774bOnQoTNMnTZpkZmYWHx8/Y8YMS0tLhJCbmxskvnDhQnd398WLFxsYGDx58qShocHQ0DAgICAsLMzQ0LCkpKSnkBA/DNJoNO3t7WKx2MLC4sqVK7BvkaYJ+JHHGoRhBELIyMgoISEBvlq9erWnpycgTmNj49jYWCsrq4iICITQ3LlzzczMVq9e7ePjY2BgUF9f39bWNmrUqGnTpq1evVpfX//SpUuEm0B/OwzCBT9z5oyxsbFCoeDX/+6AQUZGRpmZmTKZrG/fvgsXLoyJielcnluzZg1CyMTEhNmC9u/fP3LkyB9++MHLywtg/eTJk4cPH/7NN9+4uroOGzZMoVDIZLIRI0b4+vquWLHCyMjo7t27nSVduXKlk5PTihUr+vbte+XKlfT0dBsbG6gjAwODxMTE0aNHL1mypPNs3TfffLNgwQKE0FdfffX48eOSkpKvv/46IiIiOjr6008/PXr0KEIIquyHH37o27cvmF0jIyOHDx8eFxe3cOHCzz777P79+1iFfnuAcG8QeUfPv08fGCbB4oR7g8gXxQRnoYStQweDsNYRwiCS6n7frUGEkwRCLE7t/7G0aQHdoljPLIpBNcyfPz8uLu7GjRtffPEFxKxcudLKygoh5O/vn5SU5Ovre/nyZYTQ1KlTt2zZ4unp2dDQEB8fDwtnCKGNGzdOnz792bNnf/3rX5ubmxFCaWlp+vr68EnnsNFp5/jyyy9BFeLi4rKzswMCAjw8PCA7f39/Hx8fmk68s8fY2NgHDx7wZOft7W1jYzN8+HA7Ozt7e3uq6Yv5FUnXbGRktHXrVvh27dq1CxYsqK+v/+STT8BsVlVVNWjQoJaWFn9///HjxwOZqalpVlZWUlISlvm2bdtsbW2ZDHDFkLRD/iZ9584da2trW1tbU1NTW1vbgIAAnjR37dqFrYBcLL1tvJmZWW5u7tatW3HBx40bFxYWhhCyt7c3MTGZMmWKq6vr+PHj58yZgxDy8fHBAszNzW1vbx87duzMmTMh3xEjRqSlpcXHx48ePRpioqOjfX19Hzx48Omnn4pEIoTQnj179u3bd/DgQQcHB4TQiRMnHj58iBDqxEaDBg3qBO4RERGwKte/f/+XL1/OmjUrPDwcUvvHP/6xf/9+aAuwcOnv7+/t7Y0Q0tPTg2nDvXv3/ud//gfmAG8rDS568kUxwo6+18Ig6vIilzRIyvi+w6C32hvEJSiIxzCIp2kT7irTwSAsapLl1E6jw7uDQST3BpFbg/iHDVizILkDo2etQYGBgZs3bz5z5gzYbxBCBw4cGDNmDEJo9uzZsG717bffisViGxub8vJyJyen2tra8PBwQ0PD6dOnT5482c7OburUqSdPnhwxYgTUfW5urqGhIUJo2rRpO3fuTEpKGjduHFYLhJC5ufm2bdsgJjk52c7Ojvr2XYZjY2Pz8vLw5TpwFQT87ejoUKvVJSUlhYWFMNe/c+cODJBUMgjDZFehULSz/eDeUiiXsbExhkFRUVEhISElJSWdMGj69Omurq5eXl6DBw+uqakJDAwEsxBCyM7O7siRIxEREYMGDZo+fbq7u7uDg8OoUaPgng+2DP8TB2v54D3+P7FsIYVCAUdAmS+hlRYWFhYVFT1+/PjevXsPHz6Ebao0YhicUlJSaHtlfnudjhw5srCwMDIyct68eZDawoULwSozatSo4ODg8+fPHzt27MiRI3D9REVFhaWl5YgRI2bPng0Lr5aWlrBQBca2DRs2fPPNN0OHDgWR2tnZzZw5My0tzczMjMrtvn37QHvv3bvn7u7u6enZOTEA+xCGQQYGBpWVlW5ubsnJyfCtvb095LV37143Nzc/P7/Ro0eHhobK5fJBgwbV1dXB9fmfffYZXmylZvqrwwCDBOfrhC4RCBfFSNAGoTXo3Z8UIy8jDziA+uqRk2KCdQ2dGxPOMvdgSCQSwUGNUHPeaxjEdSCL1irf/RZpmgcCzE83HpgHLeFSff5FAeCvo6OD5PDnzZs339mBeSw4HAgMDNy0adPZs2cxiNm5c+eoUaMABiUnJyuVyhkzZnz77bfffPMNQsjW1rauri4oKGjy5MmNjY2PHz8uKytTqVQnT56EKXLn7PzGjRsDBgwAGJSUlHT69GkMdORyuUQisbe3j4uLAx62bt0Ks23M0rsMbNq0ac6cOevXr4/q+kVTflFRUdHR0Vu2bNm6dWt8fPzWrVu3bNny/fffR0ZGUqj+E4yKioqMjGSmEx0d/e2332IzEtUaFBUVFRwcXFJS8sUXXxQVFVVUVDx79gx2wMycOXP16tUgirFjx2ZkZHzzzTcTJ05samp6/Pjx8+fPxWLx3r17v/32W+DzP3wwQmvXro2MjFy3bh3jzS8igHn4+4sX0dFRUVEbNmzYsmXLpq7ftm3bNm3aFN0VD+Wl/o2Ojvb29oaRXotVOXLkyLy8vKioqNmzZ0Oys2fPBhhkbGzMuhMfIfTw4cPVq1f36dOnrq5u4sSJMTEx8K2vr298fHxISMiMGTMaGxsfPXpUWlqqVCozMzPx5icYkju39YCqf/LJJ3v37kUIXb16FWjWrl07f/58hNDgwYMrKyvd3d3xmTIrK6ujR4+eP39+wIABUPUhISH+/v4ajWbAgAGwM6mhoeGvf/0rrMRpS1ByuTwkJITkpBjJ8EkOEQT5J4RBeFEMd7/MANynB4Abv6UygCNJ8Bl5GbnGApw1hkH8lDAnwV9xBTCSgNRwmjgAH5KUkbksjkVEzZ0KgzABNSC4AxKnRjI+dtOBeZp8MEtYXII2ey60QUvqfYVBzs7OtJIwHzUaDRM4M8kIL6Ps/TBo7ty50dHRz58///Of/wzbdSdNmmRubo4Qmj59+oYNGzr9Wy1dulRPT+/Bgwetra3Dhw9/8+ZNdnb2119/Db359u3bT58+LRaLP/roo3PnznXeBBUWFvbll18ihCZPntw551Yqlf37979y5YpSqXRwcEhNTd29e7eJiQnsGh49ejTkwhTyO4iJi4uDFQqua84hvqmpCe625yID7wRNTU2sF8NjpxydqyQDBw7EZ4jWrFkDR40GDBgAQ2x+fj7sd5k5c+bixYtBAra2ttnZ2VeuXNHT04Pz1Tt27EhNTdVoNCKRSM77UygUEokEXAHwECoUClxGVjKoLIlE0tzcDNe6s5LBAJyQkIBhn7Yq0dTU9Nq1a6dOnfrqq68aGxtra2v79+8fHBwMW6RjYmLevHnzuOv36NGjhoaG0NBQ2N1fV1enp6dXVFTk4+Pj5OSkVqtfv37dv3///Pz806dPDxw4sKmpCSG0efPmY8eOKRSKIUOGwE4jb2/v5cuXHz58eOLEiZWVlR9++CEsiq1YsWLAgAGddf3NN98ADOrbt295efmqVavAbvT06dP/9//+X0ZGBrYtVVVVGRkZTZkyBSE0dOhQMIUmJSX913/9l9YXxUJDQwUhjkajITxjKDhmEG7B0Wg0gpYGsFuQ3EBIcos0YRkJYRDJoIBhEL/OE572xzAIp0Y9tIsjSeoR3ALiT7gCJNcnEq6WEPq+BVM6Fz84nkT45PcG8eMk2KVKIlUwhGMmuQIkzIMTSUHGuIQvYA2Cq3iBj/LyckdHR1B6rr9qtRp8vqjValgzZqVUq9VKpbKV7YfpwTtMU1MTIHEcTwvA5JK5wZNLplqPj4yM3LJlS+cS3po1awYPHjx9+vQVK1bAFofvvvsOBpLs7GwvLy+EUFNTU+eiAGyRjomJcXBw8O76wfCwY8eOoUOHurq6rl69eu7cuZ0Tu7CwMOjxDxw4YG9v7+zs7OfnBxoWGhrq4uLi7u5OeOmt1gsOCcbFxcGqBK1e8CNUn1wup8XgRwiAwsjlcqBnKg/cQtvR0TFx4sTdu3dD7ps3bw4JCUEIXb582d7e3svLy8XFBQ49hYSEgDWoo6Nj2rRpsLt2w4YNY8eOnTp16uTJk2/fvo0QAsZ4dAx0FU7WwPSFxjnmH9wJQVKsCVJbB2siEIkQSkpK0vqi2LRp0y5evAibfoyNjQMCAhYsWACbzefPn29ra+vq6jqx62dtbX369Ok7d+44OTlNnjzZwcEBjEBeXl4zZswICQmxs7Nbvnw5VEFkZKSDgwO8gmnA+fPn7e3tXVxcPD09RSLR2bNnYbPRunXrbGxsYOFszpw5K1euXLduHSB4Nze3Z8+eSaVSJycnMzOz5cuX+/j45OTktLe3T5s2zdnZeenSpSdOnBg1atTp06evXr1qamrq7Oy8Zs2ayZMnaxcGKRSKkJAQOLbGU0fgL6ytrY2pqPgrrDls/dx/4tRqNWyZ/08UIwSaA6uuOH1moL29HeA4eN5gEkCMWq2m6ioXGbjta2trU6lUDI7+FQFlVCgUIAoeMplMxpURxFOZ55EquOTD7ZErTZAqVWKdq6ghISEZGRmw3QK3ZaBhbbCYMZib8dAAaoFZHL9WwPgIgmJlHtAbuMfizxFEoVQq+cmgulnzwpHt7e2dy8HgnRRHsgZAV3lyhFeE1U3OPE+OIPzm5mbw187KNkSCgzamrhLBIJiFVFRUODs7M3d10GJaW1thhwctnvoIGg+KSI2nhoFXkUgEt8hTX1HDnTs/rl271oOLYm1tbXju2Lna1djYCJZPsDzDK2whg8aJJ4jNzc2vXr2C4QSQbHNzM5iIwCgK9QoEEomkpqYGwvD39evXsAAEAJz66p2FY2NjwRpErRRmGPc1zFc4BjoIqG4eVZZKpbAVEZoueGMFaZeWlsJmMo1GU1tbC2QwYslkMpBwQ0MDwFA4vQXtEPPADICBl0SlgRN+rW5tbZXJZDgXKCZ+xLfLJyUl4UP+2qpKcE8IqdXU1MhkMhgPYNKvUCiwdQrGSFCq8vLyhoYG+Mra2hogJtY6iG9qanr58iWEQcgymQzHQIcAb9+8eQOmI41Gg41nsJMAz/levXoF6xS4mbx8+RLegmUOwCtY9QA9Q+Ja+atQKJYsWQIGFWq90MIwdaZF0h5Bc6Ah017hR9AWgBE4khmg7pxjvsUxMNkVi8WwLQ/H0wLAGAwetFfUR+jZ+Lvft2od/E0DkhKJRILM44OWwC1rspAaoCVM9uOPP16+fBlOIEKfDEhCsIwwfPKTdXR0iMVi/uoGdRXsTDCA5s8RRhNYIqRWHC0M/SQtkvYIt6KTaA6GQbQUqI9tbW0woaVG0sK4gvjLSMI8dJvNzc2smkDNlwucCMAgqn21urqaxKcYHvL5eyXCRTHCLdI9BYOwFQ4HcKlxDA7gV0zUAuvHVAJqmJYCk5hGQP22u8P8B+Zx7iQL8IQXi8HgjVPmCpBYZWERgSsFHE/o1ZKkjIQLDd1xYB6KwzwfxKU8zPjhw4fDjU1YMoIBZiI8nzCJmTGsnxOSsX5Li5TL5aGhoSRVSUKDcS0tF9ojhoC0eOojoa/G9vZ2ALjUb5lhku4X3/LA/JwaA8MMNYY1TCIucuaZaszMlLmuBBvwL168SB0vSDoKGKqZWdBipFKpIGPkVy3gaQAtF+oj4RYikjKq1Wq5XE5NnDVM4huOsIyErYOEefApxsowNZKLMQEYREUhhB7muZbfqNxQ9+jR4qmP78W9QVSG/4DhuLg4Hp9iWCAkhx5hfoA/4QpgtEQd/Khh+FAqlZKMLiQ0YI/l4gfHQxmZnGACMBPiVs1D2X0wiMrM24bz8vKw8fJtv31f6DsNTmFhYdi+y8U24Xkf5kjMmiBWCda3EEm+RZraaXMlSDJ8EkJ2sGhyZYTjSXoA8r1BABF4WhAMMTQkkZSUBJ9kZ2cfO3YMeCPBZ4Q9AHWLNC44LYC7L1o87ZG5sYlGAI9avAaTfG9Qe3s7cypOZY+wjGC8oX7IGibRHPID86zV/XYwiMQapINBrHX5e43ULgxi1VGa6HAbo3aCzPB7CoOgIL0QBmEJC853afX1fj2CNej9hUHkB+ZpEIFZTb0cBvGPxFwwCBfzp59+gv2CJH0OOQwSnFbh7gtzwhrQwSAslt4Fg169ekVyUkwHg3D9/REC2oVBJNNiQgXrtTCIpNvthTDoj6DMsOuI5MxBb7YGkZyu/X1Yg/h1klnGlJQU8GJUUFCQmpoaFRUFaIk/Ha57g5hf4esTma9wzO8ABglOhAjL2CPWINYZzltYg169euXk5IQnhbheaQHCUYrk0KNuUYwm2174qF0YRAIRCBVMB4N6obb0fpbg+kQt3hskaHQhHInJF8UIYZDgYNbLrUGCusSEQampqRkZGcuXL09PT9+3bx+kQDL1IrcGCVY3IUTozdYgQc0hLGOPwCDWIebtYJCjo2NPwSCcL3Me1rO3SAu2xt83gXZhECtUpwlQB4NoAtE9alECOhiEhfn7g0Gd7nQyMzNfvHixa9euhIQEuBZBB4Ogxsn3Bv3RYZCTkxNuJFwBwlHq11mDrly5YmNjs2fPHmruOhhElcY7DutgEBY44RZp1ukITgQCukUxmkDe2aMOBmFR//5gEC5aZmZmVlYWPOpgEMhBB4OwetAD1EMHVVVVPbs3KDMz08nJydra+vvvv6cyqoNBVGm847AOBmGB62AQFsX7G9DBIFx3v2MYhMtIuCKpWxTDElOpVDprUE9ag/Lz81tbW0NDQ7HLTKibmzd70sM81o8/ZqA3wyCSeZ7gyQ7YIEmSlA4G/Q6awPsOg8hPigkOZr8DGETifoSkaetgEG7af0QYRL0+8eXLl+94Uay9vR1v98ON1t/fPzIyEtcKQuidWYOo+5OoDLxtGKfDvEdRMCnqt0DMjBFMRIsEWoRBhH6JCe+R0+4WaZK+UqlUCh7iJdzo+m4WxbDm4Mb1qxUDJ/WrU6C2BWZqXDHUeGqYxgb1FTVMI4OTYsHBwVrcIq2tkZhQc7QIgwgtJT14bxCz+qgxhLuMSZo24QWqJCfFuG7wo3IOkifRnHd/bxDJbhbCMr43W6SpF5J2+nlZuXKl4CWShKMUycViGo2GisNAUQICAmjWoFu3bp06dYqmRt30KJVK6+vrmYnz961MetrAgz9Xq9W0V8xvGxsbW1tbGxoaMjIyMExkkr2bmNjYWBIX32B0AZTA+pd2tSAP84QKBk5teNKBV4TWIJIuSYv9aUpKitadabCKQtT1Y33FGokVFb/VaDSCGouJBQP37t27du0aK1lBQcHTp09FItGFCxdo3UJdXZ0gcFGpVDQfIKy5gDVI8DpdQkuJFu/JJRyJ1Wo17GRgbWUQCddDQ63xkBH6AyC8RVpw4KD6heXhCphn6iGzNkmGGMKbssG/BzMLWgzVtSprEeAGfJKOgpB5QqhH0svhvUGsnEMkofAJW4d2XatKJBJBrWDduKzRaP4LPA1x/QV3ZeBRBSEUFxdXWFgILpHB9SnzL3ihA7d8zLcQ09raKpVKwQcTFw3482tqagICpVIJZxH9/PzAhTi4G0QI/fzzz9TL0Wmq+dsfqcLdt2+fpaUla5oSieSnn35ivsIKRH1VUVExfvz4pKQkHNnS0jJp0qS1a9fiGBygpTBx4sTk5OSGhgYXFxdwQIYp330gNjYWXKvy1KNSqQQ3VVxqplQqVSqVQqEAE05raytXaqBXAHF4yNrb25uamqRSKQ8NOPcFF4Zc2UG8QqEAYuCTi1gmk4FLSC4Hk62trXK5HJeRi+xXu1al6QnVvoIVg6rMCKFZs2YtWLCA6y2NGDrx2bNnOzo6uri4TJgwYfz48c7OzmVlZTgFCDA/ZPJG+wQeExISFi1axPrKw8Pj+++/r6mp8fT0rKuro9KYmJgwJ0I0Hm7dutW/f3/qV6xhhUIRGhoKnq24Khr6Q3CuxK8ScrkcvOmBHrLWuEqlamlp4XFfCt9C62BNAUeCh6ympiZoJlzNTaVSyWQyrNJcZNBswdjDKgrQdvBGx0oAkZARNCIeMnC319jYCL7MuLjCzIPPV64EITVw1sZDAyMRFwHEgzAFR6u2trampiacIxf/1HpkzRekKpPJQMFYaUBbwHWXIGPQ7XClA/FtbW1SqbSpqUlQ+FKpVKlU8ggf1JW/7wX+FV0/ni4aeIN+lZ//1tbW+vp60DSepoRVGjcZyP2/gBXWv50XqsKRQtxfZGdnr+0ap2ldDCaAOT0ce+ahITH6aTQa6qIYtgzNmzcPYBA+cXPjxo3jx49TedBiGJfi8ePHDQ0NaWlpI0eOhPSbm5sLCgqqqqrgMT09feLEiXjG+eLFi6KiIqoVoays7OHDhwDmnj179vXXX48bNw7j9MzMzD/96U/BwcGQmkwmu3v3bnV1NS5LW1sbuK3w9PSMi4tDCFVXV+Np8YMHD6hmqqamprt374L7SdbhECf7GwOEPsWUSqWgzYDcmQZMp3DVsBahpaWFf9YFZgySI/rg5Zc1F2okIHUurgAHYOxO/ZAZJrQGwSylpqbm3r171HyfPHlSVFQEAm9tbW1sbFQoFE+ePBGJRAihqqoqcAWPEPL29g4JCeno6Lh37x7Qq1QqkUjU2NiIzVGPun7AZGtra//+/bdv337nzp2bN2/euHHj2rVroIRSqfT+/fsYlzc3N3d6sy8tLX369Cm1gA8ePMC5Q/ybN28ePnwI4dquH4Rramru3LkDrlgRQl5eXitWrAC1Byu1RCIpLi7WaDQjR47EE6HHjx/fu3ePen1LWVlZVVXVrVu3BgwYQOWENQy3SAvalvACLlXszATxghEXGWgFyT25hJrTuXuS1mkzuYJ5LO55WAmg0yDZ7obLyJMOQoikB2hra6MeyuFKkNwEQlUD1tTI7RaC4gJ/DoJk4MSUlRlqJLk1SDBHqG4uDcSZtra2kgifZBmuR+4NgqkLNCjWvzRwQqURuDeIuigG8lq8ePGFCxfwTSJWAAAgAElEQVSw7JgB3EEwX1FjSJYYadcnrlu3zs7OzsLCwtra2sbG5uzZs5DgjRs3cCdIzUKL4QULFlhYWCxZsmT69OmwQSotLc3MzGz27NlWVlaHDh1qbGy0sbHR09ODfUtLly51dnaePn26nZ0duNpeunSpm5vbtGnTxo8f/+LFi1evXrm6unp4eOBzm/7+/jY2NmFhYQihvLy80aNHe3l5WVhYbN68GSEkEonGjRvn6ur63Xff2dra/vjjjw0NDaNGjWpubu707z137txp06bZ2tqCeenEiRM2Njbz5s2zsrLavXu3FuXATEqLe4O0C4NI9gYx76BiFvCttkjzQz1A9hi+s+YFkcnJyRiF8JCFhIT4+fktXrzY3Nzc29sbWJ0zZ86ECRM8PDwcHBzEXT8PD4/w8HB3d3dbW9vExMSFCxcaGRkBpAgKCrK0tAwJCRk9evS4cePUanVeXp6rq+uECRNCQ0M7cYyPj8+ECRMcHR2nTp0KnPTv37+4uJjGVXZ2touLi5+fn52d3YYNGxBCnp6efn5+Xl5ehoaGoNVKpXLSpEmOXb9Zs2YBAE1NTXVzc5syZcq0adMUCsWmTZsCAgIQQps3b7awsJg1a5a1tTV0ONOmTVu/fn1dXd24ceMkEsnTp0+HDx/u7u6+Zs0aIyMjoJkxY4azs7O7u7uDgwNMSBISEoyMjBYuXBgYGGhqakpjm/modWcaMEpxDUJvBYP4YT2Upa2tjWShHEwOzOJTY2CHB3BIjaeFBWEQ0MPOOdq3tEdyn2LU6SUtEfxIgiQIYRD5FmlBUKLRaARBNqw9CWI4IBPMEWAQFgtXAC+KcRFAPDi056fpkb1BEomko6ODCm5oYYBBrN2vAAzCxgZcbKlUOnPmzPz8fBxDa+HkMEiwmmkwqKGhoby8vL6+vra2tqysDLf27oZBOTk5f/nLX2AmPXv2bGtr606Brl69+uTJkwihS5cuGRgYIIS2b98+btw4hND+/fv19fWBPR8fn9mzZz99+vRPf/oTTJT37duXk5NTVlbm5eW1devWxYsXI4Tu378/fvz49evXw6O1tTU4Q37z5k2fPn2qqqpWrlzp6uqKEKqrq/vqq69+/PHHN2/e9OvXTyQS+fj4wFfZ2dljx44tLS0dNmzY0aNHYbnwo48+qqiowJWl9UAPwiD+srzXMIjQGjSx6wco+eOPPy4qKkpJSRk+fDhIxs3NLTAwsLW1tU+fPmlpaQihqVOnDh06FCH04MEDfX39jo6OkJCQYcOGQddgbm6ekpJSXFz85z//+dKlS52957fffjt+/HhIbeLEievXr0cIGRsbL1iwID4+PiYmJiIi4uDBgwghCwuLpUuXgqkmKipKqVQaGhrOnTu3c92trKzs008/raioiIqKcnR0hNQmT56cmpr6+PHjL774AtbUPDw80tPTY2Njp0yZghAKCgrKy8tDCCUkJIwaNQrW72JjY6urqwcNGqRWqydPngzLZy9evPjggw9+/vnnp0+fQkNACNnY2AC3X3zxRW5uLkJo3bp1n376Kb/OdIczDUIYJMiYWq3WLgwiQRJasQZB0XonDCLcBq6DQVg/ey0MEovFNCiCecYBLjPV28Eg2DkI5oeYmJjGxkacQQ8G7t+/363WoI0bN9rY2EABDx48CMOMTCb74YcfgoKC5s6dC7PMvXv32tnZIYSWLFni7+8P9Dk5OUZGRjKZbPz48ZaWlhs2bIBOv6ioyMHBoaKiYsKECR0dHZGRkatWrTp06NCiRYva29sNDQ2XLVu2atWqDRs2fP755+np6Z6engkJCZDm+PHjd+zYUVtba2Ji8vz588GDB1+9ehXL/+LFi0OGDMFThEGDBoEHQUyg3YAOBmF5Ch4lJbcGkcMgML0ghAwNDXNycgIDA/EBgiNHjlhaWr5+/drY2BhWV8PCwgAoNDc3m5iYiEQiPz+/wMBAKMKqVauCgoJKSkq+/vpriHFycpowYcLatWvXrVvn5OTk7u6OEDI3N585c+Z33323bNmywMDALVu2IIR27dr11VdfBQUFYRutgYEBzBM64bitre3Bgwd9fHxcXV3XrVu3fv36MWPGrFixYuvWrWPHjsUC7Nx7tGbNGoBB1dXVERERwcHBnp6eMLuYPXt2TEzM69evTUxMFAqFtbU1zmvYsGGQ108//RQWFrZs2TITE5ONGzeWlZUNHjwY0i8oKNDT06PmxRqWy+Xa9Smmg0EgZx0MAjnorEG43fXISTHWXRBvB4PwPuXOSeGZM2fmzJkTERGxZ8+ebdu2bf/3b+vWrZs3b04Q+m3ZsmXr1q3bun48tBs3bkxISAAy1r+pqanBwcEZGRlYuFoP/PDDD6NHj4Zk9+/fD5DIzMzM39//7t27+/btGzFiBEIoNTXV3t6+c4U4NDQUbzu9ePFinz594Nv09PSAgIAvvvgiKyururoarErh4eE7d+709PR8+vTp3r17Fy5cqFQqDQwMEhISdu3atXv37pycnMbGxtGjR2/fvh3ScXFxSUxMrK2tNTIyqqystLKyunLlCi71hQsXhg0bhmHQkCFDuhUj6mAQlvy7h0Genp6AQhBCBgYGP//8c0BAADiM7Iw5evRop5ZWV1dbWloCDFqyZAksdVVXV5ubm7e0tMydOzcoKAiKsHbt2oULF5aUlGDoMHr06JkzZx4+fHjHjh0nT5588OBBW1ubgYEB7FHDBYfAgwcP1q9fb2pq6uHhgRAyNTU9f/48vIKb3729vQMCAtLT01NSUk6cOFFbWxsfH0+7kXX16tVz5syRSqWDBg1as2ZNUVFRTEwMzC7mzJmDYZBcLh81ahSGQUOGDLl8+fKpU6cMDQ2PHj368OFDJyenuLi4yspKQ0NDWKnMy8vTwSBcZYTba3TWIJCYzhqENac3W4P49yTACQ/twCDaUvHr16/v37+fl5dX0PUrLCy8ffv2rVu3CgoK8rl/BQUFubm5t2/fBhL4lvo3Pz8fUrh27Rp/Ug8fPkxKSmKeE8HV9tsDx48f//DDDyEdPz+/kSNHlpWVffDBB7B5c8+ePfr6+rAoZmtrixBKSUkxNzcH+vDwcDc3t5KSkgMHDkBMYGDglClT3rx5Y2FhgRAqKCgwMjKC5YP4+PjZs2cjhIyMjPBMGpa3fHx8ZsyYARX55Zdf7tq1q7a2dsCAAXK5fO7cuatXr0YIvXjxwsXFJS8vz8jI6NatW527Sh8/fvzhhx/SdqT+doFQU9AuDGJduKVmBxIgWR34IyyKubm5RUdHg3wMDAxyc3O3bNkCWLxzfcrf33/69OkKhcLIyOjFixcIocDAQNA0QOEqlWrevHl4y/+ECRM2bdpUUlIyYMAAWDHx8/MD20znMtPly5fv37+PEBo4cCDtRGRbW9umTZvANvzy5cv//d//LS0ttbGxWblyJWxf6Nu37/3795csWeLl5QXcXrlypaqq6u7du/369QMbc2ho6I8//hgXF+fv73/lypWPP/4YKFeuXAkThhkzZqxfv/7NmzdDhgxpbW21t7eHstfX1//3f/93bm4umGaxNGJjY1Uq1eeff/7q1SuEUHx8/N/+9jd4y/NXZw2iCkcHg0AaWoRBhJtGSDY26fYGUXVVLBa/IxgErQLyFlyHo7L4q8MkuRQVFXWrwQMhNGbMmJEjR4aEhLh2/WCbhbOz8+LFi9esWTNmzJjY2Njr169/+eWXS5Ys6dzD5Ovr6+3tHRwcbG5uXlpaWldXN2LECB8fnxUrVtjY2Fy9erWysnLkyJGwA33EiBE7d+5ECEVFRU2fPh0hlJWVZWlpGR4ePnnyZFiJePLkycCBA319fUNCQiwsLPbt2/fmzRsDAwOxWPzkyZNRo0YFBgaOHDkSdkukpqaOGjVq5cqVo0ePjomJ+dXCJ/lQB4OwlN69NWjSpEmAgAE6Z2dnq9XqiRMnzpgxY9GiRZaWli9fvpTJZEZGRnAUKygoaM6cOQihyspKGxubztP74eHhw4cPX7Vq1axZs8zMzDpXb+FEFWhmfX29g4ODr6/vokWLRo4cCYkYGRlZW1tPmjQJdlKPHz/+5s2b0dHRVlZWK1eudHNzA1Oos7Ozh4dHRESEk5OTr68vbGuztbX19fUNCgrqTKGoqAghtHjxYnt7ez8/vxEjRpSXl8fExPj4+CCE7Ozspk6dGhQUtGrVKnNz8z179syZM2fz5s3V1dX/v70rjc6yuP790A//nn7w9NieailFRCkIUjQoaFEIaFnKYqEQBFwBWRMFERBQiBAJWUSEIBAVBAVBoWiDssmOYclGAmEtAQGFhOTd92X+ed8f3A7PetEXEuj7nhy4zzz3uXPnzp2ZO3eW++CDD7pcrn//+9933XXXsGHDxo4d+9BDD23fvj0/P79169bJycnjx49PSUl54IEHCgoKJk+enJCQkJKSgt3WVFl6QNwMkiUTN4MgjbgZRFpRn71BptZCbPYGcdZ39XIiOQLw+XzGW6ThdqJ90IrP5cfreos0JOvz+bZs2bJ3795Lly5hc4/X6/3222/hdDl79mxBQQF2nu7atQs70nft2rV582Y6P+90Ordt27ZhwwbMTXGAGUtXp0+fRjHPnz9/6tQpFO3MmTMbN27cu3cvVe3333+/fv3648ePnzt37uLFiz6f78iRI3Cf/Pjjjxs2bJCvMSwvL//mm2/KyspkQV0POG4GkVRvvBl04sQJrHaFw+EjR47AH+PxeLZv375p0yYcWfd4PCUlJTBrTp06Be11uVwlJSVer/fcuXMXLlwoKyvLy8sDfk1NDV3rIIRwu907duzYunUr3gaDwcOHDxdKv71791ZVVUH5169fn5+fD4EkJCSsXbt27969X331Fc3SnE7nt9EfqAEzPz9/48aNYP7cuXPg0GazbdiwAc3q5MmTpaWl5eXlFRUVXq/36NGjcAceOXIkLy/v9OnTZ8+exQmG48ePr1+/HvdE5OfnA9izZ8/WrVurq6tPnz5NrYlqTQHEzSBZIHEzCNKIm0GkFbemGRQWAn9UThlQnBRzu93Uo8loMnxNZpDiSJv8GIr+YB8Yd17X2wxSF9mYH8VbFEQWkYxAMOVCKfSJOoVeqe8EIjoyzvWDY2sGaS7cKpjXvAlUgSOEuOUXxUgr5BqnRAhEfiQ0AtRCk18plr+xHKn+RJ0RUho2bCjf5qWmZqC6Mht6OarT5cKq3zJT4maQLKi4GQRpxNYMih+Yh1RjvkX6px+YvyYz6Hp4g/Q6L9xuV+feIHVnLXcTMqzZ0csIMqxXahnnpoDjZhBV0433BlHW9RCYP3++sTPymtrLDStgXd0bZFrA+IF5EhFzfzdzew1no2EMzaD4STGqx5ibQaajajAY1Nx++ougEKHoHzEnA4rrEzVJyPgwGjiK5ff7Ted84XCYc6/ldfUGKUqn+ShLn2C5l1fAROQGI1O+MQRmz56NTR7GNDmaw/QjMkMdcWKKMa/5Yo5A8s45PWkwXVnMA/N6udRtOmm1sQOpbpnUyx3BNDjqyvFcmsbbgqw4HSYztGpsL2IGY3KFquXGNBE44goGg4oRR50d/2rB2AZ041yzZLPZOGgcUXDGR4iCkyNHnwOBgGkoPVyzxBm4OSodwwoSQnA8Jnq3ZUbMIFhCmgrncDgQ/ywYDGKLO1inRAWAsJdutxu+HKwHqf8Nh8MI/6F+JacEAgFcDB8KhRQZ0aMQYufOnbL7XbMg1zUR3YRxZ3FdGahD4hRalWpEE0BkJc1XSITmuFwuKIAeJtDglYROygpDMC62JzQ9asFgEOu8BggwzuDpMdBD3JGPCageNWodxnRw2JBzi3Qd1vutmrXb7X755ZexGUCvHoPBYCAQuCbNMSAFJTRGILU30JxgMIh+1WKx4IYqPZrQVdzjr4eDdLfbbYCA5oZgT8aMIUfjsQNzEg7zNHYY8AZRwJjQ6yg4ZYRUEXnKWKrhcBjBbQxEgRCtTqcTLOnxjz7HtIIwIqNr0iOFjIzrkTQHNxCakjJljNM6UN2mpEKhkMvlQsRxPcawFlZdXQ00OB00/w0GgxhiFKQi9waFotuDNPs1xPyj6Gtut9s0wpnH4+EHe8M8WxELjeLG+Xy+mpoaRHTSy1cIsW3btut6YF5TMopEvTjbsh9I/kTTZrp+yHLWsYU5oVW9Xi9UwqP/Q2hVl8uFu/nl0HcK2OPxoFUr0ukRfV9NTQ22B+lpjtfrRShKRMrUYw2MAdkgYiUiPhqHVoW2G0cKxCwqJycHR9xjW1lxaqYSQIR5jAcGmgOtMI1D6XK5cNcaKacCwLqAaXxffIXuV09REfDS7XbX1NQYKCpiwSLUsTH/6Mnh7FGwTY+BQADt0ThAJhqaAefEFTp8A0w0NES2IjbUAMKOYvlM/ZZS4AIxrmhEc4N46UM1EAgEampqKOyoZhGgNnBUY1xT0wHPplKluLamEVhRRlSQZnYUzJUpfONeDioNBTMQLDQHFq0eV0hHh2mM4/f7q6qqFIaE+hOPx4NBQSH8iBlksEVa4aLk+NbC4TDHTRcIBDRNAUU/pdijrXiLxzpfFJO54hRKxr/ZYWZoVbrO0aC8zAUj5qKYw+Hg6CGHMUwdDDjHKw4pJvOLFi2Ke4NMBX49EJxOZ0pKCnPZwpQBptufozlwJHBy5Gwk4K+5mOYI35gpGqeMgUBAMeJoksWkX/OVnMhE4zDGFL7dbo/hgpEpKcQQND5wDYEwl6g4i2J+v58zxnGkymwdHOaFEBy1110Uk/VGDSusEM4WaeYaNh2Y15MpXCOcsu3evft63xukloxmip47RxP51kiswy3SxtI2jTCPfWwcy56/N8i454JTndOqFy9eHDeD6qSBOJ3OsWPHmppBWHMx5ZA2gRr3cjFUQp/Px9kkwdxlzDwpxlFpzthxC4RWNTVKbvYt0jRwGyg/c5cntQ4DUogLq9d85A+ZMcU0m/Y1B9MwZeh/2QxCrRgPz3LN3QLwzW4GabYKRb3E1gzijHlxM0hRBTfssa7MINN+FUszpnKIYYR5GoGMecMqtilj9dMMinlo1VveDLrZ7w3S7PDjZpBp+71mBL19QtdM6Gb4IG4GUS3F8MB83Awiqd5goK7MINNiMm1xvhnEWTJmeoM4KyBxMwhVfLN7g252M0hzFhp7M4jpECPfmt5Uow4XxYglNWDaW/0cBMpOfVmR/IqakwJgZq0mxfxQE60+m0GmvTNzaYM5Al1XMyhWtfbT6Py0rzQV5ucnKphRPMptR/1KM3cZLW4GySKKm0GQBvNSAJvNFvcG8Tcb1MmiWNwMkhu4Cex2uxXeMxyD1Nv8oZduko3qdTgcdjqdmtRq77e1WCx0tEH+lG7PlBMVMDamaFJWYF7TY701g27qW6Q1vUE4+yqP2ddUU4SM46z0aAzg7J4xDt7qqZZeOoemjIOmoTnM4HgUyqW4ohezKWOhyU0jbgbJMo+bQZBG3AwirYh7gwTHsXkLeIOEENOnT584cSLVvRBi48aNAwYMqA36uGPHjjfeeGNS9Pf666/Xxjr95ptvZMyfA1ut1scffxwxLBV0tm3b1rdvX7/fP3jw4HfeeUd+m5OT07t3bzlFE+7fv39ubq7mq5+cWJ/NINOdmzeRN0gI8d577yHO7rVWlsIIWLp06T//+U8mkT59+qxZs0aBrCBIb/ft24em8frrr0+aNCklJWXdunX09mcCtbHSOnbseODAATWdffv2de/e3el0Jicnz5gxQ0ZYvXp1r1695BSC5VI899xzGRkZQojrZAZRpgoAVprmDFWByXRJxhfFSG51cou0pplOLMFTorDU5bcEM5lnbsziKJjf7+cc07vZzSCFdwMCjy+KkeJdBZw9exYhHin122+/bd++vRBi1KhRTZo0yc7Onhb9TZgwYf369UAz3hVELYRqglJoxhwIBMrKynBpJG1RBPHNmze3adPG4XAgliQS8eG7777bqlUrYpWaGdEHkJiYiL6eMH8+EFsziNNc6Vy9PIypC1JX3iADruB14JRx0aJFx44do0KB5pw5cx544AFKJC0i5SGzj3ggBaCvhBDff//90aNHDbaG0OeBQODIkSMUHli+dJtwKPfaLKZNm9a4ceOsrKzp0d9rr70mX+ilyQwYo1fqQhH9YDB46NCh6upqfCKPE3v37m3ZsuXFixfPnz+P0MW0NPbZZ5+1bNmSik9Ng8hCDr17954wYcL1M4NIXMQJgLgZJAvkxp8Ui/kWaYNmhZLizkO51JqwrN6aCEiMm0EknHp6Ukyv5YNv7A1CL0AlkQG8qqsD88uXL//www+FEOvXr3/iiSdGjx49bdq0vn37CiHGjBkzdOhQmVWElM/JyUmK/lJTU4UQ33zzzcyZMzMyMgYMGDBixAgMfvv37+/fv3+vXr1efPFFhL/2+XwzZ87s16/fSy+9VFlZWXv98SuvvHLhwoXaO/0mTpz4j3/8o2fPnkuWLBFCbN++vX379j6fr3Y4/PLLL4UQixYt6tq168SJE8eMGfO3v/0NUb4HDRrUt2/fgQMHHjx4EIbUiBEjunXr9u6773bu3Hn+/PkKzn/mYx2aQcac2+32OtkbZKzSekFtFGWRzaBFixZ16dJl6tSpycnJ3bp1qzXEKysrhw4d+tRTT/Xr12/fvn1CiLNnz44aNWrgwIHPPPPMhg0bhBC1V69OmTKlT58+L7/8ssViOXv27OTJk8ePH5+cnLxp06a3335bCLFgwYL333//lVde6devH93D/tFHH/Xv3//pp5/es2ePECI1NXXnzp1CiGXLlvXs2bN3796TJk1ClJupU6d+8MEHzz77bIcOHTZt2gTkQYMGKcoihPjoo48GDhyYlJQ0efJkIcTu3bvfeuut7OzsQYMGDRkyBEZ/WVnZoEGDnnrqqcGDB58+fRpEsrKyBgwYMGTIkIqKitqrQcaNG3fmzBlk1KdPn549ey5cuFAIUVxc3KZNG5vNlpubu2LFCiHEp59++sQTT4wdO3bChAmdOnUSQpw8efK5557r06dPUlLSd999B/rJyclPPvnknDlzevTogWYbc28QlFCvM7wFzCBcpqeudEUKZyWBbwbh4mM9qSJrpiVBkwcFw/Ijf1HMtM+5Ncwgg14uvjcoojl0YN5YR+vzFmkhxOjRo0eOHOn3+xs0aLB8+XKXyzV48OAnn3wSfXGXLl1KS0t37969c+fObdu2CSHWrVv3pz/96fz58xcuXOjTp09+fn5WVtavfvWrLVu2/Pjjj3fffff06dNr0Vq3br18+fLaSef48eN79uwJo+rZZ5+tqqpKSUnp0aOHw+Fo3LhxRUXFxx9//I9//MPr9RYUFNxxxx2nTp06cODAY489JoTo3LlzTk7O+fPnb7/99u3bt1dUVHTu3Llr165CiIEDB06dOlUIkZaW1qFDh9q5zuuvv96iRYuqqqpt27Y1btwYw4bcwn8mXG/NIIfDYdrBXY9FMYMOgu8NWrhwIbxB+/fvv+OOOzZv3nzmzJm//e1vPXr0EEJ07dr1lVdeCQaDH3/8cUJCQjgc7tev37Bhw4QQK1eufOGFF4QQAwYMGDlyZK0BNGTIkBdffPHIkSN33nnn5MmTz507N3fu3EcffVQIkZCQ0LVr15qamqVLl/7617+urKz88MMPExMTz58/v3jx4vvuu69WbTp06JCXl5efn9+gQYNdu3ZVV1d36NBh0qRJPp+vUaNGI0aMsFgs06dPv++++4QQGRkZnTp1Ki4u3rNnz65du7Zu3erxeHbv3t2kSZMTJ07U1NQkJSVt27Zt+fLlv/zlL9etW1dVVdWyZcvk5GQhRLt27WCjz5gxo3PnzkKIiRMn9urV6/z581OnTu3YsaPb7W7atGl5efmGDRu6d+9eXV199OjRP/zhD8XFxf/5z3/atGnj8/mSkpJmzJhhs9l++9vfrl+//sKFC3379u3YsaMQ4qWXXkJG77//fps2bYQQmZmZd9999w8//LBv3757770XpmHcDJI7BM7eoLoyg8jhJzMsw3EziKTB8UBf06KYQS93C5pBisVCjjRhCVEF6AHMW6QVDGhS++6772J+feKrr746ZcqU7du3//nPf0amX375ZWJiYu3FnVOmTPnjH//Yo0ePJ554IjH6O3XqVHFx8e9+97vZs2efOnUK+DNmzHj88ccBL1y4sEuXLl9//XXTpk03b95cOzDUepsaNmxYUFDQsmVLhCYNBoMnT56srKxs0aJFeXm5EGLfvn1r1qxZvXp1ixYtduzYUVRUhFW5nj17rlixIjc3F9NcIcSMGTMeeugh+AA2btz4xRdfZGZmArldu3ZwJgkh2rdvP2fOHE0Z/uREZmhV00kSGo+p4QI+TT3PWN2gpRaD0nFyZN4hyywjh/nc3FyYQampqd27dwf/M2fO7NKly8WLFxs1arRkyZIdO3Zs3bq1YcOG33777fTp01u0aLFx48ZLly4JIQ4fPnzbbbfBp+J2u7///vuioqIGDRpgeWvx4sWwM9q1awejXAhx3333rV27tkuXLmQoHz9+3OVyde7cecuWLePHj3/mmWfAxpo1ax599NGqqqrmzZvv3r271uQ6evToH//4R4fDsWDBgoYNG/7973/v3LlzYmLiI488UlJScurUqT/96U+pqakUHiQnJ+fBBx8EtVWrVrVv337Xrl333HNPXl7ezp07165d26BBg7179zZv3hxOpnA4fOLECYvF0qpVK+wNKioqWrNmzb/+9a/WrVuvW7fu9OnTbdq08Xq9zz///Pz587/44gsYOnBEAfb5fFu2bPniiy/mz5//0EMPORwO+IHARrdu3TB/gBnE0QpOZxjD+8eZShgIBDge9BjesBzDu4BDoRCnw2cyD48R6tfgX057xPkYAyJ4ZbfbOX0OU3OM/QjIMYYKhnhbpmWM4S3SOPPBydEUhxlaFcFo1dRM9gZZrVabzWaP/hwOR3V1NR5t+j9r9E47SEMAACAASURBVOd0OvGV5r8Oh8NisRBlTRy73e5wOCorK/WzirwRQmzatEm9i1Nd1GtKGT9+/BtvvLFhw4bWrVvjw82bN3fp0kUIkZycTEOCTLO4uPjpp59u1apV7XTZ6/VmZmbS3syPP/64W7dun376adOmTceNG/fMM8+MHj06PT29uLj4gQceOHr0KNGx2+3NmjU7c+bM0qVL27ZtO23atAULFrRq1eq7774rLCyEN6hXr14rVqyYN2/eU089hQ9zcnJgcj333HPdunXLysqaPHly586dQ6FQ27ZtaX9G9+7dFXurKd+fDGRkZGAsdDgcevVot9urq6sN3uKV1Wqtrq42pmO3261Wq8VicTgcUAxNsk6ns7Kysqamxm636+kPPjTNEbqKHDXzQqLD4aDs9NBsNhvKaMCVzWYLhULz5s2D0TBp0qSnn34atfPee+/16NHj2LFjjRo1Gj58+PPPPz98+PDx48cfPnxYCPHuu+927dr13nvvnTt37okTJ5o0aXLx4kWq1pKSkpYtW1osFiFEbm7uE088IYTo0qUL7e5/6KGHVqxY0aNHj88++4y+EkI89thjmzZtGj169Pjx45G+efPmhISE06dPt2/fHlkXFBQ0btzY6XSmp6cnJSXJn6MrLy8vf/bZZ1u3bv3www+7XK7ly5fDQwM3aseOHb/88st77rln3Lhxzz777KhRo2bOnFlaWtqyZUtavcLkqkWLFseOHcvLy2vbtu2UKVMWLVr04IMPfv311xUVFTCDXnjhhQULFnz66ac0Q1i1ahVcX6NHj+7UqVNGRsaMGTPat2/vdDo7der00UcfgdukpKQpU6YIIRBhHvGJHDo/VN+lS5d03l9OdjqdFovFarWShqjxoZxoHeq3SEFPCM1xOp16aEivqamprKw0RauuroZKG1BDszXupdE6EL9PT+2RfunSJQ6pyspKKrUmQWpoqAVNHCRaLBaITg8H/KDZ6uGQ8E3LiNEKmRpQs9ls0BwDHEjVarVSZ6jZiVHXZNCfgH8M3JpEkGi32y0WS1VVVUyEL9eRXjEdDgd6cj0ESueMHXa73dRUwNhRXV2tNk5MzCC73R648oPTDLewY2eW5r+IHofFVE0E3BaAMIHBYFAPB+kWi8UYAZtmYu4NGjdu3OTJk7EWgI5y3rx5Dz/8MNbLXnzxRbmvF0KUlJRgrw/WGqZMmbJw4UKakmZkZPTu3XvXrl3kW8JO1dotRG3bts3LyxNC/Pjjj6mpqejQy8vL77///qVLl9YuDXg8ngYNGhw+fLisrAwdes+ePZctW7Zy5UraMDty5MjExMTDhw//3//9HzaZfvHFFwkJCUKIxx9/HN5+IUSjRo1i7g2i0KpX1CSgWV84dw3/uSYCDsIgED0hEE0CsOSKeGGKKMGKR6vVitDERE0BgBkK5qp4S484ho2IiZSoCYCUgeaDlDFXmJu+//77MIMyMzPh56vdADRkyJDHHnvM6XTeeeedR44cgQaeOnXKbrcXFRXhsbS09Pe//z32yuTn5wshjh07Nnfu3AMHDmATMbaUwRuUmJi4YMECfNiwYcPdu3ePGjXqzTffRMrMmTNPnjzZtWvXTZs2paWlYUVYCDF//vxHH33UYrE8/PDDBQUFQoj9+/c3a9YsGAympaUNHjwYn9O/5eXl2NCD9dwxY8asXbu2efPmQMjNzU1MTCwtLW3SpAnNpIHftm1b7M+rqal54403Tp8+3a5du/Ly8sTExNoDCvj8rrvu2rVr1w8//PDAAw94vd7nnnvuvffe27Bhw7333guE1NTUdu3aVVRU/OpXvzp//jwiMWMJr2fPnq+99hrQ7rvvPphBtddSUIR5zVpG9+Xz+VCPBipN8URNezkEj9TLDunI0RgHN01brVbjHLEFB9FJjQkiCChanyYmQscrmq0aE5pvLCt4I6xWaygUUkS+lGNkImaqzLweWVx6gpBn1IEoAAxqikT1I6LMGpMKBoMWi4ViMMs8E+z3+xEaVp2FIgXRdqkzIQoygMtTEFpVTlfAFGVWkS4/Qg6Yg12T8BV1TeYBs1811Rw0IpKDIjt6DAQCFovFNFCrx+NxOp0QNX3r9/t/EUY3oPOvwkUZQ7e/z+ejwxo6mUeSFUHNNDF3794dc2/QqFGjhg8fLoRo3rz5wIEDly9f3qlTp7/+9a9CiJSUlLvuuuvNN998NfobNWpUbm7uhx9+2LRp08WLF69YsaJVq1bffPPNRx991KRJk8zMzMWLFzdq1Agnh5966qn+/fvn5eX17t174MCBcNonJCQsWbKkQ4cOAwYM8Hg8jRo1On78+PDhw7t27frJJ5+89tprf/nLX1JSUj777LNHHnmk9sR+YmLinDlzQqHQnXfeOWbMmJycnNpVs8TERJ/P17Rp0wkTJsybN++FF15o1qzZunXrli1bdvvtt+fk5KSmpt52223XwwzCop5m1VAi0/PMWYxgbuhhhlblMMZ03nJ83fzQqvARXrx4sUGDBmPHjp03b17Lli2x32vixIlt27ZdvXp1SkpKx44d/X5/UlJSjx491qxZM3HiRDhaMjMzExISli9f3q5duzFjxhw7duy3v/0tlsnmzp0LE7lfv37du3dfsWLF0KFDW7RoUesfys/Pb9GiRU5OzgsvvNC8eXOHw4GMampqmjZtOmXKlE8++aRZs2YrV670+XwNGjTYvn07tjzfeeed4XA4PT29UaNGU6dOffXVV8eNGzdy5Mh58+atXr26WbNm8+fP//zzzx988MHaf7/66qu77747LS1tyZIlTZo0waLt4MGDe/Xq9eWXXz799NO4F2DNmjUtW7b84IMPunXr1rVr11AodM899xw+fPiNN954/PHHly1bNnHixISEhCFDhuTl5SUkJHg8nn/+859Y22rcuPGwYcMWL17crl27Rx55xO/3t2rVasyYMYsWLRo6dGizZs2WLVu2du3a3/zmN3Pnzp01a9btt98OM6jWhfPyyy9zqpKjObFdMOJ0v6FQiNNn+nw+zpoLRw7MS/CY4mIyz6RGhjV1RGqA0+fArFR/q0iBGaFIVD9ypMocH2mLrToXOYVTRubeIGaOnDIyV/Q4zNceLaLj1XLBFbDe2PGLcCTAvO7P4XBgMxTaDO7JNTZfmPcGwZzXzTj6AgdSjHHQC8fcDNqxYwf2JVRUVAwfPvz111/Pz8//+uuvhRB79uzJzMxMS0ubFf2lpqYuW7asdufNli1bRo4cOWzYMCw0pKen9+3bd82aNYMGDfrXv/6FUng8nuzsbAwPFM535cqVI0aMoOWq3Nzcmpoal8v19ttvp6SkHDly5NixY2lpaVu2bFm1apXf7//qq69wPujQoUPDhg3LysrauXMnzKyysrLk5OS33367do/R559/jrn+559/PmDAgJUrV27evHn//v2m8rwmBOYWaU63GwwG6by0AQ9MBYttaFXOCOTxeIybBn//08KFC2mp9ODBgyNGjEhLS9u3bx9OCOLcVkpKSlpa2rlz5xBdOSsra+jQoW+++SZ8HrXOvyVLlrz00kvY63Pp0qXFixdjUayoqAjHqfr3779s2bK0tLTk5OSzZ89C5jt37hw9evTkyZNxbnH58uUwc0+cODFhwoTk5OSNGzdifvLBBx/gAFdFRcWCBQvcbndxcfE777zz9ttvp0d/qampH3zwgRBi586dycnJQ4cORTtdvHhxt27d1q5dO2jQIFqDCwQCCxYsGDNmTHZ2NgUHrd1GPXr06IyMDHSFH3744cWLF4PBYHZ29ssvv1xcXFxRUZGWlrZ169ZVq1Z5PJ4NGzbs2LED58Jeeumlt956a8+ePWgax48fHzdu3LRp0y5cuJCXl5eTk1PruP33v/+dlJS0ZMmS7du3Y23X5XKlpKRQ29TTQ/nuAD0cbESA5lAvqgb4Z7Y5QwtzbxBtH9bkByWSb6YwsJngjDEQAl5ht7Uxmt/vx8Ym43ZEcWHBPJqVmjKVkW6X1SwsZ5SFg0SdhSLFarWaVjfzrChJlcqoyAuPhKb5lhI5/arP54MNaix8ujdILUw5haOrTAOac8YQZpCBlkIUesf0TBbFFLY5hyHmKMUxKvlmEG1/oYr/OQBJUz2ZoFem9KdMmQLvETA1tVlNTZ2il5FaWdUpmt/ys9D8XJGYnp5OKzKKV/IjpxNkdhBMBaufZhANLbJw1DCZQerKUtcyB4eykD9v164d2VWaYwlRlr8iUgDUbUSBoH6cM2fO/fffL6dTRpTISSFkBaBmSU1N8Qk9xtwMMvZbgDFO62Ben8g0g8iSoIKrATL1jKXHHIk5ZSQzSM2MnMJhHsalsfBBM4ZmkM1mM81RbySWC8hnHis7im/Vj9dkBqk/l1PIDJITFTCzi64TM4jsM9lou0XMIHK3KOqjDh+//vprcvBo2kB1yFsMs05PT8cGEWOanE6QrlowJsVsY8x7g6hVGGSKlWkDBLyCN8h4zGCaeu+///7x48dNc/yZCLNnz+bUnUEucldCsAE+Xu3YsWPWrFmmaHWCUBuXI7beILVNJpeLzCA5URNmmkF8S4Lj4ETrMFbp+mwGccoYWzPIuLox2aA7PDUrGolMU69+mkFMv/6NN4P0ut9bwQzavn37qlWrDFTqxr+i2bOiB1E83njGYpgjypKWlhZDbxCnS+KbQabUaL5rLJZrMoOMSem1Q8VXubm5dLxc8SpWj6SiBMSKsjEdObt62Bx8Pl/tpYumAxVTc2hdRk8mkADTFjfV59rrPOLeIBI10z7jSJW5KBbD0Ko3uxnEUekbbwbpjR23ghlUWlqKw1D1sFelNol5QD3nUOaWCU+fPp3iGxh8wvQGcRqPniorcq+fi2JMM+jjjz/G4cdbT2EU1VTfHs+cOTNp0iRTruJmEImIaW1wegC+K8t07QnrSnFvEKrpBi+K1VtvkN7YYWIGKU6K1c+9QbUhIyZNmnTy5EkhhDzXpIZaH4BbbDyDnLdt2/bWW2+ReA3KyOkEY74oZjrPYw5mN94bdOzYMQrYYiBVknwc+JkSICHPmjVr9erVptSYmhP3BpEkOT1A3Awicd3U3iDm/qcb7w3Sm4X+wqvz8/l8Xq+XjmygeuqhGYT+q6ysbNiwYRy3BOlZHPiZEigvLx8yZIgscxpL1JQ5neCtYQYZCAF3AHI8XjjnhSPcamHGU66TBJYtW8aUeZ2YQRzNiS+KkW4w3VSmkyWc+OOgxRfFIHw9a4OqBkA9MoOcOj+Hw4FbUGXWY2sGmXpumCfFQKewsHDMmDGffPJJ4ZVfQUHBgQMHCqI/NYB0xb9AOxD9KV6pH4Gm929BQUFRUVFhYaHiwyvc1dn/BQUFyJsANSt4Bf4Vb4uKig4cOLBw4cKxY8fibDang2AemOeQYrYxm81mSo05mN14bxD2pqxYsWLs2LF5eXmaFWFQfXKVAY2UUH5FMJEiND0An+i9RTpwFO2C2KCWSM2T2NADjLOjTH8aWmFhYXFx8Y4dO95666309HRsr4mh5hjvmYXRzJkkxHaLNG75k/t2NUytw9iyZ1obnDLe7N4gTjCNcDhsuvOsnp8UM12RZC6KMT1eHKuDeWBeb+wwWRRTHJjnqDLzSDDnwDwuRFG3T3UK5kmBQCAvL2/u3LmZmZnZ2dlZWVmZV34EE3DlzVX/421W9HfVC+kBOBkZGcgCyJr/pqWlpaen06vMzEyCZSAjIyMrKyvb8If88ZUBosy/AVpGRgZEpMYBJ++8805WVpbMPDE8e/bsBQsWIKAsxgzTVqEXyUVRj3xvkOkohYttODsDODNs3B6r4Fb9GMPWQXc/nj9/ftWqVdnZ2VASqgUC9JQKCHgr48gwEaFGgXqX02X4nXfe0WNDRps9e/asWbNIFZEjNI3QsrOzSaWltqUBchpaVlYWE01d/MzMzNmzZy9durSsrAx1iqvz1fUrp4TDYY4S8ue7MnFNmNk6mN4g09U68MBpHbiTV5NnOZFDKhgMKkYcmQLBzLGDOcpy6pE5EWKaQRxRMCuIqWCcHAOBgGIPDAlcBnB3oJyihvW24CgwmWXkMA9Twdhex54Zzeo2MoPgjKHD3pgcIF4dQs2FVL9wOIwL3VVvrkoAKQRpwxW9RBBbiYGN68lx+RXKQOn4CsUGNc5grKiG+KOxBIzddYiXTnNBPEJb5GpCTaHxhMNhVDRVOtU7NAc6qgiLQXUN4lAwkCIFILJARqQ9TCOIGiFDh0ENjBEOAFI55OKP/uSGoMgO+B6Ph+hcpe7RB3gFMB2RP5dzRBbhcNhmszHnQMY1WFdvjTWnrrgyzRd1ZLPZ6J5YdT2irhX1qIeGrQVoGmocagXQHGoLhClrPqk9fUUA4cM4wyWZpGOkzDKax+NBgFLSWFkP0dnSnJ5IKZDRjhAgAmUkInI3DrHjvlw1BagKNL/2mB62YVBHQTwTAE+J7GMDMhAIrt0wSh4v+ZXcioHsdrtJRJQvFQSdBg1qVCPq8SgcDuP6RGSnoED8BwIBuV+SZUt8EvOkErI8SYa0WqcpfEUvR1/JgCx8r9eLuytJCMQzAWAMX8nqRzDEhRArctEU0oBK4PwdCZ9yIWTSHOoYUSgSPpUFfSYubad8QZlUAsGJsVsciUTWyAyCo8kT/WEHkcPhQCwwJGr+63a7ESKHPlSjeb1eh8PhcrkUr7xeL1IQDsbj8Vy6dIkSPR4PpRNxvHU4HHKKer+Tz+dzu90Oh0P9SpFit9s9Ho8iUfGI0CSKRMWj3+9HVEV0hYq3eERGHK5c0Z/P5zPmTRa+Zo5IdDqdMgOamC6Xq6qqypR5MCbXkaIG8YgyApZrilIQik6NRggEuFwu4p/yVSiGz+dDxERCoM9lLUKcJvmVJux0OhHiR6amyNHj8aB1EAUZGYmoPtJVwgRAtUDMGwjf6/X6fD4wZozG0VV165DVDDCYBPPEqhoAqerqalnOVFL3lR8iK7ndbgyiajqUQnVtXEyn0ynzTJ8T4Pf7UUfEjCbg8/kQbVddfcCndIfDgQqV5SPTRBnBmCJdfiSuiLL8FoloHRAFFVNGAwyVQFxY9VvUCPSW2ZNTe9TkDVk4oz+97Igxl8ulbjLyVxgUqqurUVPyK4JRm06nk4YhpJCyUXVDFAo0QpYJKtqjmkmUXT1aUaag5vV6q6ur1Z9TXniFLlpTnuBWbtr0LQAFca/Xi85QgaZARi+n+FbxCWygmpoaA+FD8WThkyrKxYGQFVJVZIcP3W43+lV6q8mkHikZ2ev1Xrp0SU4hmgDwyuVykUrLCEZmkHprDufcHdMhxoyZwvGRYn5gOtVjOjY5Tj9aNTfOFN2WMQ7sa1McpkucvyJpOl8PBoOcKC2YU5ryr+mKVHzFPF/ALCNnaYMpfL7mYDKkKJf8yGQeIS3lDzVh5uoAx6ust2quyJe5xwvTSsW3eCQRwcemiSMncphn1iOzjEzN4XSGzAUjTutg9gAImyoLUBNmag6HMfIHa2ZEiUxxGWgOkWKOHTHsmpg9AHNRjLM3iLlgxFwU4wjf7/dzRlum8Dmaw2Se2QMojnORtsiA3hBzzWYQ9WIydRnmm0GyY1OmQLDaDqNXCoAjKeYeQ44ZRGU0lgYMTwWr6scYMs/s6Dll5JtBpvWIUcpYVjhFxWmuJHy1JOWUm/reIHga5OJowszdDxwFM9UcVB9Hc5jbU5jDJ5g3VR5szDJGY1oSzPvHOboaw46eyTxf+Mxmi+UYTfVDIrMeOYu8/C3SHOaZlgRnwGaOHfGTYqQnnD6H2To4msPcIh03gyL3q3I0ntPRYySm9UWqewUQN4NIIJztw7QXgb7SBP4XzCCODcc/TsLpkq6TGURbMdSjKXP4hObQBgJNlSA7m2kGyVzJBPF53AwimXCEz6xHzmDGN4M4O0HjZhDVI8dkp9Cq9JUmAD+i3ILUMHO1JG4GCY5Xtv57gzQVhRLjZhCJIm4GQRSm1gbQ6qEZBMY4kwRjhwRZKszhk2PDXasZRGpJzFAKjpyYnjEMh8OcoYXZ0XPKWIfeIFk4aphZj7E1g+LeIFQEc2WZo6tMM4gTWpW5SM1sHRzNiXuDIvrA6Udi7g1S9wiKlLgZRAJhmkGceox7g0iqN3JRDJlydgaQGaRpZFAic/jkqMRPM4PkWSyJNG4GkSiYc3pmPXIGM7436KY2g5hGCdPjZWqyCyGYOXL2BulNhBStidNs42bQLeINoj6d+g4ZiJtBJI24GQRR1FtvUAwnCWQGqRfCSB+wosfpwaE5xg3tJ5hBmgSRGF8Uo2rCYKYpK8KJm0EkCs7eIL3tKUQEAHOGU4feIE2tQCLTgL7xZpBe9xvfIq1Qv4hjyfQUFTkkNFWBKMbNIBIF0wzibN4i4RNxTYA5mHFmLcxzIh6Px1Rz9Nqhogg3flHsf8oMUsxcSfhozkzN4cywmR09RwnralFMT1YktDoxg5ieEo7TiNPnMFvH/44ZpKcVcTPocrtgjlLxvUHUj3A6QWY7ZI6yHFMPd1cSk3oAbqzSe0vpTDOIM7QwFczhcJg6G5izlv8RM4ijh0zNoXvYSAEIoJkDc/jkcMX3BsnU5K6cuIovilFNMTcbMOsxvigGweJqQVnImnB99gZpTvbk1sTUHOYkgaM58b1BES2SezdNrWKGCgIpzWqWyfJHYg5jHJy4GUTy5ws/bgZBaEwF46DVZzPIeA1OHddW7rjr3AySGSBVl4Eb7w1iThL46zKmZazPe4NMOxPcXG/qf4qbQaTVcTMolnuDmM2VaUlwljZoJJZ7UqpdAurzophpc2XeG8Q8lcr0BnEc1CR8krMmwFlXuh6aY9zXM911HOZje2Ce2To4ZpDe3iCFZJheBNobpPhcUemEpkiXH2VLQpMaEuvnohizgviWBGddiaSqKS7Ilu8rNSACUrFlnt81yUqiCTOFz1wU48w36rM3iMJ0QFbyIAiY2a8yyxhDb5Be93tte4M49ce8J5ejo/wD85zhMxgMcix6zoDN9D8hqIhmu5ITY8h8DIUfDAY593Jy6pF5zXcoFOJUUDgc5qBRdFJZ1GqYI3xmR8/RHKYSclb0EFHI1JxlCj8YZAmfI65gMMi5C5g5F4zkGFbXmzIler21MlHxHAmR6w8oEtWPLM0Jcz3QHGuDJ9WQz+dXc6tIkW1QxSv50efzm/q82ZoT5JSRM3Ywr8Bm9jmxvcKb0+dwbpFmStXvZ1UQUxQc4fv9fk5oVWaOHJVm9gAc5uGKM7Wz9SIiG5lBWG/DpA3/ut1un9kP4UVgPuvh+v1+l8uFw7eIrwb68K/iX4w9CDEjp8swvgoGg6Amv5JhKoLH46Hs9HhDnCO9t0hHMBeEagOfcnaAEewNXar6LbGBSHvG2SHOCyIFGmMingtH+GhmxIaCQxSqpqYGw7a6dggfsVqIjiZ7fr/f7XbrCYpIkeYAUy9TBMmir9DZKf6FK8vlcullCuKxFb7T6QQbxJsCgDBdLpciXX7Enjmr1ep2u0n4elKFxIyFH4175Q2FwoFAKBAIBYPSXyAUxF/EBgr4/YFwWIRC4WAwHLr6L5ISihgjXq/P748EUtT7C4XCfn/AarVFwx9GvrryJ0KhCHH8hcPC5/MHAsFwWGiTijIWCAQ9Hm84LIixKHKEQ/qLsBoKExpRQ0aBwOVomNFl8Qi1YDAUCAQj6VFpXIYjiZG/6N4gh8/njzL231woOwgnGIwYJVGpBiNS1fwLhqLiihheUalG8r1C57IAw1ELD1wR52oAn/t8/sgrzbyizEOql4V/dQ1GpEEpofBlUsHwZTnINK9ULoQfXWq8rBVXmL8sllAoMu4EAkG/PwAO1ZwjhapbJavLwTGjOhzpJaxWK+Y5cqOQ4UAggGEIrUN+JcOBQABRwAxaB4bhWI0dfr8fofRkNtQw4tDp9UvAx8IZRis1BZQIzCMwliYOFZzZy7lcLpvNZip8eeCW80UfBSMJFpX8Vg0jWm2sRmS/32+xWDwej2ZXSYnoMCPToUCAxOj3+38x7cpv5syZK1as+OGHH2jSQFFb8Q0UC9JXjDryI2IrIic5XYaDwSDCyMmWhIyAjbd+vx8jseKV+hEDnjqdUuAPx9BCiZoARinNV5SIYHVowZSoABBw2Ol0UhkVCPQIE4Ee1QBceQhDrX5LKXw0UmX6VgFAXBzhox0aVzd6LkUWikfk6HK5SKp6mgYblHKkIMMyEAqFLBYLp7o5wmeWEYHAFOWSH+UyyukyjH4EzBtrDi7dxm1mMgUZ9kceQh6v3+Xy2h0uu8Md/dd15V93NMXtcLitNofFYnc4L6cg/ep/XQ6nx2Kx2+xOR4SO9p/D6bZaHT9eqHK6vA6n+6o/x38fnU6PxeqIkIrkSPzIwGX6NRabI/KhJ0LKofFnjybWWGx2h9vp9Mg4USYjpXY43U6X12Zz1piUMYJ2sfKSxWpXkJLJRopvd0XF5dGTAzK1WB1WqwOiADOgg68cYNjpiTKP2tGV6pUctRFAEFK9cLHK5eYJX7sS/1sLEeE7PU6XJyJ/LeE7nG6UUaU5IHKZW4fDbbHa7XZ1GYHm9EVNcLfbY7FYwuGwrMMKmMYO6gEUCHgEGvpMvZ4EmLEaO4LBYE1NjWkvDReAJs+U+BPKSN9qAqaDGnKEDapJAYnkcTAWPuLaGtDB+M7sV00rCNSqq6u9Xq9xpoqBmxTjv2YQzKGZM2eSJaRek+Ic5GGuCzKdfpwLnZhuRsweyMjTAzhLG+RbM/bCMRfFOE4/jKB6PFM6c1Hs5wfIpBwx16ZHPYDjI2Vu+kEvqZcRpTMDZDKFz3GJc/bNMCuIH1OMsyhmsTrLDh8tKi4rKi4rLCrFX1FJWVHJoehfWWFx6YHCg/sLS4pKygqKSguKtf6KSguLywqKDhZGPjT4O3Sg6GD+voKig4dktOi3EQpXEg9FMy0p1MoriobPDx0oPBjBieReeuVbIhIBIpSLS8E80S+MFoQ+Ac+RHIsORJczxQAAAL9JREFUosiapCKJBw/tO1BUUFRqjFZYXBbJ8eoyqmgeKig6WFBcWlhSphAaShRhPloLBwoPqr69qozFBw8VROrILMeDhw4UluTvLyy+mjFZ+JEcQU1HFJeRo1UcZewQSVXNZGFJ2YHCkgja1TlGSi3VF+q66OAhhRyiBEuLSkp/+PFidA97iLmcylF7ZmhVTtNmjh0Oh8N0qZF5bxBz7QkDOXV6egCnl4tVaFVsD2LmyKlHDiksiukVn9L1Ln//f/uB3giLNBxuAAAAAElFTkSuQmCC;" vertex="1" parent="WIyWlLk6GJQsqaUBKTNV-1">
          <mxGeometry x="80" y="570" width="770" height="404" as="geometry" />
        </mxCell>
      </root>
    </mxGraphModel>
  </diagram>
</mxfile>
